<svg id="Layer_1" data-name="Layer 1" xmlns="http://www.w3.org/2000/svg" xmlns:xlink="http://www.w3.org/1999/xlink" viewBox="0 0 80 80"><defs><style>.cls-1{fill:none;}.cls-2{clip-path:url(#clip-path);}.cls-3{fill:#fff;}.cls-4,.cls-5{fill:#9a9a9a;}.cls-4{fill-rule:evenodd;}</style><clipPath id="clip-path"><rect class="cls-1" width="80" height="80"/></clipPath></defs><g class="cls-2"><path class="cls-3" d="M80,0H0V80H80Z"/><path class="cls-4" d="M11.43,14.93h57.9A10.67,10.67,0,0,1,80,25.6V53.1A10.67,10.67,0,0,1,69.33,63.76H11.43ZM14.1,17.6V61.1H69.33a8,8,0,0,0,8-8V25.6a8,8,0,0,0-8-8Z"/><path class="cls-5" d="M51.2,20.27H23.47v3.2H51.2Z"/><path class="cls-5" d="M51.2,27.2H23.47v3.2H51.2Z"/><path class="cls-5" d="M51.2,34.13H23.47v3.2H51.2Z"/><path class="cls-5" d="M51.2,41.07H23.47v3.2H51.2Z"/><path class="cls-5" d="M51.2,48H23.47v3.2H51.2Z"/><path class="cls-5" d="M51.2,54.93H23.47v3.2H51.2Z"/><path class="cls-4" d="M37.63,8.53A1.33,1.33,0,0,1,39,7.2H49.87a1.33,1.33,0,0,1,.94.39l7,7a1.33,1.33,0,0,1-.95,2.28H39a1.33,1.33,0,0,1-1.33-1.33Zm2.66,1.34v4.34H53.66L49.32,9.87Z"/><path class="cls-4" d="M37.63,62.82A1.32,1.32,0,0,1,39,61.49H56.88a1.33,1.33,0,0,1,1,2.25l-7,7.28a1.34,1.34,0,0,1-1,.41H39a1.33,1.33,0,0,1-1.33-1.34Zm2.66,1.33v4.61h9l4.45-4.61Z"/><path class="cls-4" d="M5.71,18.13H14V60.21H5.71ZM8.38,20.8V57.54h3V20.8Z"/><path class="cls-4" d="M0,30.93H8.31V48.08H0ZM2.67,33.6V45.41h3V33.6Z"/></g></svg>