<svg id="Layer_1" data-name="Layer 1" xmlns="http://www.w3.org/2000/svg" xmlns:xlink="http://www.w3.org/1999/xlink" viewBox="0 0 80 80"><defs><style>.cls-1,.cls-2{fill:#fff;}.cls-1,.cls-3{fill-rule:evenodd;}.cls-3,.cls-4{fill:#9a9a9a;}.cls-5{mask:url(#mask);}</style><mask id="mask" x="14.4" y="-2.67" width="51.2" height="85.33" maskUnits="userSpaceOnUse"><g id="mask0"><path class="cls-1" d="M24,15.81a16,16,0,0,1,32,0V29.65a21.25,21.25,0,0,1,6.93,15.63V80H44.8V55.46a11.2,11.2,0,1,0-9.6,0V80H17.07V45.28A21.25,21.25,0,0,1,24,29.65Z"/></g></mask></defs><path class="cls-2" d="M80,0H0V80H80Z"/><path class="cls-3" d="M47,63v8.72H33.93V63Zm-2.66,2.67H36.59v3.38h7.75Z"/><path class="cls-3" d="M19.73,62.93V72H8V62.93ZM17.07,65.6h-6.4v3.73h6.4Z"/><path class="cls-3" d="M19.73,59.2v6.4h-8V59.2Zm-2.66,2.67H14.4v1.06h2.67Z"/><path class="cls-3" d="M19.73,69.33v6.4h-8v-6.4ZM17.07,72H14.4v1.07h2.67Z"/><path class="cls-3" d="M19.73,62.93V72h-8V62.93ZM17.07,65.6H14.4v3.73h2.67Z"/><path class="cls-3" d="M71.47,58.67V65.6H60.27V58.67ZM68.8,61.33H62.93v1.6H68.8Z"/><path class="cls-3" d="M71.47,69.33v6.94H60.27V69.33ZM68.8,72H62.93v1.6H68.8Z"/><path class="cls-3" d="M71.47,62.93V72H60.27V62.93ZM68.8,65.6H62.93v3.73H68.8Z"/><path class="cls-4" d="M65.33,76V58.93H61.6V76Z"/><path class="cls-3" d="M66.67,57.6V77.33h-6.4V57.6ZM64,60.27H62.93v14.4H64Z"/><path class="cls-3" d="M44.27,70.4V64.53h1.6V70.4Z"/><path class="cls-3" d="M41.07,70.4V64.53h1.6V70.4Z"/><path class="cls-3" d="M37.87,70.4V64.53h1.6V70.4Z"/><g class="cls-5"><path class="cls-4" d="M56,29.65H53.33v1.17l.86.79ZM62.93,80v2.67H65.6V80ZM44.8,80H42.13v2.67H44.8Zm0-24.54-1.14-2.41-1.53.72v1.69Zm-9.6,0h2.67V53.77l-1.53-.72ZM35.2,80v2.67h2.67V80ZM17.07,80H14.4v2.67h2.67ZM24,29.65l1.81,2,.86-.79V29.65ZM40-2.67A18.58,18.58,0,0,0,21.33,15.81h5.34A13.24,13.24,0,0,1,40,2.67ZM58.67,15.81A18.58,18.58,0,0,0,40-2.67V2.67A13.24,13.24,0,0,1,53.33,15.81Zm0,13.84V15.81H53.33V29.65ZM65.6,45.28A23.92,23.92,0,0,0,57.81,27.7l-3.62,3.91a18.58,18.58,0,0,1,6.08,13.67ZM65.6,80V45.28H60.27V80ZM44.8,82.67H62.93V77.33H44.8ZM47.47,80V55.46H42.13V80ZM45.94,57.86a13.86,13.86,0,0,0,7.93-12.53H48.53a8.56,8.56,0,0,1-4.87,7.72Zm7.93-12.53A13.86,13.86,0,0,0,40,31.47V36.8a8.53,8.53,0,0,1,8.53,8.53ZM40,31.47A13.86,13.86,0,0,0,26.13,45.33h5.34A8.53,8.53,0,0,1,40,36.8ZM26.13,45.33a13.86,13.86,0,0,0,7.93,12.53l2.28-4.81a8.56,8.56,0,0,1-4.87-7.72Zm6.4,10.13V80h5.34V55.46ZM17.07,82.67H35.2V77.33H17.07ZM14.4,45.28V80h5.33V45.28ZM22.19,27.7A23.92,23.92,0,0,0,14.4,45.28h5.33a18.58,18.58,0,0,1,6.08-13.67Zm-.86-11.89V29.65h5.34V15.81Z"/><path class="cls-3" d="M41.32,8.47a2.57,2.57,0,0,0-2.57,0l-5.23,3h0a2.58,2.58,0,0,0-1.3,2.25l0,6.06A2.7,2.7,0,0,0,33.49,22l5.19,3.1h0a2.57,2.57,0,0,0,2.57,0l5.23-3h0A2.58,2.58,0,0,0,47.78,20l0-6.06a2.7,2.7,0,0,0-1.31-2.32h0Zm1.36-2.29h0l5.2,3.1a5.36,5.36,0,0,1,2.6,4.62l0,6.07a5.26,5.26,0,0,1-2.65,4.55l-5.23,3a5.24,5.24,0,0,1-5.25-.07l-5.2-3.1a5.36,5.36,0,0,1-2.6-4.62l0-6.07A5.26,5.26,0,0,1,32.2,9.08l5.23-3h0A5.24,5.24,0,0,1,42.68,6.18Z"/><path class="cls-3" d="M38.8,20A3.2,3.2,0,1,0,37,15.86,3.18,3.18,0,0,0,38.8,20Zm-1,2.47a5.86,5.86,0,1,0-3.24-7.64A5.87,5.87,0,0,0,37.8,22.5Z"/></g></svg>