<svg width="80" height="80" viewBox="0 0 80 80" fill="none" xmlns="http://www.w3.org/2000/svg">
<g clip-path="url(#clip0)">
<rect width="80" height="80" fill="white"/>
<mask id="mask0" style="mask-type:alpha" maskUnits="userSpaceOnUse" x="0" y="7" width="80" height="65">
<path d="M51.2 20.2666H23.4667V23.4666H51.2V20.2666Z" fill="#9A9A9A"/>
<path d="M23.4667 27.2H51.2V30.4H23.4667V27.2Z" fill="#9A9A9A"/>
<path d="M51.2 34.1333H23.4667V37.3333H51.2V34.1333Z" fill="#9A9A9A"/>
<path d="M23.4667 41.0667H51.2V44.2667H23.4667V41.0667Z" fill="#9A9A9A"/>
<path d="M51.2 48H23.4667V51.2H51.2V48Z" fill="#9A9A9A"/>
<path d="M23.4667 54.9333H51.2V58.1334H23.4667V54.9333Z" fill="#9A9A9A"/>
<path fill-rule="evenodd" clip-rule="evenodd" d="M37.6277 8.53328C37.6277 7.7969 38.2246 7.19995 38.961 7.19995H49.8701C50.2237 7.19995 50.5628 7.34043 50.8129 7.59047L57.8259 14.6035C57.9246 14.7021 58.0053 14.8136 58.0673 14.9333H69.3334C75.2244 14.9333 80.0001 19.709 80.0001 25.6V53.0978C80.0001 58.9887 75.2244 63.7643 69.3334 63.7643H57.824L50.8299 71.0172C50.5786 71.2778 50.2321 71.425 49.8701 71.425H38.961C38.2246 71.425 37.6277 70.8281 37.6277 70.0917V63.7643H11.4286V60.2112H5.71436V48.0762H0V30.9333H5.71436V18.1333H11.4286V14.9333H37.6277V8.53328ZM40.2943 9.86662V14.213H53.6642L49.3178 9.86662H40.2943ZM14.0953 17.6V61.0976H69.3334C73.7517 61.0976 77.3334 57.5159 77.3334 53.0978V25.6C77.3334 21.1817 73.7517 17.6 69.3334 17.6H14.0953ZM40.2943 68.7584V64.1525H53.7451L49.3036 68.7584H40.2943ZM8.38102 20.8V57.5446H11.3594V20.8H8.38102ZM2.66667 45.4096V33.6H5.64501V45.4096H2.66667Z" fill="#9A9A9A"/>
</mask>
<g mask="url(#mask0)">
<rect width="80" height="80" fill="#BB2830"/>
</g>
</g>
<defs>
<clipPath id="clip0">
<rect width="80" height="80" fill="white"/>
</clipPath>
</defs>
</svg>
