<svg width="80" height="80" viewBox="0 0 80 80" fill="none" xmlns="http://www.w3.org/2000/svg">
<g clip-path="url(#clip0)">
<rect width="80" height="80" fill="white"/>
<mask id="mask0" style="mask-type:alpha" maskUnits="userSpaceOnUse" x="0" y="0" width="81" height="81">
<path fill-rule="evenodd" clip-rule="evenodd" d="M77.5864 15.7712C76.9683 15.6787 76.3334 15.5889 75.694 15.5036C75.3719 14.4322 74.9415 13.3934 74.4106 12.4069C74.8019 11.8952 75.1875 11.3825 75.5601 10.8789C76.3875 9.76 76.2678 8.17313 75.282 7.18781L72.812 4.71812C71.8262 3.73219 70.2394 3.61266 69.1208 4.44031C68.6154 4.81422 68.103 5.19969 67.5928 5.58953C66.6064 5.05859 65.5678 4.62828 64.4961 4.30594C64.4106 3.66656 64.3211 3.03172 64.2286 2.41375C64.0228 1.03781 62.8162 0 61.4222 0H57.929C56.535 0 55.3284 1.03781 55.1226 2.41359C55.0303 3.03125 54.9406 3.66625 54.8551 4.30578C53.7834 4.62812 52.7447 5.05844 51.7584 5.58938C51.2486 5.19937 50.7358 4.81375 50.2306 4.44016C49.1117 3.6125 47.5248 3.73203 46.5394 4.71781L44.0697 7.18734C43.0837 8.17297 42.9639 9.76 43.7915 10.8791C44.1639 11.3825 44.5495 11.8953 44.9406 12.4069C44.41 13.3933 43.9795 14.4319 43.6572 15.5036C43.018 15.5891 42.3829 15.6787 41.765 15.7712C40.3889 15.9772 39.3511 17.1836 39.3511 18.5778V22.0708C39.3511 23.4648 40.3886 24.6714 41.7647 24.8773C42.3828 24.9698 43.0176 25.0597 43.657 25.145C43.9794 26.2166 44.4097 27.2552 44.9404 28.2417C44.5497 28.753 44.164 29.2655 43.7909 29.7697C42.9637 30.8883 43.0833 32.4755 44.069 33.4606L46.539 35.9306C47.5247 36.9166 49.1115 37.0359 50.2303 36.2084C50.7356 35.8348 51.2481 35.4491 51.7581 35.0594C52.7448 35.5903 53.7836 36.0206 54.855 36.3428C54.9401 36.982 55.03 37.617 55.1225 38.2352C55.3284 39.6111 56.535 40.6489 57.929 40.6489H61.4222C62.8162 40.6489 64.0228 39.6114 64.2286 38.235C64.3209 37.6169 64.4106 36.982 64.4961 36.3427C65.5676 36.0206 66.6062 35.59 67.5928 35.0591C68.1026 35.4491 68.6154 35.8347 69.1206 36.2084C70.2392 37.0361 71.8264 36.9166 72.8119 35.9308L75.2819 33.4611C76.2676 32.4755 76.3873 30.8884 75.5597 29.7695C75.1869 29.2655 74.8012 28.7527 74.4106 28.2419C74.9412 27.2555 75.3717 26.217 75.694 25.1452C76.3333 25.0597 76.9683 24.97 77.5862 24.8775C78.9623 24.6716 80.0001 23.4652 80.0001 22.0709V18.578C80 17.1838 78.9623 15.9772 77.5864 15.7712ZM76.5981 21.5847C76.0369 21.6661 75.4642 21.7452 74.8897 21.82C73.7533 21.9683 72.823 22.7748 72.5201 23.8745C72.23 24.9275 71.8089 25.9436 71.2687 26.8945C70.7045 27.8872 70.7915 29.1156 71.4904 30.0245C71.8428 30.4827 72.1923 30.9437 72.5325 31.3994L70.7506 33.1814C70.2936 32.8403 69.8325 32.4909 69.3753 32.1394C68.4669 31.4402 67.2381 31.3538 66.2453 31.9173C65.2942 32.4577 64.2781 32.8787 63.2258 33.1689C62.1254 33.472 61.3189 34.4023 61.1711 35.5384C61.0962 36.113 61.0173 36.6858 60.9358 37.247H58.4155C58.334 36.6858 58.2551 36.1131 58.1801 35.5391C58.0319 34.4025 57.2254 33.4722 56.1255 33.1691C55.0728 32.8791 54.057 32.458 53.1056 31.9177C52.1128 31.3536 50.884 31.4403 49.9758 32.1394C49.5184 32.4911 49.0576 32.8403 48.6003 33.1814L46.8184 31.3994C47.1586 30.9433 47.5079 30.4825 47.8608 30.0239C48.5592 29.1153 48.6462 27.8869 48.0822 26.8942C47.542 25.9433 47.1209 24.927 46.8308 23.8744C46.5278 22.7744 45.5976 21.968 44.4612 21.8197C43.8867 21.7447 43.3139 21.6659 42.7526 21.5842V19.0642C43.3139 18.9828 43.8865 18.9037 44.4611 18.8289C45.5975 18.6806 46.5278 17.8741 46.8306 16.7744C47.1208 15.7216 47.5417 14.7055 48.082 13.7544C48.6462 12.7617 48.5592 11.5331 47.8606 10.6245C47.5076 10.1658 47.1583 9.70484 46.8184 9.24953L48.6003 7.4675C49.0573 7.80859 49.5183 8.15797 49.9753 8.50937C50.8834 9.20859 52.112 9.29578 53.1056 8.73156C54.0564 8.19141 55.0726 7.77031 56.1251 7.48C57.2254 7.17688 58.032 6.24656 58.1798 5.11047C58.2548 4.53594 58.3339 3.96328 58.4153 3.40203H60.9356C61.017 3.96313 61.0959 4.53578 61.1708 5.11C61.319 6.24656 62.1256 7.17687 63.2254 7.47984C64.2783 7.77 65.2945 8.19125 66.2455 8.73141C67.2384 9.29562 68.467 9.20797 69.3751 8.50953C69.8325 8.15797 70.2933 7.80859 70.7506 7.4675L72.5325 9.24953C72.1926 9.705 71.8433 10.1661 71.4903 10.625C70.7917 11.5334 70.7048 12.7619 71.2686 13.7545C71.8087 14.7058 72.2298 15.722 72.52 16.7745C72.8229 17.8745 73.7531 18.6809 74.8895 18.8292C75.464 18.9042 76.0369 18.9831 76.5981 19.0647V21.5847ZM48.8143 56.1029C49.6776 56.601 50.5408 57.1091 51.3819 57.6146C52.791 58.4615 53.3783 60.2485 52.748 61.7711L50.9088 66.2116C50.278 67.7344 48.5991 68.583 47.0036 68.1851C46.0543 67.9485 45.0846 67.6976 44.1193 67.4387C43.0402 68.8047 41.8029 70.0422 40.439 71.1202C40.6994 72.0918 40.9504 73.0611 41.1852 74.0038C41.5829 75.5993 40.7341 77.2782 39.2119 77.9088L34.7716 79.748C33.2486 80.3786 31.4618 79.7916 30.6146 78.3822C30.1083 77.5396 29.6004 76.6768 29.1036 75.8155C27.3768 76.0176 25.6269 76.0172 23.898 75.8146C23.3952 76.6858 22.8872 77.5488 22.3865 78.3821C21.7682 79.4096 20.6507 80.0001 19.5004 80.0001C19.0732 80.0001 18.6415 79.9185 18.229 79.7477L13.7885 77.9083C12.266 77.2777 11.4175 75.5988 11.8152 74.0033C12.0513 73.0555 12.3024 72.0858 12.5618 71.1188C11.1957 70.0397 9.95833 68.8029 8.88005 67.4387C7.91364 67.698 6.94427 67.949 5.99677 68.1849C4.40021 68.5827 2.72224 67.7338 2.09161 66.2115L0.252238 61.7711C-0.378387 60.2483 0.208957 58.4615 1.61802 57.6144C2.45693 57.1104 3.31974 56.6024 4.18505 56.1032C3.98271 54.376 3.98318 52.6266 4.18599 50.8976C3.32146 50.3987 2.45818 49.8905 1.61833 49.3858C0.209269 48.539 -0.378074 46.7519 0.252394 45.2293L2.0913 40.7891C2.72208 39.2668 4.40052 38.4176 5.99646 38.8155C6.94349 39.0515 7.91318 39.3024 8.8813 39.5622C9.96005 38.1962 11.1972 36.9585 12.5615 35.8805C12.3029 34.9171 12.0519 33.9477 11.8152 32.9969C11.4175 31.4015 12.2663 29.7226 13.7885 29.0919L18.2288 27.2527C19.7515 26.6219 21.5383 27.2091 22.3858 28.6185C22.8885 29.4547 23.3965 30.3177 23.8968 31.1851C25.6238 30.9827 27.3732 30.9832 29.1024 31.1862C29.6011 30.3215 30.1094 29.4582 30.614 28.6185C31.4611 27.2088 33.2485 26.6218 34.771 27.2527L39.2113 29.0919C40.7338 29.7227 41.5822 31.4015 41.1846 32.9969C40.9483 33.9458 40.6971 34.9155 40.438 35.8815C41.8041 36.9604 43.0415 38.1974 44.1197 39.5618C45.0855 39.3027 46.0547 39.0516 47.0033 38.8155C48.5996 38.4179 50.2777 39.2665 50.9085 40.789L52.7477 45.2293L52.7479 45.2294C53.3785 46.7524 52.791 48.5393 51.3816 49.3862C50.5446 49.8894 49.6818 50.3972 48.8152 50.8972C49.0177 52.6235 49.0172 54.3732 48.8143 56.1029ZM44.9083 63.9426C45.8327 64.1916 46.7624 64.4332 47.6744 64.6616L49.3646 60.5797C48.5558 60.0951 47.7277 59.6088 46.9002 59.1324C45.7258 58.4563 45.0747 57.1543 45.2413 55.8151C45.4329 54.2758 45.4332 52.7166 45.2421 51.1811C45.0757 49.8433 45.7271 48.5422 46.9013 47.8661C47.7316 47.388 48.5594 46.9019 49.3646 46.4193L47.6741 42.3379C46.7633 42.5662 45.8343 42.8077 44.9094 43.0568C43.6004 43.409 42.2202 42.9494 41.3921 41.8858C40.4408 40.6646 39.3383 39.5624 38.1151 38.6101C37.0502 37.7812 36.5897 36.3999 36.9421 35.0915C37.1913 34.1663 37.4329 33.2368 37.6613 32.3254L33.5797 30.6349C33.096 31.4422 32.6096 32.2704 32.1325 33.0991C31.4566 34.2733 30.1551 34.9249 28.8152 34.758C27.2757 34.5662 25.7168 34.5662 24.1813 34.7572C22.8449 34.9246 21.5426 34.2724 20.8663 33.0982C20.3877 32.2668 19.9015 31.439 19.4196 30.6349L15.338 32.3254C15.5669 33.2385 15.8085 34.1676 16.0569 35.0901C16.4093 36.3985 15.9497 37.7793 14.886 38.6076C13.6649 39.5585 12.5626 40.661 11.6102 41.8844C10.7808 42.9493 9.39958 43.4099 8.09146 43.0574C7.16427 42.8079 6.23489 42.5663 5.32552 42.3383L3.63489 46.4197C4.44239 46.904 5.27052 47.3902 6.09927 47.8674C7.27411 48.5437 7.92489 49.846 7.75802 51.1851C7.56693 52.7233 7.56646 54.2824 7.75755 55.8187C7.9238 57.1565 7.27255 58.4574 6.09833 59.1335C5.26927 59.6108 4.4413 60.0969 3.63505 60.5804L5.32568 64.6618C6.23583 64.4336 7.16505 64.1921 8.09052 63.9429C9.39896 63.5907 10.7796 64.0501 11.6077 65.114C12.559 66.3352 13.6613 67.4374 14.8847 68.3897C15.9496 69.2187 16.41 70.5999 16.0577 71.9085C15.8083 72.8343 15.5668 73.7638 15.3385 74.6743L19.42 76.3649C19.9002 75.5635 20.3865 74.7354 20.8674 73.9004C21.5433 72.726 22.8435 72.0754 24.1849 72.2419C25.723 72.4333 27.2822 72.4335 28.8183 72.2427C30.156 72.0771 31.4572 72.7277 32.1333 73.9018C32.6085 74.7274 33.0946 75.5551 33.5801 76.3651L37.6616 74.6746C37.4346 73.769 37.1932 72.8399 36.9427 71.9096C36.5904 70.6016 37.0499 69.221 38.1135 68.3926C39.3349 67.4415 40.4372 66.339 41.3897 65.1155C42.2185 64.0507 43.5996 63.5905 44.9083 63.9426ZM37.7752 48.8297L37.7753 48.8298C40.3503 55.047 37.3874 62.2 31.1705 64.7753C29.6644 65.3989 28.0822 65.7108 26.5 65.7108C24.9178 65.7108 23.3356 65.3989 21.8299 64.7753C18.8183 63.5276 16.4724 61.1822 15.225 58.1703C12.6497 51.9533 15.6128 44.8001 21.8297 42.2248C28.0477 39.6497 35.2002 42.6126 37.7752 48.8297ZM23.2002 61.4669C25.3286 62.3481 27.6722 62.3483 29.8 61.4669C34.1928 59.6472 36.2866 54.593 34.467 50.2001C33.0928 46.883 29.8744 44.8767 26.4889 44.8767C25.3911 44.8767 24.2761 45.0876 23.2003 45.5333C18.8074 47.3528 16.7136 52.4072 18.5335 56.8C19.415 58.928 21.0724 60.5855 23.2002 61.4669ZM52.4255 20.3244C52.4255 16.3266 55.678 13.0742 59.6757 13.0742C63.6735 13.0742 66.9258 16.3266 66.9258 20.3244C66.9258 24.3223 63.6735 27.5747 59.6757 27.5747C55.6779 27.5747 52.4255 24.3223 52.4255 20.3244ZM55.6483 20.3242C55.6483 22.545 57.4552 24.3517 59.6757 24.3517C61.8963 24.3517 63.703 22.545 63.703 20.3242C63.7029 18.1036 61.8963 16.2969 59.6757 16.2969C57.4551 16.2969 55.6483 18.1034 55.6483 20.3242Z" fill="#9A9A9A"/>
</mask>
<g mask="url(#mask0)">
<rect width="80" height="80" fill="#BB2830"/>
</g>
</g>
<defs>
<clipPath id="clip0">
<rect width="80" height="80" fill="white"/>
</clipPath>
</defs>
</svg>
