<svg width="80" height="80" viewBox="0 0 80 80" fill="none" xmlns="http://www.w3.org/2000/svg">
<rect width="80" height="80" fill="white"/>
<path fill-rule="evenodd" clip-rule="evenodd" d="M30 21.7778L30 50.2983H51.5088L51.5088 21.7778C51.5088 15.8383 46.6939 11.0234 40.7544 11.0234C34.8149 11.0234 30 15.8383 30 21.7778ZM27 53.2983H54.5088L54.5088 21.7778C54.5088 14.1815 48.3507 8.02344 40.7544 8.02344C33.158 8.02344 27 14.1815 27 21.7778V53.2983Z" fill="#BB2830"/>
<path d="M20.0117 53.8714C20.0117 49.1237 23.8605 45.2749 28.6082 45.2749L52.6784 45.2749C57.4261 45.2749 61.2749 49.1237 61.2749 53.8714L20.0117 53.8714Z" fill="white"/>
<mask id="mask0" style="mask-type:alpha" maskUnits="userSpaceOnUse" x="16" y="0" width="49" height="80">
<path fill-rule="evenodd" clip-rule="evenodd" d="M42 0V9H39V0H42ZM52.6784 48.2749H28.6082C26.6211 48.2749 24.8759 49.3105 23.8829 50.8714H57.4037C56.4107 49.3105 54.6655 48.2749 52.6784 48.2749ZM60.7369 50.8714C60.7804 50.9881 60.8214 51.1061 60.8599 51.2252H65V54.2252H54.3977V70.4913H49.0205V79.6608H46.0205V70.4913L35.2661 70.4913V79.6608H32.2661V70.4913H26.8889V54.2252H16V51.2252H20.4267C20.4652 51.1061 20.5062 50.9881 20.5497 50.8714C21.7669 47.603 24.9157 45.2749 28.6082 45.2749H52.6784C56.3709 45.2749 59.5197 47.603 60.7369 50.8714ZM29.8889 54.2252L29.8889 67.4913L51.3977 67.4913V60.5294H39.7837V57.5294H51.3977V54.2252H29.8889ZM40 13.5L40 16.5L43.8889 16.5C44.6387 16.5 44.9431 16.705 45.0933 16.8766C45.277 17.0866 45.5 17.556 45.5 18.5556V23L48.5 22.9993V18.5556C48.5 17.1847 48.2044 15.8764 47.3511 14.9011C46.4642 13.8876 45.2131 13.5 43.8889 13.5L40 13.5Z" fill="#9A9A9A"/>
</mask>
<g mask="url(#mask0)">
<rect width="80" height="80" fill="#BB2830"/>
</g>
</svg>
