<svg width="80" height="80" viewBox="0 0 80 80" fill="none" xmlns="http://www.w3.org/2000/svg">
<rect width="80" height="80" fill="white"/>
<mask id="mask0" style="mask-type:alpha" maskUnits="userSpaceOnUse" x="0" y="0" width="80" height="80">
<path fill-rule="evenodd" clip-rule="evenodd" d="M41.2903 59.3548H49.28L55.7316 61.9355H80V74.8387H55.7316L49.28 77.4193H41.2903V80H33.5484V77.4193H25.8064V72.2581H18.0645C8.10323 72.2581 0 64.1548 0 54.1935C0 44.2323 8.10323 36.129 18.0645 36.129H61.9355C67.6271 36.129 72.2581 31.4981 72.2581 25.8064C72.2581 20.1148 67.6271 15.4839 61.9355 15.4839H41.2903V16.7742C41.2903 18.9084 39.5535 20.6452 37.4194 20.6452H20.6452V23.2258H0V0H20.6452V2.58065H37.4194C39.5535 2.58065 41.2903 4.31742 41.2903 6.45161V7.74194H61.9355C71.8968 7.74194 80 15.8452 80 25.8064C80 35.7677 71.8968 43.871 61.9355 43.871H18.0645C12.3729 43.871 7.74194 48.5019 7.74194 54.1935C7.74194 59.8852 12.3729 64.5161 18.0645 64.5161H25.8064V59.3548H33.5484V56.7742H41.2903V59.3548ZM2.58065 20.6452H18.0645V2.58065H2.58065V20.6452ZM37.4194 18.0645C38.1316 18.0645 38.7097 17.4865 38.7097 16.7742V6.45161C38.7097 5.73935 38.1316 5.16129 37.4194 5.16129H20.6452V18.0645H37.4194ZM18.0645 69.6774H25.8064V67.0968H18.0645C10.9497 67.0968 5.16129 61.3084 5.16129 54.1935C5.16129 47.0787 10.9497 41.2903 18.0645 41.2903H61.9355C70.4735 41.2903 77.4193 34.3445 77.4193 25.8064C77.4193 17.2684 70.4735 10.3226 61.9355 10.3226H41.2903V12.9032H61.9355C69.0503 12.9032 74.8387 18.6916 74.8387 25.8064C74.8387 32.9213 69.0503 38.7097 61.9355 38.7097H18.0645C9.52645 38.7097 2.58065 45.6555 2.58065 54.1935C2.58065 62.7316 9.52645 69.6774 18.0645 69.6774ZM28.3871 74.8387H33.5484V61.9355H28.3871V74.8387ZM36.129 74.8387V77.4193H38.7097V74.8387H36.129ZM36.129 69.6774V72.2581H38.7097V69.6774H36.129ZM36.129 64.5161V67.0968H38.7097V64.5161H36.129ZM36.129 59.3548V61.9355H38.7097V59.3548H36.129ZM50.3226 74.2232L54.1935 72.6748V64.0993L50.3226 62.551V69.6774H47.7419V61.9355H41.2903V74.8387H47.7419V72.2581H50.3226V74.2232ZM77.4193 64.5161H74.8387V72.2581H77.4193V64.5161ZM72.2581 64.5161H64.5161V72.2581H72.2581V64.5161ZM61.9355 64.5161H56.7742V72.2581H61.9355V64.5161ZM5.16125 15.4839H15.4838V18.0645H5.16125V15.4839ZM15.4838 5.16125H5.16125V7.7419H15.4838V5.16125ZM5.16125 10.3226H15.4838V12.9033H5.16125V10.3226Z" fill="#9A9A9A"/>
</mask>
<g mask="url(#mask0)">
<rect width="80" height="80" fill="#BB2830"/>
</g>
</svg>
