<svg width="80" height="77" viewBox="0 0 80 77" fill="none" xmlns="http://www.w3.org/2000/svg">
<g clip-path="url(#clip0)">
<rect width="80" height="77" fill="white"/>
<mask id="mask0" style="mask-type:alpha" maskUnits="userSpaceOnUse" x="5" y="4" width="74" height="74">
<path fill-rule="evenodd" clip-rule="evenodd" d="M63.8229 4.22787L64.8836 5.28853L71.4916 11.8965L77.6276 18.0325L78.6882 19.0932L77.6276 20.1538L71.0295 26.7519C71.057 27.2097 71.0836 27.5466 71.1063 27.7885C71.1277 28.0168 71.1451 28.1571 71.1556 28.2323C71.1599 28.2627 71.1629 28.2817 71.1644 28.2912L71.3257 29.059L63.9532 36.4315L61.3662 36.4152L54.7796 43.0018L54.9951 47.5238L55.0267 48.1866L54.5575 48.6558L26.5769 76.6364L25.5162 77.6971L24.4556 76.6364L15.6036 67.7845L6.07078 58.2516L5.01012 57.191L6.07078 56.1303L34.0514 28.1497L34.5441 27.657L35.2384 27.7157L39.9378 28.113L44.1996 23.8512L44.1542 16.6326L51.4167 9.37004L58.417 9.63375L62.7623 5.28853L63.8229 4.22787ZM74.4456 19.0932L68.2476 25.2912L67.9777 25.298C67.9794 25.3432 67.9811 25.3879 67.9828 25.432C67.9844 25.4722 67.9859 25.512 67.9875 25.5513L52.1891 41.3497L51.7199 41.8189L51.7515 42.4817L51.9669 47.0037L25.5162 73.4544L17.725 65.6632L9.25277 57.191L12.0326 54.4112L24.4069 66.7855L26.5017 64.6907L14.1274 52.3164L35.68 30.7637L40.3794 31.161L41.0737 31.2197L41.5664 30.727L63.8229 8.47051L69.3703 14.0178L74.4456 19.0932ZM55.5433 12.5075L47.1621 20.8887L47.1432 17.8862L52.6316 12.3978L55.5433 12.5075ZM63.7129 17.5419L66.6921 17.4671L66.9731 24.9263L59.7106 32.1889L52.0663 32.1408L52.0475 29.1595L58.4569 29.1999L63.9454 23.7114L63.7129 17.5419Z" fill="#9A9A9A"/>
</mask>
<g mask="url(#mask0)">
<rect width="80" height="77" fill="#BB2830"/>
</g>
</g>
<defs>
<clipPath id="clip0">
<rect width="80" height="77" fill="white"/>
</clipPath>
</defs>
</svg>
