<svg width="80" height="80" viewBox="0 0 80 80" fill="none" xmlns="http://www.w3.org/2000/svg">
<g clip-path="url(#clip0)">
<rect width="80" height="80" fill="white"/>
<mask id="mask0" style="mask-type:alpha" maskUnits="userSpaceOnUse" x="0" y="10" width="81" height="60">
<path fill-rule="evenodd" clip-rule="evenodd" d="M48 60V70H51L51 60V56.5H54.0338L60.5 49.462V41.9745L61.6213 44.5909L64.3788 43.4092L61.3788 36.4092L60.5 36.7858V30.538L54.0338 23.5H51V20V10H48V20H13V24H8C3.58172 24 0 27.5817 0 32V48C0 52.4183 3.58172 56 8 56H13V60H21.1765H24.1765H48ZM48 57V23H44.2941V49H41.2941V23H16V24V56V57H21.1765L21.1765 33H24.1765L24.1765 57H48ZM13 27H8C5.23858 27 3 29.2386 3 32V48C3 50.7614 5.23858 53 8 53H13V27ZM10 33C10 34.1046 9.10457 35 8 35C6.89543 35 6 34.1046 6 33C6 31.8954 6.89543 31 8 31C9.10457 31 10 31.8954 10 33ZM8 42C9.10457 42 10 41.1046 10 40C10 38.8954 9.10457 38 8 38C6.89543 38 6 38.8954 6 40C6 41.1046 6.89543 42 8 42ZM10 47C10 48.1046 9.10457 49 8 49C6.89543 49 6 48.1046 6 47C6 45.8954 6.89543 45 8 45C9.10457 45 10 45.8954 10 47ZM51.5 53.5H52.7162L57.5 48.2931V31.7069L52.7162 26.5H51.5V53.5ZM68.6213 37.5909L71.6213 44.5909L72.5 44.2144V47.2155L80.5 44.0155V36.9844L72.5 33.7844V39.0254L71.3788 36.4092L68.6213 37.5909ZM63.6213 37.5909L66.6213 44.5909L69.3788 43.4092L66.3788 36.4092L63.6213 37.5909ZM75.5 38.2155V42.7844L77.5 41.9844V39.0155L75.5 38.2155Z" fill="#9A9A9A"/>
</mask>
<g mask="url(#mask0)">
<rect width="80" height="80" fill="#BB2830"/>
</g>
</g>
<defs>
<clipPath id="clip0">
<rect width="80" height="80" fill="white"/>
</clipPath>
</defs>
</svg>
