<svg width="80" height="80" viewBox="0 0 80 80" fill="none" xmlns="http://www.w3.org/2000/svg">
<rect width="80" height="80" fill="white"/>
<mask id="mask0" style="mask-type:alpha" maskUnits="userSpaceOnUse" x="3" y="8" width="75" height="64">
<path d="M63.4425 8H17.5575C9.53057 8 3 14.5844 3 22.6774V57.4276C3 59.0591 4.31149 60.3814 5.92969 60.3814H15.4611V69.0462C15.4611 70.6771 15.8351 72 17.4533 72C19.0715 72 19.4455 70.6771 19.4455 69.0462V60.3814H26.9842V69.0462C26.9842 70.6771 27.3582 72 28.9764 72C30.5946 72 30.9686 70.6771 30.9686 69.0462V60.3814H61.5545V69.0462C61.5545 70.6771 61.9285 72 63.5467 72C65.1649 72 65.5389 70.6771 65.5389 69.0462V60.3814H75.0703C76.6885 60.3814 78 59.0591 78 57.4276V22.6774C78 14.5844 71.4694 8 63.4425 8ZM17.5575 12.0172H63.4425C68.2388 12.0172 74.0156 17.8417 74.0156 22.6774V42.8552H6.98438V22.6774C6.98438 17.8417 12.7612 12.0172 17.5575 12.0172ZM6.98438 56.3642V46.8724H74.0156V56.3642H6.98438Z" fill="#9A9A9A"/>
</mask>
<g mask="url(#mask0)">
<rect width="80" height="80" fill="#BB2830"/>
</g>
</svg>
