<svg width="80" height="80" viewBox="0 0 80 80" fill="none" xmlns="http://www.w3.org/2000/svg">
<rect width="80" height="80" fill="white"/>
<mask id="mask0" style="mask-type:alpha" maskUnits="userSpaceOnUse" x="0" y="0" width="80" height="80">
<path d="M79.9981 2.82789L77.1702 0L71.6798 5.49048C68.6145 3.69052 64.6093 4.07583 61.9814 6.70372L54.911 13.7742C53.3496 12.2129 50.8164 12.2115 49.2538 13.7742L32.2835 30.7445L28.041 26.5019C26.4796 24.9407 23.9464 24.9393 22.3838 26.5019L16.7266 32.1591C15.1654 33.7203 15.1654 36.2537 16.7266 37.8163L8.2415 46.3014C6.68013 47.8628 6.68013 50.396 8.2415 51.9586L9.65614 53.3732L1.17091 61.8583C-0.390302 63.4195 -0.390302 65.9529 1.17091 67.5155L12.4839 78.8285C14.0465 80.3911 16.5785 80.3898 18.1411 78.8285L26.6262 70.3434L28.0408 71.758C29.6034 73.3207 32.1354 73.3194 33.698 71.758L42.1831 63.273C43.7457 64.8356 46.2776 64.8343 47.8403 63.273L53.4975 57.6158C55.0588 56.0518 55.0588 53.5185 53.4961 51.9573L49.2535 47.7148L66.2238 30.7445C67.7864 29.1819 67.7864 26.6499 66.2238 25.0873L73.2943 18.0169C75.9222 15.389 76.3075 11.3838 74.5075 8.31852L79.9981 2.82789ZM37.9407 30.7445L49.2537 42.0574L46.4258 44.8853L35.1128 33.5724L37.9407 30.7445ZM15.3132 75.9979L4.0002 64.685L6.8281 61.8571L18.1411 73.17L15.3132 75.9979ZM20.9704 70.3407L9.65739 59.0278L12.4853 56.1999L23.7983 67.5128L20.9704 70.3407ZM30.8689 68.9275L11.0706 49.128L19.5557 40.643L39.3538 60.441L30.8689 68.9275ZM50.6683 54.7852L45.0111 60.4424L19.5557 34.987L25.2129 29.3298L50.6683 54.7852ZM52.0816 39.2296L40.7686 27.9166L43.5965 25.0887L54.9095 36.4017L52.0816 39.2296ZM57.7387 33.5738L46.4258 22.2608L52.083 16.6036L63.3959 27.9166L57.7387 33.5738ZM70.4664 15.189L63.3959 22.2594L57.7387 16.6022L64.8092 9.53177C66.3718 7.96916 68.9038 7.96916 70.4664 9.53177C72.029 11.0944 72.029 13.6263 70.4664 15.189Z" fill="#9A9A9A"/>
</mask>
<g mask="url(#mask0)">
<rect width="80" height="80" fill="#BB2830"/>
</g>
</svg>
