<svg width="80" height="80" viewBox="0 0 80 80" fill="none" xmlns="http://www.w3.org/2000/svg">
<g clip-path="url(#clip0)">
<rect width="80" height="80" fill="white"/>
<mask id="mask0" style="mask-type:alpha" maskUnits="userSpaceOnUse" x="-1" y="0" width="82" height="80">
<path fill-rule="evenodd" clip-rule="evenodd" d="M11.0865 0.127197L12.8641 14.1234L9.88803 14.5014L8.9294 6.95361C6.57409 12.275 5.09871 21.0488 10.8751 29.7241C19.0844 42.0533 14.3107 53.7651 10.7984 58.1609L8.45468 56.2882C11.3996 52.6025 15.6661 42.3325 8.378 31.3868C2.38257 22.3825 3.31741 13.2895 5.60346 7.18489L0.806926 10.2457L-0.806885 7.71677L8.35838 1.86811L8.41292 1.79252L8.44281 1.81423L11.0865 0.127197ZM29.5935 29.7241C23.7862 21.0024 25.3085 12.1811 27.6857 6.86847L28.6551 14.5014L31.6312 14.1234L29.8536 0.127197L27.184 1.83077L27.1313 1.79252C27.0997 1.83609 27.0679 1.88031 27.036 1.92517L17.9602 7.71677L19.574 10.2457L24.3066 7.2257C22.0317 13.33 21.1143 22.4026 27.0964 31.3868C34.3845 42.3325 30.118 52.6025 27.1731 56.2882L29.5168 58.1609C33.0291 53.7651 37.8028 42.0533 29.5935 29.7241ZM48.603 29.7612C43.3723 21.3818 44.4706 12.9042 46.5361 7.52467L47.4222 14.5014L50.3983 14.1234L48.6207 0.127197L36.7273 7.71677L38.3411 10.2457L43.569 6.90966C41.353 12.9995 40.3574 22.2174 46.0581 31.3498C52.9099 42.3262 48.8919 52.6384 46.13 56.3254L48.5311 58.124C51.8229 53.7294 56.2801 42.0597 48.603 29.7612ZM63.7469 60.7138L62.7133 61.6108C60.8564 63.2225 59.6897 65.5904 59.6897 68.2343C59.6897 73.0755 63.6143 77.0001 68.4555 77.0001C73.2967 77.0001 77.2213 73.0755 77.2213 68.2343C77.2213 65.5904 76.0546 63.2225 74.1976 61.6108L73.1641 60.7138V59.3452V13.0568C73.1641 10.4563 71.056 8.34814 68.4555 8.34814C65.855 8.34814 63.7469 10.4563 63.7469 13.0568V59.3452V60.7138ZM60.7469 13.0568C60.7469 8.79941 64.1981 5.34814 68.4555 5.34814C72.7128 5.34814 76.1641 8.79941 76.1641 13.0568V59.3452C78.6496 61.5024 80.2213 64.6848 80.2213 68.2343C80.2213 74.7323 74.9536 80.0001 68.4555 80.0001C61.9574 80.0001 56.6897 74.7323 56.6897 68.2343C56.6897 64.6848 58.2614 61.5025 60.7469 59.3452V13.0568ZM69.9554 63.0881V34.109H66.9554V63.0881C64.7984 63.7328 63.2262 65.7323 63.2262 68.099C63.2262 70.987 65.5674 73.3282 68.4554 73.3282C71.3435 73.3282 73.6847 70.987 73.6847 68.099C73.6847 65.7323 72.1124 63.7328 69.9554 63.0881Z" fill="#9A9A9A"/>
</mask>
<g mask="url(#mask0)">
<rect width="80" height="80" fill="#BB2830"/>
</g>
</g>
<defs>
<clipPath id="clip0">
<rect width="80" height="80" fill="white"/>
</clipPath>
</defs>
</svg>
