<svg width="80" height="80" viewBox="0 0 80 80" fill="none" xmlns="http://www.w3.org/2000/svg">
<g clip-path="url(#clip0)">
<rect width="80" height="80" fill="white"/>
<mask id="mask0" style="mask-type:alpha" maskUnits="userSpaceOnUse" x="0" y="0" width="80" height="80">
<path fill-rule="evenodd" clip-rule="evenodd" d="M73.5484 23.2258H50.3226V18.0645H54.1935V7.74194H51.6129V3.87097C51.6129 1.73677 49.8761 0 47.7419 0H42.5806C40.4464 0 38.7097 1.73677 38.7097 3.87097V7.74194H25.8064V18.0645H29.6774V23.2258H16.7742V30.9677H25.009L28.3871 37.7239V58.0645C28.3871 59.7445 29.4697 61.1639 30.9677 61.6981V65.8064C30.9677 67.9406 32.7045 69.6774 34.8387 69.6774H34.9897L36.28 80H43.72L45.0103 69.6774H45.1613C47.2955 69.6774 49.0322 67.9406 49.0322 65.8064V61.6981C50.5303 61.1639 51.6129 59.7445 51.6129 58.0645V38.7097V37.4194V35.8606L73.5484 30.6994V23.2258ZM41.2903 3.87097C41.2903 3.15871 41.8684 2.58065 42.5806 2.58065H47.7419C48.4542 2.58065 49.0322 3.15871 49.0322 3.87097V7.74194H41.2903V3.87097ZM32.258 18.0645H34.8387V15.4839H28.3871V10.3226H51.6129V15.4839H37.4193V18.0645H47.7419V23.2258H32.258V18.0645ZM41.4413 77.4193H38.5587L37.5909 69.6774H42.4103L41.4413 77.4193ZM49.0322 58.0645C49.0322 58.7768 48.4542 59.3548 47.7419 59.3548H38.7097V61.9355H46.4516V65.8064C46.4516 66.5187 45.8735 67.0968 45.1613 67.0968H34.8387C34.1264 67.0968 33.5484 66.5187 33.5484 65.8064V61.9355H36.129V59.3548H32.258C31.5458 59.3548 30.9677 58.7768 30.9677 58.0645V38.7097H49.0322V58.0645ZM49.0322 33.8168V36.129H30.4748L26.6038 28.3871H19.3548V25.8064H63.2258V30.4774L49.0322 33.8168ZM70.9677 28.6555L65.8064 29.8697V25.8064H70.9677V28.6555ZM15.4839 36.1291H11.6129V30.9678H9.03226V36.1291H5.16129V43.871H0V54.1936H2.58065V55.4839C2.58065 57.1639 3.66323 58.5833 5.16129 59.1175V75.2297L8.34194 80H12.3032L15.4839 75.2297V59.1175C16.9819 58.5833 18.0645 57.1639 18.0645 55.4839V54.1936H20.6452V43.871H15.4839V36.1291ZM7.74194 38.7097H12.9032V43.871H7.74194V38.7097ZM9.72258 77.4194L7.74194 74.4478V59.3549H12.9032V74.4478L10.9226 77.4194H9.72258ZM18.0645 51.6129H10.3226V54.1936H15.4839V55.4839C15.4839 56.1962 14.9058 56.7742 14.1935 56.7742H6.45161C5.73935 56.7742 5.16129 56.1962 5.16129 55.4839V54.1936H7.74194V51.6129H2.58065V46.4516H18.0645V51.6129ZM74.8387 49.0323H80V59.3535H77.4194V60.6439C77.4194 62.3239 76.3368 63.7432 74.8387 64.2774V73.8529L71.7652 80H67.5897L64.5161 73.8542V64.2787C63.0181 63.7445 61.9355 62.3252 61.9355 60.6452V59.3548H59.3549V49.0323H64.5161V41.2903H68.3871V36.129H70.9678V41.2903H74.8387V49.0323ZM72.2581 43.871H67.0968V49.0323H72.2581V43.871ZM67.0968 73.2439L69.1845 77.4193H70.1703L72.2581 73.2439V64.5161H67.0968V73.2439ZM69.6774 56.7742H77.4194V51.6129H61.9355V56.7742H67.0968V59.3548H64.5161V60.6452C64.5161 61.3574 65.0942 61.9355 65.8065 61.9355H73.5484C74.2607 61.9355 74.8387 61.3574 74.8387 60.6452V59.3548H69.6774V56.7742Z" fill="#9A9A9A"/>
</mask>
<g mask="url(#mask0)">
<rect width="80" height="80" fill="#BB2830"/>
</g>
</g>
<defs>
<clipPath id="clip0">
<rect width="80" height="80" fill="white"/>
</clipPath>
</defs>
</svg>
