<svg width="80" height="80" viewBox="0 0 80 80" fill="none" xmlns="http://www.w3.org/2000/svg">
<g clip-path="url(#clip0)">
<rect width="80" height="80" fill="white"/>
<mask id="mask0" style="mask-type:alpha" maskUnits="userSpaceOnUse" x="2" y="0" width="77" height="79">
<path fill-rule="evenodd" clip-rule="evenodd" d="M43.0042 30.0177C49.4478 22.7966 56.0012 16.0869 60.9465 11.18C63.4184 8.72739 65.4865 6.72708 66.9359 5.34071C67.6606 4.64757 68.2304 4.108 68.6186 3.74223C68.8126 3.55934 68.9613 3.41991 69.0611 3.32646L69.1738 3.2211L69.2108 3.18665L68.1893 2.08822C67.1678 0.98983 67.1671 0.990452 67.1669 0.990596L67.1273 1.02753L67.011 1.13621C66.9088 1.2319 66.7577 1.37365 66.5611 1.55892C66.1679 1.92947 65.5926 2.47417 64.8622 3.17279C63.4016 4.56995 61.3201 6.58314 58.8335 9.05042C53.8619 13.9833 47.2631 20.7391 40.7658 28.0203C39.134 29.849 37.8993 32.1977 36.7782 34.3304L36.6823 34.5128C35.4896 36.7805 34.4134 38.785 33.0597 40.224C31.606 41.7693 29.0935 43.1421 26.786 44.1569C25.6598 44.6522 24.6323 45.0411 23.8867 45.3059C23.6911 45.3754 23.5153 45.4362 23.3627 45.488C17.7123 44.0089 11.449 45.4835 7.02081 49.9117C0.381896 56.5506 0.381895 67.3144 7.02081 73.9533C13.6597 80.5922 24.4235 80.5922 31.0624 73.9533C35.6124 69.4033 37.0441 62.9158 35.3574 57.1466C35.8811 56.94 36.4557 56.7027 37.0576 56.4366C39.4292 55.3882 42.4337 53.8058 44.3369 51.7835C46.0283 49.9862 47.2952 47.5867 48.4516 45.3964L48.4516 45.3964L48.4516 45.3964L48.4516 45.3963L48.4516 45.3963L48.4592 45.382C49.6616 43.1046 50.7591 41.026 52.1523 39.4657C58.6346 32.2058 65.2255 25.4586 70.1986 20.5238C72.6844 18.0573 74.7641 16.0455 76.2215 14.6511C76.9501 13.954 77.5231 13.4112 77.9134 13.0433C78.1086 12.8594 78.258 12.7191 78.3584 12.6251L78.4718 12.5191L78.509 12.4844L77.4872 11.3862C76.4655 10.288 76.4648 10.2887 76.4647 10.2888L76.4248 10.3259L76.3079 10.4352C76.2052 10.5315 76.0533 10.674 75.8556 10.8604C75.4603 11.233 74.8819 11.7808 74.1475 12.4834C72.6789 13.8886 70.586 15.9132 68.0855 18.3943C63.0863 23.3549 56.4502 30.1479 49.9145 37.4676C48.2743 39.3044 47.0304 41.6616 45.8998 43.8041L45.8035 43.9865C44.6014 46.2634 43.5156 48.2787 42.1522 49.7275C40.6876 51.2838 38.1616 52.6685 35.8447 53.6927C35.2861 53.9397 34.7516 54.1605 34.2636 54.353C34.0426 53.9093 33.801 53.4733 33.5388 53.0463C34.1055 52.7871 34.7612 52.4734 35.4618 52.1123C37.5872 51.0169 40.2771 49.4093 42.0933 47.476C43.7424 45.7205 44.9608 43.3655 46.0668 41.2277L46.0745 41.2128C47.2293 38.9807 48.2771 36.9558 49.6205 35.4461C55.9036 28.3857 62.3012 21.8318 67.1311 17.0404C69.5452 14.6455 71.5656 12.6929 72.9816 11.3399C73.6896 10.6634 74.2464 10.1369 74.6256 9.78002C74.8153 9.60158 74.9605 9.46556 75.058 9.37442L75.1681 9.27168L75.2042 9.23813L74.1836 8.13883C73.163 7.03955 73.1624 7.04017 73.1622 7.04031L73.1234 7.07642L73.0097 7.18255C72.9097 7.27599 72.7619 7.41438 72.5697 7.59526C72.1853 7.95701 71.623 8.48878 70.9091 9.17086C69.4815 10.535 67.4475 12.5007 65.0183 14.9106C60.1615 19.7286 53.7174 26.3297 47.3794 33.4518C45.7823 35.2466 44.5861 37.5597 43.5043 39.652L43.41 39.8343C42.2565 42.0639 41.2202 44.0237 39.9067 45.422C38.4551 46.9673 36.145 48.3852 34.0874 49.4457C33.1729 49.917 32.3381 50.3028 31.6992 50.5834C31.505 50.3672 31.3043 50.1548 31.0971 49.9465C31.5851 49.7034 32.1378 49.4171 32.7264 49.0926C34.7214 47.9928 37.2512 46.3894 39.0486 44.476C40.6977 42.7205 41.9161 40.3655 43.0221 38.2277L43.0298 38.2128C44.1846 35.9807 45.2324 33.9558 46.5759 32.4461C52.8589 25.3857 59.2566 18.8318 64.0864 14.0404C66.5005 11.6455 68.5209 9.69293 69.937 8.33988C70.6449 7.6634 71.2017 7.13689 71.581 6.78001C71.7706 6.60158 71.9158 6.46556 72.0133 6.37442L72.1234 6.27168L72.1595 6.23813L71.1389 5.13883C70.1183 4.03955 70.1177 4.04017 70.1175 4.04031L70.0787 4.07642L69.965 4.18255C69.865 4.27599 69.7173 4.41438 69.525 4.59526C69.1406 4.95701 68.5783 5.48878 67.8644 6.17086C66.4368 7.53496 64.4028 9.5007 61.9736 11.9106C57.1169 16.7286 50.6727 23.3297 44.3348 30.4518C42.7376 32.2466 41.5415 34.5597 40.4596 36.652L40.3653 36.8343C39.2118 39.0639 38.1756 41.0237 36.8621 42.422C35.3917 43.9872 33.1938 45.4093 31.2781 46.4654C30.3353 46.9851 29.4901 47.4005 28.8819 47.6853C28.7622 47.7413 28.6518 47.7922 28.5519 47.8378C28.1868 47.5908 27.8142 47.3596 27.435 47.1441C27.618 47.0666 27.8045 46.9863 27.9937 46.9031C30.3558 45.8642 33.3501 44.2936 35.2448 42.2796C36.9279 40.4905 38.1855 38.0995 39.3321 35.9194L39.3395 35.9054C40.5327 33.6367 41.6206 31.5683 43.0042 30.0177ZM28.9411 71.832C23.4738 77.2993 14.6095 77.2993 9.14213 71.832C3.67479 66.3647 3.67479 57.5003 9.14213 52.033C14.6095 46.5657 23.4738 46.5657 28.9411 52.033C34.4085 57.5003 34.4085 66.3647 28.9411 71.832ZM22.5772 65.468C20.6245 67.4206 17.4587 67.4206 15.5061 65.468C13.5535 63.5154 13.5535 60.3496 15.5061 58.3969C17.4587 56.4443 20.6245 56.4443 22.5772 58.3969C24.5298 60.3496 24.5298 63.5154 22.5772 65.468ZM24.6985 67.5893C21.5743 70.7135 16.509 70.7135 13.3848 67.5893C10.2606 64.4651 10.2606 59.3998 13.3848 56.2756C16.509 53.1514 21.5743 53.1514 24.6985 56.2756C27.8227 59.3998 27.8227 64.4651 24.6985 67.5893Z" fill="#9A9A9A"/>
</mask>
<g mask="url(#mask0)">
<rect width="80" height="80" fill="#BB2830"/>
</g>
<path d="M56.397 1.94971L78.3173 23.87L72.6604 29.5269L50.7401 7.60656L56.397 1.94971Z" fill="white"/>
<path fill-rule="evenodd" clip-rule="evenodd" d="M74.0746 23.87L56.397 6.19235L54.9828 7.60656L72.6604 25.2842L74.0746 23.87ZM56.397 1.94971L50.7401 7.60656L72.6604 29.5269L78.3173 23.87L56.397 1.94971Z" fill="#BB2830"/>
<path d="M54.9827 7.60657L72.6603 25.2842L67.7106 30.234C65.3674 32.5771 61.5685 32.5771 59.2253 30.234L50.0329 21.0416C47.6898 18.6985 47.6898 14.8995 50.0329 12.5563L54.9827 7.60657Z" fill="white"/>
<path fill-rule="evenodd" clip-rule="evenodd" d="M68.4177 25.2842L54.9827 11.8492L52.1542 14.6776C50.9827 15.8492 50.9827 17.7487 52.1542 18.9203L61.3466 28.1127C62.5182 29.2842 64.4177 29.2842 65.5893 28.1127L68.4177 25.2842ZM54.9827 7.60657L50.0329 12.5563C47.6898 14.8995 47.6898 18.6985 50.0329 21.0416L59.2253 30.234C61.5685 32.5771 65.3674 32.5771 67.7106 30.234L72.6603 25.2842L54.9827 7.60657Z" fill="#BB2830"/>
</g>
<defs>
<clipPath id="clip0">
<rect width="80" height="80" fill="white"/>
</clipPath>
</defs>
</svg>
