<svg width="80" height="80" viewBox="0 0 80 80" fill="none" xmlns="http://www.w3.org/2000/svg">
<g clip-path="url(#clip0)">
<rect width="80" height="80" fill="white"/>
<mask id="mask0" style="mask-type:alpha" maskUnits="userSpaceOnUse" x="0" y="6" width="80" height="69">
<path fill-rule="evenodd" clip-rule="evenodd" d="M67.4958 6H77.6563C78.9507 6 80.0001 7.04922 80.0001 8.34375V72.4148C80.0001 73.7092 78.9507 74.7586 77.6563 74.7586H67.4958C66.2015 74.7586 65.1521 73.7092 65.1521 72.4148V8.34375C65.1521 7.04937 66.2015 6 67.4958 6ZM67.8396 72.0709H77.3126V8.6875H67.8396V72.0709ZM19 35H22V40.8756C18.7475 40.3299 16.0865 38.0397 15.0121 35H15.8078H19ZM11.8781 35C13.0892 39.7055 17.0826 43.294 22 43.9072V52H20H17H9H6H3V35H11.8781ZM14.5 32H11.5H3V16H8.89872L14.7169 32H14.5ZM17.9091 32H22H25V35V52V55H22H20V64V67H17H9H6V64V55H3H0V52V35V32V16V13H3H11L17.9091 32ZM9 55H17V64H9V55ZM43.1127 14.5844C50.9299 20.3193 56 29.5675 56 40.0001C56 50.4327 50.9299 59.6809 43.1127 65.4158L44.8873 67.8347C53.4416 61.559 59 51.4285 59 40.0001C59 28.5717 53.4416 18.4413 44.8873 12.1656L43.1127 14.5844ZM46 40.0001C46 33.4838 43.1029 27.6457 38.5212 23.7006L40.4788 21.4273C45.694 25.918 49 32.5738 49 40.0001C49 47.4264 45.694 54.0822 40.4788 58.5729L38.5212 56.2995C43.1029 52.3544 46 46.5164 46 40.0001ZM32.0187 31.2981C34.4595 33.4091 36 36.5238 36 40C36 43.4762 34.4595 46.5909 32.0187 48.7019L33.9813 50.971C37.0528 48.3144 39 44.3838 39 40C39 35.6163 37.0528 31.6856 33.9813 29.029L32.0187 31.2981Z" fill="#9A9A9A"/>
</mask>
<g mask="url(#mask0)">
<rect width="80" height="80" fill="#BB2830"/>
</g>
</g>
<defs>
<clipPath id="clip0">
<rect width="80" height="80" fill="white"/>
</clipPath>
</defs>
</svg>
