<svg width="80" height="80" viewBox="0 0 80 80" fill="none" xmlns="http://www.w3.org/2000/svg">
<rect width="80" height="80" fill="white"/>
<mask id="mask0" style="mask-type:alpha" maskUnits="userSpaceOnUse" x="4" y="2" width="74" height="74">
<path fill-rule="evenodd" clip-rule="evenodd" d="M68.2843 32.9289L66.8701 34.3431L64.7488 36.4644L54.1422 47.071L56.2635 49.1923L54.1421 51.3137L48.4853 56.9705L46.364 59.0918L44.2426 56.9705L40.7072 53.4351L30.8077 63.3345L23.0295 71.1127L20.9082 73.2341L18.7868 75.3553L16.6655 73.234L18.7869 71.1127L8.88736 61.2132L8.88731 61.2132L6.76597 63.3345L4.64465 61.2132L16.6655 49.1924L16.6655 49.1924L26.565 39.2929L23.0294 35.7573L20.9081 33.636L23.0294 31.5147L28.6863 25.8578L30.8076 23.7365L32.9289 25.8578L32.929 25.8578L47.0711 11.7157L40.0001 4.64464L42.1214 2.52332L49.1924 9.5944L49.1924 9.59435L50.6067 11.0086L52.728 8.88733L57.6777 13.8371L61.9204 9.59443L64.0417 7.47311L66.163 9.59443L70.4057 13.8371L72.527 15.9584L70.4057 18.0797L66.163 22.3224L71.1127 27.2721L68.9914 29.3934L70.4056 30.8076L77.4767 37.8787L75.3554 40L68.2843 32.9289ZM38.5858 51.3137L28.6863 61.2132L20.9082 68.9914L11.0087 59.0919L28.6863 41.4142L38.5858 51.3137ZM66.163 30.8076L64.7488 32.2218L62.6275 30.1005L60.5062 32.2218L62.6275 34.3431L52.0209 44.9497L35.0503 27.9791L45.6568 17.3726L56.9706 28.6863L59.0919 26.565L47.7782 15.2513L49.1924 13.837L53.4351 18.0797L55.5564 20.201L59.7991 24.4437L61.9204 26.565L66.163 30.8076ZM25.1508 33.636L28.6863 37.1716L30.8077 39.2929L40.7072 49.1924L42.8285 51.3137L46.364 54.8492L52.0208 49.1923L49.8995 47.071L32.929 30.1004L30.8076 27.9791L25.1508 33.636ZM64.0417 20.2011L68.2843 15.9584L64.0417 11.7158L59.799 15.9584L64.0417 20.2011ZM30.8077 47.7782L18.7869 59.799L20.9082 61.9203L32.929 49.8995L30.8077 47.7782Z" fill="#9A9A9A"/>
</mask>
<g mask="url(#mask0)">
<rect width="80" height="80" fill="#BB2830"/>
</g>
</svg>
