<svg width="80" height="80" viewBox="0 0 80 80" fill="none" xmlns="http://www.w3.org/2000/svg">
<g clip-path="url(#clip0)">
<rect width="80" height="80" fill="white"/>
<mask id="mask0" style="mask-type:alpha" maskUnits="userSpaceOnUse" x="0" y="0" width="80" height="80">
<path fill-rule="evenodd" clip-rule="evenodd" d="M77 13V11H71V13H77ZM80 8H71V0H28V8H19V16H28L28 24L38 24H41H47L50 24H56H59L71 24V16H80V8ZM41 8V21H47V8H50V21H56L56 8H59L59 21H68V16V8V3L31 3V8V16V21H38V8L41 8ZM28 13V11H22V13H28ZM22.5 24.8171C22.7058 24.9056 22.9012 24.9974 23.0861 25.0922C24.9258 26.0352 25.5 27.1183 25.5 28L25.5 31.0349C25.1712 30.815 24.8217 30.6107 24.4545 30.4225C23.8618 30.1187 23.2093 29.8478 22.5 29.612V24.8171ZM15.5 23.5148V28.5136C16.9376 28.5532 18.2739 28.6788 19.5 28.8836V23.9314C18.3347 23.707 17.0011 23.5601 15.5 23.5148ZM12.5 28.5559V23.5613C10.974 23.658 9.64039 23.8651 8.5 24.1528L8.5 29.0733C9.71405 28.8141 11.0508 28.6391 12.5 28.5559ZM5.5 29.983C5.16649 30.1208 4.84817 30.2673 4.54546 30.4225C4.17834 30.6107 3.82878 30.815 3.5 31.0349L3.5 28C3.5 27.1882 3.98683 26.2056 5.5 25.3189L5.5 29.983ZM0.5 28V36V60.2527V61H0.573591C0.848835 62.3777 1.86099 63.4647 3.01115 64.2477C4.3969 65.1912 6.26875 65.9066 8.37319 66.371L9.01967 63.4415C7.14303 63.0273 5.66667 62.4264 4.69947 61.7679C3.69813 61.0862 3.50034 60.5378 3.5 60.2535L3.5 60.2527L3.5 60.252C3.50023 60.0446 3.59421 59.7147 4.03951 59.2722C4.49102 58.8237 5.22054 58.3507 6.24227 57.9214C8.27955 57.0653 11.1982 56.5 14.5 56.5C17.8018 56.5 20.7205 57.0653 22.7577 57.9214C23.7795 58.3507 24.509 58.8237 24.9605 59.2722C25.4062 59.715 25.4999 60.0451 25.5 60.2525V60.2527V60.253C25.4999 60.5483 25.2836 61.1289 24.1934 61.8392C23.1469 62.521 21.5595 63.1306 19.5635 63.529L20.1508 66.471C22.3779 66.0264 24.3619 65.31 25.8311 64.3528C27.0521 63.5573 28.1399 62.4367 28.4265 61H28.5V60.2533V60.2527V60.2522V36L28.5 35.9961L28.5 28C28.5 25.568 26.8513 23.6511 24.4545 22.4225C22.0524 21.1912 18.6679 20.5 14.5 20.5C10.3321 20.5 6.94763 21.1912 4.54546 22.4225C2.48749 23.4774 0.981071 25.0398 0.596294 27H0.5V28ZM3.5 36L3.5 55.9462C3.98927 55.6539 4.52049 55.3908 5.08006 55.1556C7.56689 54.1106 10.8983 53.5 14.5 53.5C18.1017 53.5 21.4331 54.1106 23.9199 55.1556C24.4795 55.3908 25.0107 55.6539 25.5 55.9462V36L25.5 35.9976C25.4989 35.1163 24.9241 34.0344 23.0861 33.0922C21.2518 32.152 18.3863 31.5 14.5 31.5C10.6137 31.5 7.74822 32.152 5.91392 33.0922C4.07425 34.0352 3.5 35.1183 3.5 36ZM22.5 36V51H19.5V36H22.5ZM16.5 35L16.5 50H13.5L13.5 35H16.5ZM9.5 36L9.5 51H6.5L6.5 36H9.5ZM14 79.5C16.2091 79.5 18 77.7091 18 75.5L18 60H15L15 75.5C15 76.0523 14.5523 76.5 14 76.5C13.4477 76.5 13 76.0523 13 75.5L13 60H10L10 75.5C10 77.7091 11.7909 79.5 14 79.5ZM51.2206 31.75H58.7794V35.7117C60.5707 36.1273 62.2896 36.8385 63.8465 37.8086L66.6464 35.0086L71.9914 40.3536L69.1914 43.1535C70.1615 44.7104 70.8727 46.4293 71.2883 48.2206H75.25V55.7794H71.2883C70.8728 57.5707 70.1615 59.2896 69.1914 60.8465L71.9914 63.6464L66.6464 68.9914L63.8465 66.1914C62.2896 67.1615 60.5707 67.8727 58.7794 68.2883V72.25H51.2206V68.2883C49.4293 67.8728 47.7104 67.1615 46.1535 66.1914L43.3536 68.9914L38.0086 63.6464L40.8086 60.8465C39.8385 59.2896 39.1273 57.5707 38.7117 55.7794H34.75V48.2206H38.7117C39.1273 46.4293 39.8385 44.7104 40.8086 43.1535L38.0086 40.3536L43.3536 35.0086L46.1535 37.8086C47.7104 36.8385 49.4293 36.1272 51.2206 35.7117V31.75ZM54.0735 34.6029V38.077L53.844 38.0958C50.86 38.3406 48.1424 39.5243 45.9861 41.3514L45.8105 41.5003L43.3536 39.0433L42.0433 40.3536L44.5003 42.8105L44.3514 42.9861C42.5243 45.1424 41.3406 47.86 41.0958 50.844L41.077 51.0735H37.6029V52.9265H41.077L41.0958 53.156C41.3406 56.14 42.5243 58.8576 44.3514 61.0139L44.5003 61.1895L42.0433 63.6464L43.3536 64.9567L45.8105 62.4997L45.9861 62.6486C48.1424 64.4757 50.86 65.6594 53.844 65.9042L54.0735 65.923V69.3971H55.9265V65.923L56.156 65.9042C59.14 65.6594 61.8576 64.4757 64.0139 62.6486L64.1895 62.4997L66.6464 64.9567L67.9567 63.6464L65.4997 61.1895L65.6486 61.0139C67.4757 58.8576 68.6594 56.14 68.9042 53.156L68.923 52.9265H72.3971V51.0735H68.923L68.9042 50.844C68.6594 47.86 67.4757 45.1424 65.6486 42.9861L65.4997 42.8105L67.9567 40.3536L66.6464 39.0433L64.1895 41.5003L64.0139 41.3514C61.8576 39.5243 59.14 38.3406 56.156 38.0958L55.9265 38.077V34.6029H54.0735ZM58.3415 52C58.3415 53.8455 56.8455 55.3415 55 55.3415C53.1546 55.3415 51.6586 53.8455 51.6586 52C51.6586 50.1546 53.1546 48.6586 55 48.6586C56.8455 48.6586 58.3415 50.1546 58.3415 52ZM61.3415 52C61.3415 55.5023 58.5023 58.3415 55 58.3415C51.4977 58.3415 48.6586 55.5023 48.6586 52C48.6586 48.4977 51.4977 45.6586 55 45.6586C58.5023 45.6586 61.3415 48.4977 61.3415 52Z" fill="#9A9A9A"/>
</mask>
<g mask="url(#mask0)">
<rect width="80" height="80" fill="#BB2830"/>
</g>
</g>
<defs>
<clipPath id="clip0">
<rect width="80" height="80" fill="white"/>
</clipPath>
</defs>
</svg>
