<svg width="80" height="80" viewBox="0 0 80 80" fill="none" xmlns="http://www.w3.org/2000/svg">
<rect width="80" height="80" fill="white"/>
<mask id="mask0" style="mask-type:alpha" maskUnits="userSpaceOnUse" x="1" y="0" width="79" height="79">
<path fill-rule="evenodd" clip-rule="evenodd" d="M13.9823 13.964C30.8613 -2.25673 56.1086 -3.46848 70.264 11.2614C84.4213 25.9932 82.2067 51.1723 65.3314 67.3969C60.1281 72.3974 53.862 76.181 47.2171 78.3408C44.1394 79.3402 40.7045 78.4778 38.4626 76.145C37.567 75.213 36.9131 74.115 36.5115 72.8813C35.0645 68.43 34.2341 60.2113 38.691 58.7663C42.9042 57.3972 46.9096 54.9653 50.2739 51.7321C60.3956 42.0052 62.2646 34.2953 54.5993 26.3189C46.934 18.3425 39.1577 19.9017 29.0342 29.6305C25.6718 32.8618 23.0806 36.7691 21.5469 40.9265C19.924 45.3206 11.7486 44.1641 7.35461 42.5412C6.13588 42.0928 5.06666 41.3938 4.17287 40.4638C1.93102 38.131 1.20784 34.6626 2.32688 31.6289C4.74545 25.0751 8.77702 18.9663 13.9823 13.964ZM40.5028 74.177C42.0219 75.7578 44.2577 76.3185 46.3378 75.6446C52.5802 73.6176 58.4664 70.0592 63.3635 65.353C79.1153 50.2154 81.2906 26.8263 68.2183 13.2236C55.1443 -0.380984 31.6927 0.86835 15.9409 16.0059C11.0456 20.7102 7.25408 26.4521 4.98044 32.609C4.22444 34.6607 4.69763 36.9189 6.21488 38.4977C6.81082 39.114 7.52424 39.5806 8.33483 39.8802C11.2642 40.9633 17.8083 42.8739 18.8896 39.9426C20.5721 35.3846 23.4034 31.1103 27.0739 27.583C38.3227 16.7728 47.8984 15.2513 56.6432 24.351C65.3899 33.4527 63.487 42.9583 52.2382 53.7685C48.5677 57.2959 44.1843 59.9549 39.5629 61.4549C36.5929 62.417 38.24 69.03 39.2039 72.0019C39.4672 72.8274 39.9088 73.5589 40.5028 74.177ZM10.3673 31.2364C11.7777 29.881 14.0182 29.9255 15.3736 31.336C16.729 32.7464 16.6844 34.9868 15.274 36.3422C13.8636 37.6976 11.6232 37.653 10.2678 36.2426C8.91236 34.8322 8.95691 32.5918 10.3673 31.2364ZM11.8404 32.7693C11.2778 33.31 11.26 34.2069 11.8007 34.7695C12.3432 35.3341 13.2401 35.3519 13.8009 34.8093C14.3635 34.2686 14.3795 33.3735 13.8388 32.8109C13.2981 32.2483 12.4031 32.2286 11.8404 32.7693ZM21.2033 26.5583C22.6118 25.2047 22.6583 22.9624 21.3029 21.552C19.9475 20.1416 17.7051 20.0989 16.2966 21.4525C14.8862 22.8079 14.8417 25.0483 16.1971 26.4587C17.5544 27.8673 19.7948 27.9118 21.2033 26.5583ZM17.7697 22.9854C18.3324 22.4447 19.2293 22.4625 19.77 23.0251C20.3107 23.5878 20.2928 24.4847 19.7302 25.0254C19.1657 25.5679 18.2707 25.5482 17.73 24.9856C17.1893 24.423 17.2052 23.5279 17.7697 22.9854ZM30.4049 18.757C28.9964 20.1106 26.754 20.0678 25.3986 18.6574C24.0451 17.2489 24.0915 15.0067 25.4982 13.6512C26.9086 12.2958 29.149 12.3403 30.5044 13.7507C31.8598 15.1612 31.8153 17.4016 30.4049 18.757ZM28.9318 17.2241C29.4944 16.6834 29.5122 15.7865 28.9715 15.2239C28.4308 14.6612 27.5339 14.6434 26.9713 15.1841C26.4087 15.7248 26.3908 16.6217 26.9315 17.1843C27.4722 17.747 28.3691 17.7648 28.9318 17.2241ZM40.5642 9.07594C39.2088 7.66554 36.9684 7.62098 35.558 8.97639C34.1476 10.3318 34.103 12.5722 35.4584 13.9826C36.8138 15.393 39.0543 15.4376 40.4647 14.0822C41.8751 12.7268 41.9196 10.4864 40.5642 9.07594ZM36.9913 12.5095C36.4506 11.9469 36.4685 11.05 37.0311 10.5093C37.5937 9.96858 38.4907 9.98642 39.0313 10.5491C39.572 11.1117 39.5542 12.0086 38.9916 12.5493C38.4309 13.0881 37.532 13.0722 36.9913 12.5095ZM46.3668 9.18707C47.7753 7.83351 50.0157 7.87806 51.3693 9.28656C52.7247 10.697 52.6801 12.9374 51.2735 14.2929C49.8631 15.6483 47.6226 15.6037 46.2672 14.1933C44.9118 12.7829 44.9564 10.5425 46.3668 9.18707ZM47.8381 10.718C47.2735 11.2606 47.2557 12.1575 47.7964 12.7201C48.3389 13.2847 49.2358 13.3025 49.7985 12.7581C50.3612 12.2174 50.379 11.3205 49.8383 10.7578C49.2976 10.1952 48.4007 10.1774 47.8381 10.718ZM61.6138 13.1903C60.2584 11.7799 58.018 11.7354 56.6076 13.0908C55.1971 14.4462 55.1526 16.6866 56.508 18.097C57.8634 19.5074 60.1038 19.552 61.5142 18.1966C62.9246 16.8412 62.9674 14.5988 61.6138 13.1903ZM58.0409 16.6239C57.5002 16.0613 57.518 15.1643 58.0807 14.6237C58.6433 14.083 59.5402 14.1008 60.0809 14.6634C60.6216 15.2261 60.6038 16.123 60.0411 16.6637C59.4785 17.2044 58.5816 17.1865 58.0409 16.6239ZM63.6443 20.4133C65.0547 19.0579 67.297 19.1043 68.6505 20.5128C70.0059 21.9232 69.9614 24.1637 68.551 25.5191C67.1406 26.8745 64.9002 26.8299 63.5447 25.4195C62.1912 24.011 62.2339 21.7687 63.6443 20.4133ZM65.1174 21.9462C64.5548 22.4869 64.5369 23.3838 65.0776 23.9464C65.6202 24.511 66.5171 24.5288 67.0779 23.9862C67.6405 23.4455 67.6602 22.5505 67.1177 21.9859C66.577 21.4233 65.68 21.4055 65.1174 21.9462ZM72.1441 30.9044C70.7887 29.494 68.5482 29.4495 67.1378 30.8049C65.7274 32.1603 65.6829 34.4007 67.0383 35.8111C68.3937 37.2215 70.6341 37.2661 72.0445 35.9107C73.4531 34.5534 73.4958 32.311 72.1441 30.9044ZM68.5712 34.338C68.0305 33.7754 68.0483 32.8785 68.6109 32.3378C69.1736 31.7971 70.0705 31.8149 70.6112 32.3775C71.1519 32.9402 71.1322 33.8352 70.5696 34.3759C70.0069 34.9166 69.1118 34.9006 68.5712 34.338ZM71.2708 41.0247C72.6243 42.4332 72.5816 44.6755 71.1712 46.0309C69.7608 47.3863 67.5186 47.3399 66.165 45.9314C64.8096 44.5209 64.8541 42.2805 66.2645 40.9251C67.6749 39.5697 69.9154 39.6143 71.2708 41.0247ZM69.7379 42.4978C69.1972 41.9352 68.3003 41.9173 67.7376 42.458C67.175 42.9987 67.1553 43.8975 67.6979 44.4582C68.2386 45.0209 69.1355 45.0387 69.6981 44.498C70.2607 43.9573 70.2786 43.0604 69.7379 42.4978ZM61.1915 50.793C59.783 52.1466 59.7384 54.3908 61.092 55.7993C62.4455 57.2078 64.6897 57.2524 66.0982 55.8988C67.5086 54.5434 67.5513 52.3011 66.1978 50.8926C64.8442 49.4841 62.6019 49.4376 61.1915 50.793ZM64.6649 52.3657C65.2056 52.9283 65.1877 53.8253 64.6251 54.366C64.0625 54.9066 63.1656 54.8888 62.6249 54.3262C62.0842 53.7635 62.102 52.8666 62.6646 52.3259C63.2254 51.7833 64.1224 51.8012 64.6649 52.3657ZM53.7134 59.0213C55.1219 57.6677 57.3642 57.7105 58.7196 59.1209C60.0732 60.5294 60.0286 62.7698 58.6201 64.1271C57.2097 65.4825 54.9674 65.436 53.6138 64.0275C52.2584 62.6171 52.303 60.3767 53.7134 59.0213ZM55.1865 60.5542C54.6219 61.0967 54.606 61.9918 55.1467 62.5544C55.6874 63.1171 56.5824 63.1368 57.147 62.5942C57.7096 62.0535 57.7274 61.1566 57.1867 60.594C56.646 60.0313 55.7491 60.0135 55.1865 60.5542ZM48.7075 64.6564C47.3521 63.246 45.1117 63.2014 43.7013 64.5568C42.2909 65.9122 42.2463 68.1527 43.6018 69.5631C44.9572 70.9735 47.1976 71.018 48.608 69.6626C50.0185 68.3035 50.0611 66.0649 48.7075 64.6564ZM45.1346 68.09C44.5939 67.5273 44.6136 66.6323 45.1763 66.0916C45.7389 65.5509 46.6321 65.5687 47.1727 66.1313C47.7134 66.694 47.6975 67.5891 47.1349 68.1297C46.5723 68.6704 45.6753 68.6526 45.1346 68.09ZM18.0001 56.557L19.5336 56.7775L20.9428 57.4211L22.1136 58.4356L22.9512 59.7389L23.3877 61.2254V62.7746L22.9512 64.2611L22.1136 65.5643L20.9428 66.5789L19.5336 67.2224L18.0001 67.4429L16.4667 67.2224L15.0574 66.5789L13.8866 65.5643L13.049 64.2611L12.6126 62.7746L12.6126 61.2254L13.049 59.7389L13.8866 58.4356L15.0574 57.4211L16.4667 56.7775L18.0001 56.557ZM11.077 48.4634L12.8865 50.8028L12.3036 47.9033L15.1711 47.0613L16.2483 49.8157L16.5058 46.8694H19.4944L19.7519 49.8157L20.8291 47.0613L23.6967 47.9033L23.1137 50.8028L24.9232 48.4634L27.4374 50.0792L26.0611 52.697L28.4565 50.9622L30.4136 53.2208L28.3556 55.3449L31.1426 54.3552L32.3842 57.0738L29.811 58.532L32.764 58.3676L33.1894 61.3258L30.3097 62L33.1894 62.6742L32.764 65.6324L29.811 65.468L32.3842 66.9262L31.1426 69.6447L28.3556 68.655L30.4136 70.7791L28.4565 73.0377L26.0611 71.3029L27.4374 73.9208L24.9232 75.5365L23.1137 73.1971L23.6967 76.0967L20.8291 76.9387L19.7519 74.1842L19.4944 77.1306H16.5058L16.2483 74.1842L15.1711 76.9387L12.3036 76.0967L12.8865 73.1971L11.077 75.5365L8.5628 73.9208L9.93907 71.3029L7.54372 73.0377L5.5866 70.7791L7.64466 68.655L4.85758 69.6447L3.61607 66.9262L6.18919 65.468L3.23617 65.6324L2.81085 62.6742L5.69056 62L2.81085 61.3258L3.23617 58.3676L6.18919 58.532L3.61607 57.0738L4.85758 54.3552L7.64466 55.3449L5.5866 53.2208L7.54372 50.9622L9.93907 52.697L8.5628 50.0792L11.077 48.4634Z" fill="#9A9A9A"/>
</mask>
<g mask="url(#mask0)">
<rect width="80" height="80" fill="#BB2830"/>
</g>
<path d="M48.8718 37.3718C48.5829 37.3285 48.2861 37.2865 47.9873 37.2466C47.8367 36.7459 47.6355 36.2603 47.3874 35.7992C47.5702 35.56 47.7505 35.3204 47.9247 35.085C48.3114 34.562 48.2554 33.8203 47.7947 33.3597L46.6402 32.2053C46.1794 31.7445 45.4377 31.6886 44.9148 32.0755C44.6786 32.2502 44.4391 32.4304 44.2006 32.6126C43.7396 32.3645 43.2541 32.1633 42.7532 32.0127C42.7132 31.7138 42.6714 31.4171 42.6281 31.1282C42.5319 30.4851 41.968 30 41.3164 30H39.6836C39.032 30 38.4681 30.4851 38.3719 31.1282C38.3287 31.4169 38.2868 31.7137 38.2468 32.0126C37.7459 32.1633 37.2604 32.3644 36.7994 32.6126C36.5611 32.4303 36.3214 32.25 36.0853 32.0754C35.5623 31.6885 34.8205 31.7444 34.3599 32.2052L33.2055 33.3595C32.7447 33.8202 32.6887 34.562 33.0755 35.0851C33.2496 35.3204 33.4298 35.5601 33.6126 35.7992C33.3646 36.2603 33.1634 36.7457 33.0127 37.2466C32.714 37.2866 32.4171 37.3285 32.1283 37.3718C31.4851 37.468 31 38.0319 31 38.6836V40.3163C31 40.9679 31.4849 41.5318 32.1282 41.6281C32.4171 41.6713 32.7138 41.7133 33.0127 41.7532C33.1633 42.2541 33.3645 42.7395 33.6126 43.2007C33.4299 43.4396 33.2497 43.6792 33.0753 43.9149C32.6886 44.4377 32.7445 45.1796 33.2053 45.6401L34.3598 46.7946C34.8205 47.2554 35.5622 47.3112 36.0851 46.9244C36.3213 46.7498 36.5609 46.5695 36.7992 46.3874C37.2604 46.6355 37.746 46.8367 38.2468 46.9873C38.2866 47.286 38.3286 47.5828 38.3718 47.8718C38.4681 48.5149 39.032 49 39.6836 49H41.3164C41.968 49 42.5319 48.5151 42.6281 47.8717C42.6713 47.5828 42.7132 47.286 42.7532 46.9872C43.254 46.8367 43.7395 46.6354 44.2006 46.3872C44.4389 46.5695 44.6786 46.7498 44.9147 46.9244C45.4376 47.3113 46.1795 47.2554 46.6401 46.7947L47.7946 45.6403C48.2554 45.1796 48.3113 44.4378 47.9245 43.9148C47.7502 43.6792 47.57 43.4395 47.3874 43.2007C47.6354 42.7397 47.8366 42.2543 47.9873 41.7533C48.286 41.7133 48.5829 41.6714 48.8717 41.6282C49.5149 41.5319 50 40.968 50 40.3163V38.6837C49.9999 38.032 49.5149 37.468 48.8718 37.3718ZM48.4098 40.0891C48.1475 40.1271 47.8798 40.1641 47.6113 40.199C47.0801 40.2684 46.6453 40.6454 46.5037 41.1594C46.3681 41.6515 46.1713 42.1265 45.9188 42.571C45.6551 43.035 45.6958 43.6091 46.0224 44.034C46.1871 44.2481 46.3505 44.4636 46.5095 44.6766L45.6766 45.5096C45.463 45.3501 45.2475 45.1868 45.0338 45.0225C44.6092 44.6957 44.0348 44.6553 43.5708 44.9187C43.1262 45.1713 42.6513 45.3681 42.1594 45.5037C41.6451 45.6454 41.2681 46.0802 41.199 46.6113C41.164 46.8798 41.1271 47.1476 41.089 47.4099H39.911C39.8729 47.1476 39.8361 46.8799 39.801 46.6116C39.7317 46.0803 39.3548 45.6455 38.8406 45.5038C38.3486 45.3682 37.8738 45.1714 37.4291 44.9189C36.965 44.6552 36.3907 44.6957 35.9661 45.0225C35.7524 45.1869 35.537 45.3501 35.3232 45.5096L34.4904 44.6766C34.6493 44.4634 34.8126 44.248 34.9776 44.0337C35.304 43.609 35.3447 43.0348 35.081 42.5708C34.8286 42.1263 34.6317 41.6513 34.4961 41.1593C34.3545 40.6451 33.9197 40.2682 33.3886 40.1989C33.12 40.1638 32.8523 40.127 32.5899 40.0888V38.9109C32.8523 38.8729 33.1199 38.8359 33.3885 38.801C33.9197 38.7316 34.3545 38.3546 34.496 37.8406C34.6317 37.3485 34.8284 36.8736 35.081 36.429C35.3447 35.965 35.304 35.3908 34.9775 34.9661C34.8125 34.7517 34.6492 34.5362 34.4904 34.3234L35.3232 33.4904C35.5369 33.6499 35.7523 33.8132 35.9659 33.9774C36.3904 34.3043 36.9647 34.345 37.4291 34.0813C37.8735 33.8288 38.3485 33.632 38.8405 33.4963C39.3548 33.3546 39.7318 32.9198 39.8008 32.3887C39.8359 32.1202 39.8729 31.8525 39.9109 31.5902H41.0889C41.127 31.8524 41.1639 32.1201 41.1989 32.3885C41.2682 32.9198 41.6452 33.3546 42.1593 33.4962C42.6514 33.6318 43.1264 33.8287 43.5708 34.0812C44.035 34.3449 44.6092 34.304 45.0337 33.9775C45.2475 33.8132 45.4629 33.6499 45.6766 33.4904L46.5095 34.3234C46.3507 34.5363 46.1874 34.7518 46.0224 34.9663C45.6958 35.3909 45.6552 35.9651 45.9187 36.4291C46.1712 36.8737 46.368 37.3487 46.5037 37.8407C46.6453 38.3549 47.08 38.7318 47.6112 38.8011C47.8798 38.8362 48.1475 38.873 48.4098 38.9112V40.0891Z" fill="#BB2830" stroke="#BB2830"/>
<circle cx="40.5" cy="39.5" r="2.5" stroke="#BB2830" stroke-width="3"/>
</svg>
