<svg width="80" height="80" viewBox="0 0 80 80" fill="none" xmlns="http://www.w3.org/2000/svg">
<rect width="80" height="80" fill="white"/>
<mask id="mask0" style="mask-type:alpha" maskUnits="userSpaceOnUse" x="0" y="5" width="80" height="70">
<path fill-rule="evenodd" clip-rule="evenodd" d="M78.4395 15.4171C79.3017 15.4161 80 14.7168 80 13.8546V7.46777C80 6.6048 79.3005 5.90527 78.4375 5.90527H60.2563C57.4709 5.90527 55.0745 6.64621 53.3261 8.04809C51.8711 9.21481 50.1369 11.452 50.1369 15.4846V19.9368H49.7461C48.8831 19.9368 48.1836 20.6364 48.1836 21.4993V28.1618H45.2452V27.7356C45.2452 26.0948 43.915 24.7647 42.2742 24.7647H37.9559C36.3152 24.7647 34.985 26.0948 34.985 27.7356V28.1617H30.9437V26.0259C30.9437 23.1275 28.5837 20.7693 25.6831 20.7693H21.7722C18.8714 20.7693 16.5114 23.1275 16.5114 26.0259V28.2289C7.27531 29.0175 0 36.7859 0 46.2229C0 55.6578 7.26844 63.4253 16.4981 64.2203V70.9697H16.6161C15.7839 70.9697 15.0573 71.5976 15.0034 72.4279C14.9444 73.3379 15.6652 74.0947 16.5625 74.0947H18.0606H28.1678H28.3839C29.2161 74.0947 29.9428 73.4667 29.9966 72.6362C30.0556 71.7262 29.3348 70.9697 28.4375 70.9697H29.7303V64.2886H34.985V64.7148C34.985 66.3556 36.3152 67.6857 37.9559 67.6857H42.2744C43.9152 67.6857 45.2453 66.3556 45.2453 64.7148V64.2886H67.1302C67.9931 64.2886 68.6927 63.589 68.6927 62.7261V56.2406H78.4375C79.3005 56.2406 80 55.5411 80 54.6781V37.772C80 36.909 79.3005 36.2095 78.4375 36.2095H68.6927V29.7242C68.6927 28.8612 67.9931 28.1617 67.1302 28.1617H62.1909V21.4992C62.1909 20.6362 61.4914 19.9367 60.6284 19.9367H60.2377C60.2377 19.9367 60.2362 15.9323 60.2402 15.8376C60.2483 15.6354 60.4008 15.4429 60.6031 15.4417C61.0067 15.4393 78.4395 15.4171 78.4395 15.4171ZM19.6364 26.0259C19.6364 24.8506 20.5945 23.8943 21.7722 23.8943H25.6831C26.8608 23.8943 27.8187 24.8504 27.8187 26.0259V28.1617H19.6364V26.0259ZM26.6053 70.9697H19.6231V64.2886H26.6053V70.9697ZM18.0606 61.1636C9.825 61.1636 3.125 54.4612 3.125 46.2229C3.125 37.987 9.82516 31.2867 18.0606 31.2867H18.0739H29.3812H34.985V61.1636H18.0606ZM76.875 39.3345V53.1156H68.6927V39.3345H76.875ZM65.5677 54.6781V61.1636H45.2452V53.2343C45.2452 52.3715 44.5455 51.6718 43.6827 51.6718C42.8198 51.6718 42.1202 52.3715 42.1202 53.2343V64.5606H38.11V62.7261V29.7242V27.8897H42.1202V39.2026C42.1202 40.0654 42.8198 40.7651 43.6827 40.7651C44.5455 40.7651 45.2452 40.0654 45.2452 39.2026V31.2867H65.5675L65.5677 54.6781ZM51.3086 28.1617V23.0617H51.6994H58.6752H59.0659V28.1617H51.3086ZM58.012 13.292C57.1912 14.1281 57.0955 15.2421 57.1125 16.2248V19.9368H53.2617V15.4846C53.2617 10.15 57.0653 9.03027 60.2561 9.03027H76.875V12.2942L61.0048 12.3143C60.0583 12.3143 58.8628 12.4253 58.012 13.292ZM29.4699 44.6604H25.3597C24.4968 44.6604 23.7972 45.3601 23.7972 46.2229C23.7972 47.0857 24.4968 47.7854 25.3597 47.7854H29.4699C30.3329 47.7854 31.0324 47.0857 31.0324 46.2229C31.0324 45.3601 30.3329 44.6604 29.4699 44.6604ZM25.3597 36.8518H29.4699C30.3329 36.8518 31.0324 37.5515 31.0324 38.4143C31.0324 39.2771 30.3329 39.9768 29.4699 39.9768H25.3597C24.4968 39.9768 23.7972 39.2771 23.7972 38.4143C23.7972 37.5515 24.4968 36.8518 25.3597 36.8518ZM29.4699 52.4735H25.3597C24.4968 52.4735 23.7972 53.1732 23.7972 54.036C23.7972 54.8988 24.4968 55.5985 25.3597 55.5985H29.4699C30.3329 55.5985 31.0324 54.8988 31.0324 54.036C31.0324 53.1732 30.3329 52.4735 29.4699 52.4735ZM42.1202 46.2185C42.1202 45.3557 42.8199 44.656 43.6827 44.656C44.5457 44.656 45.2452 45.3554 45.2452 46.2183C45.2452 47.0813 44.5456 47.7832 43.6827 47.7832C42.8199 47.7832 42.1202 47.0857 42.1202 46.2229V46.2185Z" fill="#9A9A9A"/>
</mask>
<g mask="url(#mask0)">
<rect width="80" height="80" fill="#BB2830"/>
</g>
</svg>
