<svg width="80" height="80" viewBox="0 0 80 80" fill="none" xmlns="http://www.w3.org/2000/svg">
<rect width="80" height="80" fill="white"/>
<mask id="mask0" style="mask-type:alpha" maskUnits="userSpaceOnUse" x="15" y="0" width="47" height="80">
<path fill-rule="evenodd" clip-rule="evenodd" d="M59.0538 20.5011V15.4361H56.6326V0.90921H54.2115H53.5H51.7903H51.5H49.3693H48.5H48H47.5H46.948H34.8423V15.4361H32.4211V20.5011C31.0157 21.0023 30 22.3339 30 23.9101C30 25.4863 31.0157 26.8179 32.4211 27.3191V28.7524C32.4211 30.3286 33.4368 31.6602 34.8423 32.1614V37H34H18H15V40V43V46H18H34H34.8423V52.9639C34.8423 54.9662 36.4717 56.5956 38.474 56.5956H40.8952V80H50.5798V56.5956H53.0009C55.0032 56.5956 56.6326 54.9662 56.6326 52.9639V32.1614C58.0381 31.6602 59.0538 30.3286 59.0538 28.7524V27.3191C60.4592 26.8179 61.4749 25.4863 61.4749 23.9101C61.4749 22.3339 60.4592 21.0023 59.0538 20.5011ZM54.2 11.9668V9.52751L54.2115 9.52607V7.12309V4.68257V3.33036H46.948H37.2634V6.80107V9H37.25V15H37.2634V15.4361H54.2115V11.9654L54.2 11.9668ZM34.8423 17.8572H56.6326V20.2784H34.8423V17.8572ZM34.8423 28.7524V27.5418H37.2634V29.963H36.0529C35.3858 29.963 34.8423 29.4206 34.8423 28.7524ZM48.1586 77.5788H43.3163V56.5956H48.1586V77.5788ZM54.2115 49.3322H42.1057V51.7533H54.2115V52.9639C54.2115 53.6321 53.6679 54.1745 53.0009 54.1745H38.474C37.807 54.1745 37.2634 53.6321 37.2634 52.9639V51.7533H39.6846V49.3322H37.2634V46.911H54.2115V49.3322ZM54.2115 44.4899H37.2634V32.3841H54.2115V44.4899ZM39.6846 29.963V27.5418H51.7903V29.963H39.6846ZM56.6326 28.7524C56.6326 29.4206 56.0891 29.963 55.4221 29.963H54.2115V27.5418H56.6326V28.7524ZM57.8432 25.1207H33.6317C32.9647 25.1207 32.4211 24.5783 32.4211 23.9101C32.4211 23.2419 32.9647 22.6995 33.6317 22.6995H57.8432C58.5102 22.6995 59.0538 23.2419 59.0538 23.9101C59.0538 24.5783 58.5102 25.1207 57.8432 25.1207ZM18 40H21H31H34V43H31H21H18V40Z" fill="#9A9A9A"/>
</mask>
<g mask="url(#mask0)">
<rect width="80" height="80" fill="#BB2830"/>
</g>
</svg>
