<svg width="80" height="80" viewBox="0 0 80 80" fill="none" xmlns="http://www.w3.org/2000/svg">
<g clip-path="url(#clip0)">
<rect width="80" height="80" fill="white"/>
<mask id="mask0" style="mask-type:alpha" maskUnits="userSpaceOnUse" x="0" y="17" width="81" height="46">
<path fill-rule="evenodd" clip-rule="evenodd" d="M40 55.4668H47.6886C48.1001 56.4086 49.0399 57.0667 50.1333 57.0667H54.9333V53.376C56.0162 52.9617 56.9781 52.3028 57.7511 51.4667H66.4V44.5334H59.7334V43.4666H63.4667H63.6715L63.8672 43.4051L68.4717 41.9555H79.4667H80.8V40.6222V37.6V34.5777V33.2444H79.4667H68.4717L63.8672 31.7949L63.6715 31.7333H63.4667H59.7334V30.6666H66.4V23.7333H58.2001C57.3656 22.6429 56.2372 21.7894 54.9333 21.2907V17.6H50.1333C49.0398 17.6 48.1 18.2582 47.6885 19.2001H2.66667C1.1939 19.2001 0 20.394 0 21.8668V52.8001C0 54.2731 1.19401 55.4668 2.66667 55.4668H25.0667V62.4H40V55.4668ZM40 52.8001H47.4667V21.8668H40V52.8001ZM25.0667 21.8668H2.66667V52.8001H25.0667V21.8668ZM27.7333 52.8001V22.4H37.3333V52.8001H27.7333ZM27.7333 55.4668H37.3333V59.7333H27.7333V55.4668ZM63.2617 40.8H60V37.6V34.4H63.2617L67.8662 35.8496L68.0619 35.9111H68.2667H78.1334V37.6V39.2889H68.2667H68.0619L67.8662 39.3504L63.2617 40.8ZM52.2667 20.2667H50.1333V54.4H52.2667V20.2667ZM54.9334 50.392V24.2746C56.2199 25.136 57.0667 26.6033 57.0667 28.2666V46.4C57.0667 48.0634 56.2199 49.5306 54.9334 50.392ZM60 26.4V28H63.7334V26.4H60ZM60 48.8V47.2H63.7334V48.8H60Z" fill="#9A9A9A"/>
</mask>
<g mask="url(#mask0)">
<rect width="80" height="80" fill="#BB2830"/>
</g>
</g>
<defs>
<clipPath id="clip0">
<rect width="80" height="80" fill="white"/>
</clipPath>
</defs>
</svg>
