<svg width="80" height="80" viewBox="0 0 80 80" fill="none" xmlns="http://www.w3.org/2000/svg">
<rect width="80" height="80" fill="white"/>
<mask id="mask0" style="mask-type:alpha" maskUnits="userSpaceOnUse" x="0" y="7" width="80" height="64">
<path fill-rule="evenodd" clip-rule="evenodd" d="M34.0289 10.5C32.5044 10.5 31.468 10.7806 30.7554 11.1671L29.3251 8.53001C30.586 7.84608 32.1459 7.5 34.0289 7.5C35.6074 7.5 36.9463 7.82491 38.0588 8.40373L36.674 11.065C36.0419 10.7361 35.1883 10.5 34.0289 10.5ZM38.9906 15.4277C39.0175 14.7528 38.8765 13.7526 38.4089 12.8403L39.7483 12.1538C39.8439 11.9133 39.9527 11.6729 40.076 11.4351L40.6103 11.712L41.0787 11.4719C41.1861 11.6815 41.2825 11.8931 41.3687 12.105L42.7396 12.8154C42.2706 13.7204 42.1294 14.7137 42.1562 15.3825L41.9927 15.3891C41.992 15.4317 41.9909 15.4738 41.9894 15.5154V18.9473H38.9894V15.4874V15.4575L38.9906 15.4277ZM28.9464 13.4505C28.605 14.476 28.4999 15.7075 28.4999 17.0444L25.4999 17.0444C25.4999 15.6017 25.6057 13.9876 26.1 12.5029L28.9464 13.4505ZM38.9894 29.3272V24.003C21.8056 24.3123 9.79225 32.4486 5.07689 37.2495L26.3096 58.4822C26.7665 57.7254 27.2832 57.0086 27.8532 56.3385L11.9611 41.0821L14.0387 38.9179L29.999 54.2398C32.8022 51.9607 36.3779 50.5939 40.2739 50.5939C46.1255 50.5939 51.2544 53.6772 54.1288 58.3034L74.9304 37.3543C70.3115 32.6119 58.6601 24.6268 41.9894 24.0294V29.3272H38.9894ZM38.9894 39.707V32.7871H41.9894V39.707H38.9894ZM38.9894 46.6269V43.1669H41.9894V46.6269H38.9894ZM1.85807 36.3212C6.3112 31.0936 19.996 20.9939 39.9999 20.9939C60.0079 20.9939 73.6935 31.1672 78.1452 36.4301L79.0332 37.48L78.0643 38.4558L54.8291 61.8558L53.2954 63.4004L52.3981 61.4173C50.3091 56.8008 45.6644 53.5939 40.2739 53.5939C37.2308 53.5939 34.4254 54.616 32.1833 56.3367L37.6505 61.5852C38.3509 61.2117 39.1507 61 39.9999 61C42.7614 61 44.9999 63.2386 44.9999 66C44.9999 68.7614 42.7614 71 39.9999 71C37.2385 71 34.9999 68.7614 34.9999 66C34.9999 65.1804 35.1971 64.4068 35.5467 63.7242L30.0218 58.4203C29.2327 59.374 28.5739 60.4398 28.073 61.5904L27.1941 63.6093L25.637 62.0523L1.93928 38.3546L0.960083 37.3754L1.85807 36.3212ZM39.9999 68C41.1045 68 41.9999 67.1046 41.9999 66C41.9999 64.8954 41.1045 64 39.9999 64C38.8954 64 37.9999 64.8954 37.9999 66C37.9999 67.1046 38.8954 68 39.9999 68ZM50.3866 11.1586C49.6734 10.7767 48.6378 10.5 47.1179 10.5C45.961 10.5 45.1081 10.7332 44.4759 11.0584L43.1037 8.3906C44.2131 7.81996 45.5468 7.5 47.1179 7.5C48.9919 7.5 50.5453 7.84059 51.8027 8.51392L50.3866 11.1586ZM52.6469 16.9889C52.6469 15.6578 52.5412 14.434 52.1983 13.4167L55.0412 12.4585C55.5405 13.9399 55.6469 15.5511 55.6469 16.9889L52.6469 16.9889Z" fill="#9A9A9A"/>
</mask>
<g mask="url(#mask0)">
<rect width="80" height="80" fill="#BB2830"/>
</g>
</svg>
