<svg width="80" height="80" viewBox="0 0 80 80" fill="none" xmlns="http://www.w3.org/2000/svg">
<rect width="80" height="80" fill="white"/>
<mask id="mask0" style="mask-type:alpha" maskUnits="userSpaceOnUse" x="1" y="9" width="79" height="63">
<path fill-rule="evenodd" clip-rule="evenodd" d="M27.5 15C28.3284 15 29 14.3284 29 13.5C29 12.6716 28.3284 12 27.5 12C26.6716 12 26 12.6716 26 13.5C26 14.3284 26.6716 15 27.5 15ZM27.5 18C28.937 18 30.2167 17.3264 31.0406 16.2777C37.4419 17.3467 46.1201 18.8065 53.3216 20.0409C56.4642 20.5796 59.3231 21.0749 61.5879 21.476C60.941 21.7441 60.2401 22.0368 59.491 22.3514C55.4534 24.0472 49.985 26.3935 43.9552 28.9979C38.0751 31.5377 31.6679 34.32 25.524 36.988L25.524 36.988C19.8049 39.4715 14.3141 41.8558 9.68915 43.8532C9.03187 42.1825 7.40403 41 5.5 41C3.01472 41 1 43.0147 1 45.5C1 47.9853 3.01472 50 5.5 50C7.12851 50 8.55497 49.1349 9.34494 47.8393L71.005 67.2859C71.0017 67.3569 71 67.4282 71 67.5C71 69.9853 73.0147 72 75.5 72C77.9853 72 80 69.9853 80 67.5C80 65.0147 77.9853 63 75.5 63C74.1672 63 72.9698 63.5794 72.1458 64.5L12.7914 45.7806C16.984 43.9671 21.7681 41.8896 26.7214 39.7387L26.7261 39.7366L26.7279 39.7359L26.7342 39.7331L26.7365 39.7321C32.8818 37.0636 39.2867 34.2823 45.1448 31.752C51.1734 29.1481 56.63 26.8069 60.6527 25.1173C62.6654 24.272 64.3112 23.5931 65.4875 23.1268C65.9221 22.9546 66.2859 22.814 66.5768 22.7058C67.3484 24.0752 68.8162 25 70.5 25C72.9853 25 75 22.9853 75 20.5C75 18.0147 72.9853 16 70.5 16C68.4439 16 66.7099 17.3789 66.1723 19.2624C65.5605 19.1441 64.7347 18.9918 63.7409 18.8128C61.2906 18.3715 57.7792 17.7613 53.8284 17.084C46.7939 15.8782 38.3537 14.458 31.9988 13.3962C31.9437 10.9589 29.9506 9 27.5 9C25.0147 9 23 11.0147 23 13.5C23 15.9853 25.0147 18 27.5 18ZM72 20.5C72 21.3284 71.3284 22 70.5 22C69.6716 22 69 21.3284 69 20.5C69 19.6716 69.6716 19 70.5 19C71.3284 19 72 19.6716 72 20.5ZM5.5 47C6.32843 47 7 46.3284 7 45.5C7 44.6716 6.32843 44 5.5 44C4.67157 44 4 44.6716 4 45.5C4 46.3284 4.67157 47 5.5 47ZM77 67.5C77 68.3284 76.3284 69 75.5 69C74.6716 69 74 68.3284 74 67.5C74 66.6716 74.6716 66 75.5 66C76.3284 66 77 66.6716 77 67.5Z" fill="#9A9A9A"/>
</mask>
<g mask="url(#mask0)">
<rect width="80" height="80" fill="#BB2830"/>
</g>
</svg>
