<svg width="80" height="80" viewBox="0 0 80 80" fill="none" xmlns="http://www.w3.org/2000/svg">
<rect width="80" height="80" fill="white"/>
<path fill-rule="evenodd" clip-rule="evenodd" d="M72.7149 68.0398L13.3319 8.65684C12.3171 7.64199 10.6717 7.64199 9.65684 8.65684C8.642 9.67169 8.642 11.3171 9.65685 12.3319L69.0398 71.7149C70.0546 72.7297 71.7 72.7297 72.7149 71.7149C73.7297 70.7 73.7297 69.0546 72.7149 68.0398ZM7.53552 6.53552C5.3491 8.72194 5.34911 12.2668 7.53553 14.4533L66.9185 73.8362C69.1049 76.0226 72.6498 76.0226 74.8362 73.8362C77.0226 71.6498 77.0226 68.1049 74.8362 65.9185L15.4533 6.53552C13.2668 4.3491 9.72194 4.3491 7.53552 6.53552Z" fill="#BB2830"/>
<path d="M79 40.5C79 61.763 61.763 79 40.5 79C19.237 79 2 61.763 2 40.5C2 19.237 19.237 2 40.5 2C61.763 2 79 19.237 79 40.5Z" fill="white"/>
<mask id="mask0" style="mask-type:alpha" maskUnits="userSpaceOnUse" x="2" y="2" width="77" height="77">
<path fill-rule="evenodd" clip-rule="evenodd" d="M40.5 76C60.1061 76 76 60.1061 76 40.5C76 20.8939 60.1061 5 40.5 5C20.8939 5 5 20.8939 5 40.5C5 60.1061 20.8939 76 40.5 76ZM40.5 79C61.763 79 79 61.763 79 40.5C79 19.237 61.763 2 40.5 2C19.237 2 2 19.237 2 40.5C2 61.763 19.237 79 40.5 79ZM29.1925 24.5174L25.5174 28.1925L52.5661 55.2411L56.2412 51.5661L29.1925 24.5174ZM50.009 56.9267L24.3258 31.2435C24.195 32.5817 24.2804 34.0705 24.6112 35.688C25.4898 39.9838 28.0618 44.8077 32.2533 48.9992C36.4449 53.1908 41.2688 55.7628 45.5646 56.6414C47.182 56.9722 48.6708 57.0575 50.009 56.9267ZM57.7263 48.8086C57.8014 47.5852 57.7017 46.2436 57.4064 44.7995C56.5278 40.5037 53.9558 35.6798 49.7643 31.4883C45.5727 27.2968 40.7488 24.7247 36.453 23.8461C35.0089 23.5508 33.6673 23.4511 32.4439 23.5262L57.7263 48.8086ZM41 12C41.5523 12 42 11.5523 42 11C42 10.4477 41.5523 10 41 10C40.4477 10 40 10.4477 40 11C40 11.5523 40.4477 12 41 12ZM41 15C43.2091 15 45 13.2091 45 11C45 8.79086 43.2091 7 41 7C38.7909 7 37 8.79086 37 11C37 13.2091 38.7909 15 41 15ZM41 71C41.5523 71 42 70.5523 42 70C42 69.4477 41.5523 69 41 69C40.4477 69 40 69.4477 40 70C40 70.5523 40.4477 71 41 71ZM41 74C43.2091 74 45 72.2091 45 70C45 67.7909 43.2091 66 41 66C38.7909 66 37 67.7909 37 70C37 72.2091 38.7909 74 41 74ZM70.5 41.5C69.9477 41.5 69.5 41.0523 69.5 40.5C69.5 39.9477 69.9477 39.5 70.5 39.5C71.0523 39.5 71.5 39.9477 71.5 40.5C71.5 41.0523 71.0523 41.5 70.5 41.5ZM70.5 44.5C68.2909 44.5 66.5 42.7091 66.5 40.5C66.5 38.2909 68.2909 36.5 70.5 36.5C72.7091 36.5 74.5 38.2909 74.5 40.5C74.5 42.7091 72.7091 44.5 70.5 44.5ZM10.5 40.5C10.5 41.0523 10.9477 41.5 11.5 41.5C12.0523 41.5 12.5 41.0523 12.5 40.5C12.5 39.9477 12.0523 39.5 11.5 39.5C10.9477 39.5 10.5 39.9477 10.5 40.5ZM7.5 40.5C7.5 42.7091 9.29086 44.5 11.5 44.5C13.7091 44.5 15.5 42.7091 15.5 40.5C15.5 38.2909 13.7091 36.5 11.5 36.5C9.29086 36.5 7.5 38.2909 7.5 40.5ZM62.5667 21.3475C62.1762 21.738 61.543 21.738 61.1525 21.3475C60.762 20.957 60.762 20.3238 61.1525 19.9333C61.543 19.5427 62.1762 19.5427 62.5667 19.9333C62.9572 20.3238 62.9572 20.957 62.5667 21.3475ZM64.688 23.4688C63.1259 25.0309 60.5933 25.0309 59.0312 23.4688C57.4691 21.9067 57.4691 19.374 59.0312 17.8119C60.5933 16.2499 63.1259 16.2499 64.688 17.8119C66.2501 19.374 66.2501 21.9067 64.688 23.4688ZM19.4333 63.0667C19.8238 63.4572 20.457 63.4572 20.8475 63.0667C21.238 62.6762 21.238 62.043 20.8475 61.6525C20.457 61.262 19.8238 61.262 19.4333 61.6525C19.0427 62.043 19.0427 62.6762 19.4333 63.0667ZM17.312 65.188C18.8741 66.7501 21.4067 66.7501 22.9688 65.188C24.5309 63.6259 24.5309 61.0933 22.9688 59.5312C21.4067 57.9691 18.8741 57.9691 17.312 59.5312C15.7499 61.0933 15.7499 63.6259 17.312 65.188ZM61.1525 61.0667C60.762 60.6762 60.762 60.043 61.1525 59.6525C61.543 59.262 62.1762 59.262 62.5667 59.6525C62.9573 60.043 62.9573 60.6762 62.5667 61.0667C62.1762 61.4572 61.543 61.4572 61.1525 61.0667ZM59.0312 63.188C57.4691 61.6259 57.4691 59.0933 59.0312 57.5312C60.5933 55.9691 63.126 55.9691 64.6881 57.5312C66.2502 59.0933 66.2502 61.6259 64.6881 63.188C63.126 64.7501 60.5933 64.7501 59.0312 63.188ZM19.4332 17.9333C19.0426 18.3238 19.0426 18.957 19.4332 19.3475C19.8237 19.738 20.4568 19.738 20.8474 19.3475C21.2379 18.957 21.2379 18.3238 20.8474 17.9333C20.4568 17.5427 19.8237 17.5427 19.4332 17.9333ZM17.3118 15.812C15.7497 17.3741 15.7497 19.9067 17.3118 21.4688C18.8739 23.0309 21.4066 23.0309 22.9687 21.4688C24.5308 19.9067 24.5308 17.3741 22.9687 15.812C21.4066 14.2499 18.8739 14.2499 17.3118 15.812ZM61 40.5C61 42.056 60.8266 43.5716 60.4982 45.0283C59.654 39.8514 56.6889 34.1703 51.8856 29.367C46.8276 24.309 40.7964 21.2894 35.4054 20.638C37.0343 20.2215 38.7413 20 40.5 20C51.8218 20 61 29.1782 61 40.5ZM40.5 61C42.8196 61 45.0492 60.6148 47.1283 59.9048C41.6087 59.3895 35.352 56.3405 30.132 51.1205C24.6583 45.6469 21.5718 39.0334 21.2907 33.325C20.4562 35.5582 20 37.9758 20 40.5C20 51.8218 29.1782 61 40.5 61ZM64 40.5C64 53.4787 53.4787 64 40.5 64C27.5213 64 17 53.4787 17 40.5C17 27.5213 27.5213 17 40.5 17C53.4787 17 64 27.5213 64 40.5Z" fill="#9A9A9A"/>
</mask>
<g mask="url(#mask0)">
<rect width="80" height="80" fill="#BB2830"/>
</g>
</svg>
