<svg width="80" height="80" viewBox="0 0 80 80" fill="none" xmlns="http://www.w3.org/2000/svg">
<rect width="80" height="80" fill="white"/>
<path fill-rule="evenodd" clip-rule="evenodd" d="M71.4667 62.9333V58.6667H60.2667V62.9333V65.6V69.3333V72V76.2666H71.4667V72V69.3333V65.6V62.9333ZM68.8001 62.9334V61.3334H62.9334V62.9334H68.8001ZM68.8001 65.6H62.9334V69.3333H68.8001V65.6ZM62.9334 72H68.8001V73.6H62.9334V72ZM19.7333 59.2V62.9333V65.6V69.3333V72V75.7333H11.7333V72H8V62.9333H11.7333V59.2H19.7333ZM14.4 72H17.0667V73.0666H14.4V72ZM11.7333 69.3333V69.3333H10.6667V65.6L11.7333 65.6V69.3333ZM14.4 69.3333V65.6H17.0667V69.3333H14.4ZM17.0667 61.8667H14.4V62.9333H17.0667V61.8667ZM47.0036 71.7607V63.0421H33.9257V71.7607H47.0036ZM36.5924 65.7088H44.3369V69.094H36.5924V65.7088Z" fill="#BB2830"/>
<path d="M65.3334 76V58.9333H61.6V76H65.3334Z" fill="white"/>
<path fill-rule="evenodd" clip-rule="evenodd" d="M66.6666 77.3333V57.6H60.2666V77.3333H66.6666ZM62.9333 60.2666H64V74.6666H62.9333V60.2666ZM44.2666 64.5333V70.4H45.8666V64.5333H44.2666ZM41.0667 70.4V64.5333H42.6666V70.4H41.0667ZM37.8667 64.5333V70.4H39.4667V64.5333H37.8667Z" fill="#BB2830"/>
<mask id="mask0" style="mask-type:alpha" maskUnits="userSpaceOnUse" x="17" y="0" width="46" height="80">
<path fill-rule="evenodd" clip-rule="evenodd" d="M24 15.8095C24 7.07819 31.1634 0 40 0C48.8365 0 56 7.07819 56 15.8095V29.6531C60.2768 33.6158 62.9333 39.1538 62.9333 45.2819V80H44.8V55.4555C48.5839 53.6581 51.2 49.8012 51.2 45.3333C51.2 39.1477 46.1856 34.1333 40 34.1333C33.8144 34.1333 28.8 39.1477 28.8 45.3333C28.8 49.8012 31.4161 53.6581 35.2 55.4555V80H17.0667V45.2819C17.0667 39.1538 19.7229 33.6159 24 29.6531V15.8095Z" fill="white"/>
</mask>
<g mask="url(#mask0)">
<path fill-rule="evenodd" clip-rule="evenodd" d="M53.3335 29.6532V30.8177L54.1879 31.6093C57.9596 35.1038 60.2668 39.9484 60.2668 45.2819V77.3334H47.4668V57.0194C51.312 54.5578 53.8668 50.2461 53.8668 45.3334C53.8668 37.675 47.6585 31.4667 40.0001 31.4667C32.3418 31.4667 26.1335 37.675 26.1335 45.3334C26.1335 50.2461 28.6883 54.5578 32.5335 57.0194V77.3334H19.7335V45.2819C19.7335 39.9484 22.0408 35.1039 25.8125 31.6093L26.6668 30.8178V29.6532V15.8096C26.6668 8.581 32.6061 2.66671 40.0001 2.66671C47.3941 2.66671 53.3335 8.581 53.3335 15.8096V29.6532ZM62.9335 82.6667H65.6002V80V45.2819C65.6002 38.7812 62.95 32.8901 58.6668 28.527V15.8096C58.6668 5.5754 50.2792 -2.66663 40.0001 -2.66663C29.721 -2.66663 21.3335 5.57545 21.3335 15.8096V28.527C17.0503 32.8901 14.4001 38.7811 14.4001 45.2819V80V82.6667H17.0668H35.2001H37.8668V80V55.4555V53.7702L36.3444 53.0469C33.4552 51.6744 31.4668 48.7334 31.4668 45.3334C31.4668 40.6206 35.2873 36.8 40.0001 36.8C44.713 36.8 48.5335 40.6206 48.5335 45.3334C48.5335 48.7334 46.5451 51.6744 43.6559 53.0469L42.1335 53.7702V55.4555V80V82.6667H44.8001H62.9335ZM41.3189 8.47226C40.5152 7.99286 39.5359 7.98602 38.7457 8.43431L33.5171 11.4002C32.7257 11.8492 32.2209 12.7001 32.2158 13.6477L32.1832 19.7129C32.1781 20.6636 32.6781 21.5468 33.4855 22.0284L38.6814 25.1277C39.4852 25.6071 40.4644 25.614 41.2547 25.1657L46.4833 22.1998C47.2747 21.7509 47.7795 20.8999 47.7846 19.9523L47.8172 13.8871C47.8223 12.9364 47.3223 12.0532 46.5149 11.5716L41.3189 8.47226ZM42.685 6.18208L47.881 9.28144C49.5017 10.2482 50.494 12.0093 50.4838 13.9014L50.4512 19.9666C50.441 21.8588 49.4298 23.5942 47.7991 24.5193L42.5704 27.4852C40.9395 28.4103 38.9364 28.3848 37.3154 27.4179L32.1194 24.3186C30.4986 23.3517 29.5064 21.5907 29.5166 19.6986L29.5491 13.6334C29.5593 11.7411 30.5706 10.0058 32.2013 9.08073L37.4299 6.11486C39.0608 5.18973 41.064 5.2152 42.685 6.18208ZM42.9651 18.2685C42.3013 19.9059 40.4358 20.6953 38.7984 20.0315C37.1609 19.3677 36.3716 17.5023 37.0353 15.8649C37.6991 14.2274 39.5646 13.4381 41.202 14.1018C42.8395 14.7656 43.6288 16.631 42.9651 18.2685ZM45.4357 19.27C44.2189 22.2719 40.7988 23.719 37.7969 22.5022C34.7949 21.2853 33.3478 17.8653 34.5647 14.8634C35.7815 11.8614 39.2016 10.4143 42.2035 11.6311C45.2055 12.848 46.6526 16.2681 45.4357 19.27Z" fill="#BB2830"/>
</g>
</svg>
