<svg width="80" height="80" viewBox="0 0 80 80" fill="none" xmlns="http://www.w3.org/2000/svg">
<g clip-path="url(#clip0)">
<rect width="80" height="80" fill="white"/>
<mask id="mask0" style="mask-type:alpha" maskUnits="userSpaceOnUse" x="11" y="0" width="59" height="80">
<path fill-rule="evenodd" clip-rule="evenodd" d="M21.6481 30.8704V21.8518C21.6481 11.4403 30.0883 2.99998 40.4999 2.99998C50.9115 2.99998 59.3518 11.4403 59.3518 21.8518L59.3518 30.8704H53.611V21.8518C53.611 14.6108 47.741 8.74073 40.4999 8.74073C33.2588 8.74073 27.3888 14.6108 27.3888 21.8518L27.3888 30.8704H21.6481ZM50.611 21.8518V30.8704L30.3888 30.8704V21.8518C30.3888 16.2676 34.9157 11.7407 40.4999 11.7407C46.0841 11.7407 50.611 16.2676 50.611 21.8518ZM18.6481 31.6853V30.8704L18.6481 21.8518C18.6481 9.7834 28.4315 -1.52588e-05 40.4999 -1.52588e-05C52.5684 -1.52588e-05 62.3518 9.7834 62.3518 21.8518L62.3518 30.8704V31.6853H65.5582C67.729 31.6853 69.4889 33.4451 69.4889 35.616V76.0693C69.4889 78.2402 67.729 80 65.5582 80H15.4419C13.2711 80 11.5112 78.2402 11.5112 76.0693V35.616C11.5112 33.4451 13.2711 31.6853 15.4419 31.6853H18.6481ZM15.4419 34.6333H65.5582C66.1009 34.6333 66.5408 35.0733 66.5408 35.616V76.0693C66.5408 76.612 66.1009 77.052 65.5582 77.052H15.4419C14.8992 77.052 14.4592 76.612 14.4592 76.0693V35.616C14.4592 35.0733 14.8992 34.6333 15.4419 34.6333ZM35.1952 63.6969V66.6969H38.1952H42.6862H45.6862V63.6969V58.5653C47.0694 57.2081 47.9317 55.3148 47.9317 53.218C47.9317 49.0809 44.5779 45.727 40.4408 45.727C36.3036 45.727 32.9498 49.0809 32.9498 53.218C32.9498 55.3147 33.8121 57.208 35.1952 58.5652V63.6969ZM44.9317 53.218C44.9317 54.8803 44.0286 56.3317 42.6862 57.1082V60.6969V63.6969H41.1952H39.6862H38.1952V60.6969V57.1081C36.8529 56.3316 35.9498 54.8803 35.9498 53.218C35.9498 50.7377 37.9605 48.727 40.4408 48.727C42.9211 48.727 44.9317 50.7377 44.9317 53.218Z" fill="#9A9A9A"/>
</mask>
<g mask="url(#mask0)">
<rect width="80" height="80" fill="#BB2830"/>
</g>
</g>
<defs>
<clipPath id="clip0">
<rect width="80" height="80" fill="white"/>
</clipPath>
</defs>
</svg>
