<svg width="80" height="80" viewBox="0 0 80 80" fill="none" xmlns="http://www.w3.org/2000/svg">
<rect width="80" height="80" fill="white"/>
<mask id="mask0" style="mask-type:alpha" maskUnits="userSpaceOnUse" x="14" y="0" width="38" height="80">
<path fill-rule="evenodd" clip-rule="evenodd" d="M32 0H35H45H48V3V11.1656V13.8147L45.3712 14.1425C44.881 14.2036 44.5 14.6269 44.5 15.1346C44.5 15.6423 44.881 16.0656 45.3712 16.1267L48 16.4545V19.1037V22.0117V24.6609L45.3712 24.9887C44.881 25.0498 44.5 25.4731 44.5 25.9808C44.5 26.4885 44.881 26.9118 45.3712 26.9729L48 27.3007V29.9498V32.8579V35.507L45.3712 35.8348C44.881 35.896 44.5 36.3192 44.5 36.8269C44.5 37.3346 44.881 37.7579 45.3712 37.819L48 38.1468V40.796V50H49H52V53V77V80H49H31H28V77V65H25L25 48H14V45H25H26H28L28 50H31H32V35.4019V32.4926L34.908 32.4033C35.444 32.3869 35.875 31.9451 35.875 31.4038C35.875 30.8625 35.444 30.4208 34.908 30.4043L32 30.3151V27.4058V24.5558V21.6464L34.908 21.5572C35.444 21.5407 35.875 21.099 35.875 20.5577C35.875 20.0164 35.444 19.5746 34.908 19.5582L32 19.4689V16.5596V3V0ZM45 48V50H42H38H35V48H45ZM45 45V40.796C43.0268 40.5499 41.5 38.8667 41.5 36.8269C41.5 34.9218 42.8319 33.3277 44.6154 32.9251L44.6294 32.922C44.7509 32.895 44.8746 32.8735 45 32.8579V29.9498C44.8746 29.9342 44.7509 29.9127 44.6294 29.8858L44.6154 29.8826C42.8319 29.48 41.5 27.8859 41.5 25.9808C41.5 24.0756 42.8319 22.4816 44.6154 22.0789L44.6294 22.0758C44.7509 22.0488 44.8746 22.0274 45 22.0117V19.1037C44.8746 19.088 44.7509 19.0666 44.6294 19.0396L44.6154 19.0365C42.8319 18.6338 41.5 17.0398 41.5 15.1346C41.5 13.0948 43.0268 11.4116 45 11.1656V6V3H42H38H35V6V16.5596C37.1513 16.6256 38.875 18.3904 38.875 20.5577C38.875 22.4627 37.5433 24.0566 35.7601 24.4594C35.5421 24.5087 35.3174 24.5401 35.0876 24.5521C35.0585 24.5536 35.0293 24.5549 35 24.5558V27.4058C35.0293 27.4067 35.0585 27.4079 35.0876 27.4094C35.3174 27.4214 35.5421 27.4529 35.7601 27.5021C37.5433 27.9049 38.875 29.4989 38.875 31.4038C38.875 33.5712 37.1513 35.3359 35 35.4019V45H45ZM31 53H32H35H38V69H41V53H45H48H49V77H37V60H34V77H31V53Z" fill="#9A9A9A"/>
</mask>
<g mask="url(#mask0)">
<rect width="80" height="80" fill="#BB2830"/>
</g>
</svg>
