<svg id="Layer_1" data-name="Layer 1" xmlns="http://www.w3.org/2000/svg" viewBox="0 0 53.3 58"><defs><style>.cls-1{fill:#bb2830;}</style></defs><path class="cls-1" d="M53.29,12.87l-.08-1.81-1.81-.19A45.62,45.62,0,0,1,34.7,5.52,44,44,0,0,1,28,1.15L26.65,0,25.29,1.15a44.16,44.16,0,0,1-6.68,4.37A45.68,45.68,0,0,1,1.9,10.87l-1.81.19L0,12.87A55.67,55.67,0,0,0,2.69,30.33a48.12,48.12,0,0,0,7.56,14.74,42.24,42.24,0,0,0,15.49,12.5l.91.43.91-.43a42.24,42.24,0,0,0,15.49-12.5,48.12,48.12,0,0,0,7.56-14.74A55.67,55.67,0,0,0,53.29,12.87ZM26.65,53.33a38,38,0,0,1-13-10.75,43.75,43.75,0,0,1-6.9-13.39A54.26,54.26,0,0,1,4.23,14.82a47.06,47.06,0,0,0,8.4-2.08,54.4,54.4,0,0,0,8.08-3.58,50.53,50.53,0,0,0,5.94-3.75,51.4,51.4,0,0,0,5.94,3.75,54.4,54.4,0,0,0,8.08,3.58,47.16,47.16,0,0,0,8.41,2.08A54.31,54.31,0,0,1,46.6,29.05a43.67,43.67,0,0,1-6.89,13.46A38,38,0,0,1,26.65,53.33Z"/><path class="cls-1" d="M38.11,19.43l-2.93,2.94L24.24,33.3,18.7,27.76,18,27l-1.49,1.48h0L15,30l9.26,9.27L41.09,22.41Z"/></svg>