<svg id="Layer_1" data-name="Layer 1" xmlns="http://www.w3.org/2000/svg" viewBox="0 0 62 62"><defs><style>.cls-1{fill:#bb2830;}</style></defs><path class="cls-1" d="M61.47,47.89l-9.83-9.82-.2-2.49,2.71-1.65a1.82,1.82,0,0,0,.73-2.25l-1.22-2.93,2.06-2.4a1.82,1.82,0,0,0,0-2.37l-2.07-2.41,1.22-2.92a1.81,1.81,0,0,0-.73-2.25l-2.71-1.65.26-3.16a1.82,1.82,0,0,0-1.39-1.92l-3.09-.73-.73-3.09a1.82,1.82,0,0,0-1.91-1.39l-3.16.26L39.76,2a1.82,1.82,0,0,0-2.25-.73L34.59,2.5,32.18.44a1.79,1.79,0,0,0-2.36,0L27.41,2.5,24.49,1.28A1.84,1.84,0,0,0,22.23,2L20.58,4.72l-3.16-.26a1.82,1.82,0,0,0-1.91,1.39l-.73,3.09-3.09.73a1.82,1.82,0,0,0-1.39,1.92l.26,3.16L7.85,16.4a1.81,1.81,0,0,0-.73,2.25l1.22,2.92L6.27,24a1.83,1.83,0,0,0,0,2.37l2.07,2.4L7.12,31.68a1.82,1.82,0,0,0,.73,2.25l2.71,1.65-.2,2.49L.53,47.89A1.83,1.83,0,0,0,.05,49.6a1.8,1.8,0,0,0,1.19,1.3l7.39,2.47,2.47,7.39A1.8,1.8,0,0,0,12.4,62a1.83,1.83,0,0,0,1.71-.48L27.59,48l2.23,1.91a1.81,1.81,0,0,0,2.36,0L34.41,48,47.89,61.47a1.82,1.82,0,0,0,3-.71l2.47-7.39,7.39-2.47A1.8,1.8,0,0,0,62,49.6,1.83,1.83,0,0,0,61.47,47.89ZM13.62,56.82l-1.83-5.47a1.79,1.79,0,0,0-1.15-1.14L5.18,48.38l7.5-7.49,2.1.5.73,3.08a1.82,1.82,0,0,0,1.91,1.39l3.16-.26,1.61,2.64ZM38.9,42.76l-1.43,2.33L35,44a1.8,1.8,0,0,0-1.88.3L31,46.12l-2.07-1.78a1.8,1.8,0,0,0-1.88-.3l-2.52,1.05L23.1,42.76a1.81,1.81,0,0,0-1.69-.87l-2.73.22-.63-2.65a1.82,1.82,0,0,0-1.34-1.35l-2.66-.63.22-2.72a1.8,1.8,0,0,0-.87-1.7l-2.33-1.42,1-2.52a1.81,1.81,0,0,0-.29-1.88l-1.78-2.08,1.78-2.07a1.81,1.81,0,0,0,.29-1.88l-1-2.52,2.33-1.42a1.81,1.81,0,0,0,.87-1.7l-.22-2.72,2.66-.63a1.82,1.82,0,0,0,1.34-1.35l.63-2.66,2.73.22a1.8,1.8,0,0,0,1.69-.86l1.43-2.33,2.52,1A1.82,1.82,0,0,0,28.93,6L31,4.21,33.07,6a1.82,1.82,0,0,0,1.88.3l2.52-1L38.9,7.57a1.8,1.8,0,0,0,1.69.86l2.73-.22L44,10.87a1.82,1.82,0,0,0,1.34,1.35l2.66.63-.22,2.72a1.81,1.81,0,0,0,.87,1.7l2.33,1.42-1,2.52a1.81,1.81,0,0,0,.29,1.88L52,25.16l-1.78,2.08a1.81,1.81,0,0,0-.29,1.88l1,2.52L48.6,33.06a1.8,1.8,0,0,0-.87,1.7L48,37.48l-2.66.63A1.82,1.82,0,0,0,44,39.46l-.63,2.65-2.73-.22A1.81,1.81,0,0,0,38.9,42.76Zm12.45,7.45a1.8,1.8,0,0,0-1.14,1.14l-1.83,5.47-8.57-8.58,1.61-2.64,3.16.26a1.82,1.82,0,0,0,1.91-1.39l.73-3.08,2.1-.5,7.5,7.49Z"/><polygon class="cls-1" points="40.49 16.57 28.81 28.47 23.5 23.07 19.6 27.05 28.81 36.43 44.4 20.55 40.49 16.57"/></svg>