<svg id="Layer_1" data-name="Layer 1" xmlns="http://www.w3.org/2000/svg" xmlns:xlink="http://www.w3.org/1999/xlink" viewBox="0 0 80 80"><defs><style>.cls-1{fill:none;}.cls-2{clip-path:url(#clip-path);}.cls-3{fill:#fff;}.cls-4,.cls-5{fill:#9a9a9a;}.cls-4{fill-rule:evenodd;}</style><clipPath id="clip-path"><rect class="cls-1" width="80" height="80"/></clipPath></defs><g class="cls-2"><path class="cls-3" d="M80,0H0V80H80Z"/><path class="cls-4" d="M0,21.87A2.66,2.66,0,0,1,2.67,19.2H50.13V55.47H2.67A2.67,2.67,0,0,1,0,52.8Zm47.47,0H2.67V52.8h44.8Z"/><path class="cls-4" d="M47.47,20.27a2.66,2.66,0,0,1,2.66-2.67h4.8V57.07h-4.8a2.67,2.67,0,0,1-2.66-2.67Zm4.8,0H50.13V54.4h2.14Z"/><path class="cls-4" d="M52.27,20.62l1.62.36a7.47,7.47,0,0,1,5.84,7.29V46.4a7.47,7.47,0,0,1-5.84,7.29l-1.62.36Zm2.66,3.65V50.39a4.79,4.79,0,0,0,2.14-4V28.27A4.81,4.81,0,0,0,54.93,24.27Z"/><path class="cls-4" d="M57.33,23.73H66.4v6.94H57.33ZM60,26.4V28h3.73V26.4Z"/><path class="cls-4" d="M57.33,44.53H66.4v6.94H57.33ZM60,47.2v1.6h3.73V47.2Z"/><path class="cls-5" d="M63.47,33.07l.4-1.28-.2-.06h-.2Zm-4.8,0V31.73H57.33v1.34Zm9.6,1.51-.4,1.27.19.06h.21Zm11.2,0H80.8V33.24H79.47Zm0,6V42H80.8V40.62Zm-11.2,0V39.29h-.21l-.19.06Zm-4.8,1.51v1.34h.2l.2-.06Zm-4.8,0H57.33v1.34h1.34Zm4.8-10.4h-4.8V34.4h4.8Zm5.2,1.58-4.8-1.52-.8,2.55,4.8,1.51Zm10.8-.07H68.27v2.67h11.2ZM80.8,37.6v-3H78.13v3Zm-2.67,0v3H80.8v-3Zm1.34,1.69H68.27V42h11.2Zm-11.6.06-4.8,1.51.8,2.55,4.8-1.52Zm-4.4,1.45h-4.8v2.67h4.8ZM60,42.13V37.6H57.33v4.53Zm-2.67-9.06V37.6H60V33.07Z"/><path class="cls-4" d="M25.07,19.73H40V62.4H25.07Zm2.66,2.67V59.73h9.6V22.4Z"/></g></svg>