<svg id="Layer_1" data-name="Layer 1" xmlns="http://www.w3.org/2000/svg" viewBox="0 0 15.5 15.5"><path d="M15.5,7c0-4.25-3.44-7-7.75-7a7.75,7.75,0,0,0,0,15.5A7.87,7.87,0,0,0,12.34,14a.39.39,0,0,0,.07-.53l-.5-.59a.39.39,0,0,0-.5-.07A6.25,6.25,0,1,1,7.75,1.5C11.16,1.5,14,3.56,14,7a2.81,2.81,0,0,1-2.62,3.09c-.6,0-.63-.4-.5-1l.9-4.62A.4.4,0,0,0,11.41,4H10.19a.45.45,0,0,0-.38.31,2.56,2.56,0,0,0-.06.44,2.34,2.34,0,0,0-2-1c-2.25,0-4.22,2-4.22,4.78,0,1.91,1,3.19,2.91,3.19a3.25,3.25,0,0,0,2.47-1.31c.15,1,.9,1.19,1.87,1.19A4.38,4.38,0,0,0,15.5,7ZM6.94,10.06C6,10.06,5.5,9.44,5.5,8.44A2.71,2.71,0,0,1,7.84,5.5c.94,0,1.41.69,1.41,1.63C9.25,8.59,8.22,10.06,6.94,10.06Z"/></svg>