<svg id="Layer_1" data-name="Layer 1" xmlns="http://www.w3.org/2000/svg" viewBox="0 0 29.25 26.02"><path d="M28.44,8.13a.75.75,0,0,0-.31.1L19.5,11.38l-.56-.16c1.22-1.77,2.19-3.6,2.19-5A6.4,6.4,0,0,0,14.63,0a6.39,6.39,0,0,0-6.5,6.25,6,6,0,0,0,.5,2.08L1,11a1.66,1.66,0,0,0-1,1.52v12.7A.77.77,0,0,0,.81,26,.67.67,0,0,0,1.12,26l8.63-3.2,8.73,3.1a3.17,3.17,0,0,0,2,0l7.66-2.69a1.54,1.54,0,0,0,1.07-1.48V8.94A.83.83,0,0,0,28.44,8.13ZM8.94,21.33,1.57,24,1.52,12.54,8.94,10Zm5.69-19.7A4.79,4.79,0,0,1,19.5,6.25c0,1.37-2,4.52-4.87,8-3-3.45-4.88-6.6-4.88-8A4.76,4.76,0,0,1,14.63,1.63Zm4.06,22.59-8.13-2.89v-9.7A51.29,51.29,0,0,0,14,16a.81.81,0,0,0,.67.25.73.73,0,0,0,.6-.25c.66-.77,1.73-2,2.75-3.41l.71.26Zm1.62,0V12.85l7.32-2.74.05,11.52ZM15.84,6.5a1.23,1.23,0,0,0-1.21-1.22A1.2,1.2,0,0,0,13.41,6.5a1.17,1.17,0,0,0,1.22,1.22A1.2,1.2,0,0,0,15.84,6.5Z"/></svg>