<svg id="Layer_1" data-name="Layer 1" xmlns="http://www.w3.org/2000/svg" viewBox="0 0 24 24"><path d="M3.88,16.88a1.88,1.88,0,1,0,1.87,1.87A1.89,1.89,0,0,0,3.88,16.88Zm0-6.25A1.88,1.88,0,1,0,5.75,12.5,1.89,1.89,0,0,0,3.88,10.63Zm0-6.25A1.88,1.88,0,1,0,5.75,6.25,1.89,1.89,0,0,0,3.88,4.38Zm17.5.93H8.88a.65.65,0,0,0-.63.63v.62a.62.62,0,0,0,.63.63h12.5A.65.65,0,0,0,22,6.56V5.94A.68.68,0,0,0,21.38,5.31Zm0,6.25H8.88a.65.65,0,0,0-.63.63v.62a.62.62,0,0,0,.63.63h12.5a.65.65,0,0,0,.62-.63v-.62A.68.68,0,0,0,21.38,11.56Zm0,6.25H8.88a.65.65,0,0,0-.63.63v.62a.62.62,0,0,0,.63.63h12.5a.65.65,0,0,0,.62-.63v-.62A.68.68,0,0,0,21.38,17.81Z"/></svg>