<svg id="Layer_1" data-name="Layer 1" xmlns="http://www.w3.org/2000/svg" viewBox="0 0 16 16"><path d="M15.13,10.31,11.94,9a2,2,0,0,0-.56-.13,1.57,1.57,0,0,0-1.1.54l-1,1.25A11.49,11.49,0,0,1,5.38,6.75l1.25-1a1.6,1.6,0,0,0,.53-1.09A2,2,0,0,0,7,4.06L5.69.88A1.62,1.62,0,0,0,4.38,0,1.43,1.43,0,0,0,4,.06L1.09.72A1.51,1.51,0,0,0,0,2.13,13.85,13.85,0,0,0,13.88,16a1.49,1.49,0,0,0,1.4-1.09L15.94,12a1.39,1.39,0,0,0,.06-.31A1.65,1.65,0,0,0,15.13,10.31Zm-1.32,4.22A12.4,12.4,0,0,1,1.5,2.19l2.81-.66L5.63,4.59,3.5,6.34A11.41,11.41,0,0,0,9.66,12.5l1.75-2.12,3.06,1.31Z"/></svg>