<svg id="Layer_1" data-name="Layer 1" xmlns="http://www.w3.org/2000/svg" viewBox="0 0 22.76 25.9"><defs><style>.cls-1{fill:#25f4ee;}.cls-2{fill:#fe2c55;}.cls-3{fill:#1a1919;}</style></defs><path class="cls-1" d="M8.87,10.2v-1a7.44,7.44,0,0,0-1-.09A7.85,7.85,0,0,0,3.35,23.39,7.86,7.86,0,0,1,1.86,15a7.88,7.88,0,0,1,2.8-3.45A7.74,7.74,0,0,1,8.87,10.2Z"/><path class="cls-1" d="M9.06,21.63a3.58,3.58,0,0,0,3.56-3.43V1.08h3.1A6.47,6.47,0,0,1,15.63,0H11.38V17.1a3.58,3.58,0,0,1-3.55,3.46,3.64,3.64,0,0,1-1.65-.42,3.6,3.6,0,0,0,1.26,1.1A3.65,3.65,0,0,0,9.06,21.63ZM21.53,6.89V5.94a5.78,5.78,0,0,1-3.22-1A5.88,5.88,0,0,0,21.53,6.89Z"/><path class="cls-2" d="M18.31,5a5.92,5.92,0,0,1-1.45-3.88H15.72a6.11,6.11,0,0,0,.9,2.21A5.84,5.84,0,0,0,18.31,5ZM7.82,13.38a3.48,3.48,0,0,0-2.19.77,3.57,3.57,0,0,0-1.26,2,3.66,3.66,0,0,0,.21,2.33,3.6,3.6,0,0,0,1.59,1.7,3.61,3.61,0,0,1-.28-3.73,3.57,3.57,0,0,1,3.17-1.95,3.72,3.72,0,0,1,1,.17V10.27a7.42,7.42,0,0,0-1-.08H8.87V13.5A3.72,3.72,0,0,0,7.82,13.38Z"/><path class="cls-2" d="M21.53,6.89V10.2a10,10,0,0,1-5.9-1.93V17a7.84,7.84,0,0,1-7.81,7.85,7.7,7.7,0,0,1-4.47-1.43,7.71,7.71,0,0,0,4,2.31,7.83,7.83,0,0,0,9.53-7.65V9.38a10,10,0,0,0,5.9,1.9V7A5.65,5.65,0,0,1,21.53,6.89Z"/><path class="cls-3" d="M15.63,17V8.27a10.11,10.11,0,0,0,5.91,1.91V6.87A5.94,5.94,0,0,1,18.31,5a5.84,5.84,0,0,1-1.69-1.67,6.11,6.11,0,0,1-.9-2.21h-3.1V18.2a3.56,3.56,0,0,1-6.45,2,3.57,3.57,0,0,1-1.6-1.7,3.66,3.66,0,0,1-.21-2.33,3.58,3.58,0,0,1,3.45-2.74,3.72,3.72,0,0,1,1,.17V10.25a7.82,7.82,0,0,0-7,4.8,7.9,7.9,0,0,0,1.53,8.44,7.75,7.75,0,0,0,4.48,1.33A7.84,7.84,0,0,0,15.63,17Z"/></svg>