<svg id="Layer_1" data-name="Layer 1" xmlns="http://www.w3.org/2000/svg" viewBox="0 0 18 14.63"><path d="M1.69,11.25A1.69,1.69,0,0,0,0,12.94a1.67,1.67,0,0,0,1.69,1.69,1.69,1.69,0,0,0,1.69-1.69A1.71,1.71,0,0,0,1.69,11.25Zm0-5.62A1.69,1.69,0,1,0,3.38,7.31,1.71,1.71,0,0,0,1.69,5.63ZM1.69,0A1.69,1.69,0,0,0,0,1.69,1.67,1.67,0,0,0,1.69,3.38,1.69,1.69,0,0,0,3.38,1.69,1.71,1.71,0,0,0,1.69,0ZM17.44.84H6.19a.58.58,0,0,0-.56.57V2a.55.55,0,0,0,.56.56H17.44A.57.57,0,0,0,18,2V1.41A.61.61,0,0,0,17.44.84Zm0,5.63H6.19A.57.57,0,0,0,5.63,7v.56a.56.56,0,0,0,.56.57H17.44A.58.58,0,0,0,18,7.59V7A.6.6,0,0,0,17.44,6.47Zm0,5.62H6.19a.58.58,0,0,0-.56.57v.56a.55.55,0,0,0,.56.56H17.44a.57.57,0,0,0,.56-.56v-.56A.61.61,0,0,0,17.44,12.09Z"/></svg>