<svg id="Layer_1" data-name="Layer 1" xmlns="http://www.w3.org/2000/svg" viewBox="0 0 15.47 15.5"><path d="M10.5,4.75C10.06,2,9,0,7.75,0S5.44,2,5,4.75Zm-5.75,3c0,.72,0,1.38.09,2h5.79c.06-.62.09-1.28.09-2s0-1.34-.09-2H4.84C4.78,6.41,4.75,7.06,4.75,7.75Zm10.13-3A7.76,7.76,0,0,0,9.94.34,10.52,10.52,0,0,1,11.5,4.75ZM5.53.34A7.76,7.76,0,0,0,.59,4.75H4A10.52,10.52,0,0,1,5.53.34Zm9.69,5.41H11.63c.06.66.12,1.34.12,2s-.06,1.34-.12,2h3.59a7.94,7.94,0,0,0,.25-2A8.36,8.36,0,0,0,15.22,5.75Zm-11.47,2c0-.66,0-1.34.09-2H.25a8.36,8.36,0,0,0-.25,2,7.94,7.94,0,0,0,.25,2H3.84C3.78,9.09,3.75,8.44,3.75,7.75Zm1.22,3c.47,2.81,1.53,4.75,2.78,4.75s2.31-1.94,2.75-4.75Zm5,4.44a7.7,7.7,0,0,0,4.94-4.44H11.5A10.07,10.07,0,0,1,9.94,15.19ZM.59,10.75a7.7,7.7,0,0,0,4.94,4.44A10.46,10.46,0,0,1,4,10.75Z"/></svg>