<svg id="Layer_1" data-name="Layer 1" xmlns="http://www.w3.org/2000/svg" viewBox="0 0 18.86 18.86"><path d="M11.65,11.65a3.14,3.14,0,0,0,0-4.44,3,3,0,0,0-2.22-.92A3.14,3.14,0,0,0,6.29,9.43a3,3,0,0,0,.92,2.22,3.14,3.14,0,0,0,4.44,0ZM12.85,6a4.65,4.65,0,0,1,1.42,3.43,4.63,4.63,0,0,1-1.42,3.42,4.63,4.63,0,0,1-3.42,1.42A4.65,4.65,0,0,1,6,12.85,4.66,4.66,0,0,1,4.59,9.43,4.81,4.81,0,0,1,9.43,4.59,4.66,4.66,0,0,1,12.85,6Zm2.41-2.4a1.12,1.12,0,0,1,0,1.59,1.09,1.09,0,0,1-.8.33,1.11,1.11,0,0,1-.8-.33,1.12,1.12,0,0,1,0-1.59,1.11,1.11,0,0,1,.8-.33A1.09,1.09,0,0,1,15.26,3.6Zm-4.9-1.91H7.19L6,1.73a10,10,0,0,0-1.26.12,4.77,4.77,0,0,0-.87.22,3.31,3.31,0,0,0-1.8,1.8,5.51,5.51,0,0,0-.23.88A9.81,9.81,0,0,0,1.72,6c0,.49,0,.88,0,1.17V8.5c0,.56,0,.87,0,.93s0,.37,0,.94v1.29c0,.3,0,.69,0,1.19a10.18,10.18,0,0,0,.12,1.27,6,6,0,0,0,.23.87,3.3,3.3,0,0,0,.72,1.08,3.12,3.12,0,0,0,1.08.71,5.56,5.56,0,0,0,.87.24q.52.07,1.26.12l1.19,0H8.48l.95,0,.93,0h1.3l1.18,0c.5,0,.92-.07,1.27-.12a5.72,5.72,0,0,0,.88-.24A3.19,3.19,0,0,0,16.78,15a4.23,4.23,0,0,0,.22-.87,8.45,8.45,0,0,0,.13-1.27c0-.5,0-.89,0-1.19s0-.72,0-1.29V8.5c0-.58,0-1,0-1.31s0-.68,0-1.17A8.17,8.17,0,0,0,17,4.75a4,4,0,0,0-.22-.88,3.12,3.12,0,0,0-.71-1.08A3.3,3.3,0,0,0,15,2.07a4.89,4.89,0,0,0-.88-.22,10,10,0,0,0-1.27-.12c-.49,0-.88,0-1.18,0ZM18.8,5.54c0,.72.06,2,.06,3.89s0,3.17-.06,3.89a5.76,5.76,0,0,1-1.53,3.95,5.76,5.76,0,0,1-3.95,1.53c-.72,0-2,.06-3.89.06s-3.17,0-3.89-.06a5.79,5.79,0,0,1-4-1.53A5.75,5.75,0,0,1,.06,13.32C0,12.6,0,11.3,0,9.43S0,6.26.06,5.54a5.78,5.78,0,0,1,1.52-4,5.78,5.78,0,0,1,4-1.52C6.26,0,7.55,0,9.43,0s3.17,0,3.89.06a5.75,5.75,0,0,1,3.95,1.52A5.79,5.79,0,0,1,18.8,5.54Z"/></svg>