<svg id="Layer_1" data-name="Layer 1" xmlns="http://www.w3.org/2000/svg" viewBox="0 0 18 14.63"><path d="M2.81,0H.56A.58.58,0,0,0,0,.56V2.81a.56.56,0,0,0,.56.57H2.81a.59.59,0,0,0,.57-.57V.56A.61.61,0,0,0,2.81,0Zm0,5.63H.56A.58.58,0,0,0,0,6.19V8.44A.56.56,0,0,0,.56,9H2.81a.59.59,0,0,0,.57-.56V6.19A.61.61,0,0,0,2.81,5.63Zm0,5.62H.56a.58.58,0,0,0-.56.56v2.25a.56.56,0,0,0,.56.57H2.81a.59.59,0,0,0,.57-.57V11.81A.61.61,0,0,0,2.81,11.25ZM17.44,6.47H6.19A.57.57,0,0,0,5.63,7v.56a.56.56,0,0,0,.56.57H17.44A.58.58,0,0,0,18,7.59V7A.6.6,0,0,0,17.44,6.47Zm0,5.62H6.19a.58.58,0,0,0-.56.57v.56a.55.55,0,0,0,.56.56H17.44a.57.57,0,0,0,.56-.56v-.56A.61.61,0,0,0,17.44,12.09Zm0-11.25H6.19a.58.58,0,0,0-.56.57V2a.55.55,0,0,0,.56.56H17.44A.57.57,0,0,0,18,2V1.41A.61.61,0,0,0,17.44.84Z"/></svg>