<svg id="Layer_1" data-name="Layer 1" xmlns="http://www.w3.org/2000/svg" viewBox="0 0 12 16"><path d="M11.53,3.06,8.94.44A1.55,1.55,0,0,0,7.88,0H1.5A1.5,1.5,0,0,0,0,1.5v13A1.49,1.49,0,0,0,1.5,16h9A1.5,1.5,0,0,0,12,14.5V4.13A1.59,1.59,0,0,0,11.53,3.06ZM10.38,4H8V1.63ZM1.5,14.5V1.5h5V4.75a.72.72,0,0,0,.75.75H10.5v9ZM9.31,10c-.37-.37-1.47-.28-2-.22A2.63,2.63,0,0,1,6.16,8.38a4.23,4.23,0,0,0,.15-1.75A.7.7,0,0,0,5,6.44a4.72,4.72,0,0,0,.22,2.09c-.31.75-.78,1.75-1.1,2.35-.62.31-1.46.81-1.59,1.43s.81,1.72,2.38-1A13.86,13.86,0,0,1,7,10.69a3.86,3.86,0,0,0,1.75.53A.71.71,0,0,0,9.31,10ZM3.13,12.47a3.25,3.25,0,0,1,.93-1.09C3.47,12.31,3.13,12.47,3.13,12.47Zm2.53-6c.25,0,.22,1,.06,1.28A2.88,2.88,0,0,1,5.66,6.5Zm-.75,4.28a12.09,12.09,0,0,0,.78-1.72,2.93,2.93,0,0,0,.94,1.1A9.27,9.27,0,0,0,4.91,10.78ZM9,10.63s-.16.18-1.16-.25C8.94,10.28,9.13,10.53,9,10.63Z"/></svg>