<svg id="Layer_1" data-name="Layer 1" xmlns="http://www.w3.org/2000/svg" viewBox="0 0 23.58 13.45"><path d="M23.55,1c.19.53-.43,1.73-1.84,3.61l-.8,1c-.33.42-.56.72-.68.89a6,6,0,0,0-.38.61.92.92,0,0,0-.15.52l.16.42a2,2,0,0,0,.41.52l.7.65.06,0A12.14,12.14,0,0,1,23.37,12a.79.79,0,0,1,.08.16.94.94,0,0,1,.08.31.75.75,0,0,1,0,.42.61.61,0,0,1-.3.35,1.6,1.6,0,0,1-.73.14l-3.14,0a1.41,1.41,0,0,1-.69-.06A3,3,0,0,1,18,13.1L17.79,13a5.58,5.58,0,0,1-.86-.78c-.33-.35-.61-.67-.85-.95a3.84,3.84,0,0,0-.75-.71.76.76,0,0,0-.68-.2l-.1,0a1.1,1.1,0,0,0-.21.18,1.47,1.47,0,0,0-.27.36,3.4,3.4,0,0,0-.21.64,4,4,0,0,0-.07,1,1.27,1.27,0,0,1,0,.34,1,1,0,0,1-.09.22l-.05.06a.91.91,0,0,1-.65.27H11.54a5.55,5.55,0,0,1-1.79-.19,7.11,7.11,0,0,1-1.62-.65c-.46-.27-.88-.54-1.27-.81A8.65,8.65,0,0,1,6,11l-.3-.29c-.09-.08-.2-.21-.35-.37s-.43-.53-.87-1.12S3.61,8,3.18,7.38,2.25,5.86,1.67,4.79.56,2.6.07,1.45A.93.93,0,0,1,0,1.12a.35.35,0,0,1,0-.2l0-.07A.83.83,0,0,1,.79.62l3.36,0a1.31,1.31,0,0,1,.28.09.53.53,0,0,1,.2.1l.06,0A.78.78,0,0,1,5,1.2c.17.41.36.84.57,1.28s.38.77.5,1l.2.35c.24.49.47.92.69,1.28A6.71,6.71,0,0,0,7.53,6,3.41,3.41,0,0,0,8,6.42a.72.72,0,0,0,.42.17,1,1,0,0,0,.33-.06.17.17,0,0,0,.06-.06A1.25,1.25,0,0,0,9,6.2a1.93,1.93,0,0,0,.16-.58q.06-.35.12-1a9.71,9.71,0,0,0,0-1.53,5.83,5.83,0,0,0-.11-.9A2.49,2.49,0,0,0,9,1.63l-.07-.14a1.52,1.52,0,0,0-1-.53q-.15,0,.06-.3A1.51,1.51,0,0,1,8.41.3,8,8,0,0,1,11.34,0,8.17,8.17,0,0,1,13,.16a1.41,1.41,0,0,1,.41.17.62.62,0,0,1,.25.3,1.63,1.63,0,0,1,.13.39,2.57,2.57,0,0,1,.05.55c0,.24,0,.47,0,.68s0,.5,0,.87,0,.7,0,1c0,.09,0,.26,0,.51s0,.45,0,.59,0,.31.05.51a1.53,1.53,0,0,0,.13.47.93.93,0,0,0,.29.3l.21,0a.45.45,0,0,0,.31-.14A3.91,3.91,0,0,0,15.21,6a6.82,6.82,0,0,0,.64-.83c.25-.37.53-.82.83-1.32A19.7,19.7,0,0,0,18,1.09a.56.56,0,0,1,.12-.2.46.46,0,0,1,.14-.14l0,0,.07,0a.32.32,0,0,1,.16,0,1,1,0,0,1,.24,0l3.54,0a1.77,1.77,0,0,1,.78,0,.71.71,0,0,1,.38.2Z"/></svg>