<svg id="Layer_1" data-name="Layer 1" xmlns="http://www.w3.org/2000/svg" viewBox="0 0 18.19 22"><path d="M11.59,15.27v2.59c0,.55-.16.83-.48.83a.78.78,0,0,1-.55-.27v-3.7a.78.78,0,0,1,.55-.27C11.43,14.45,11.59,14.72,11.59,15.27Zm4.15,0v.57H14.63v-.57c0-.55.19-.83.56-.83S15.74,14.73,15.74,15.28ZM3.88,12.61H5.19V11.45H1.36v1.16H2.65v7H3.88Zm3.54,7H8.51V13.53H7.42v4.64c-.25.34-.48.52-.7.52s-.24-.09-.26-.26a3.38,3.38,0,0,1,0-.43V13.53H5.35v4.8a3.28,3.28,0,0,0,.1.9.66.66,0,0,0,.71.45,1.81,1.81,0,0,0,1.26-.75Zm5.26-1.81V15.36a4.19,4.19,0,0,0-.11-1.22.84.84,0,0,0-.87-.68,1.47,1.47,0,0,0-1.14.66V11.45H9.47v8.14h1.09V19a1.54,1.54,0,0,0,1.14.68.85.85,0,0,0,.87-.68A4.24,4.24,0,0,0,12.68,17.78Zm4.15-.13v-.16H15.71a5.72,5.72,0,0,1,0,.75c-.06.3-.22.45-.49.45s-.57-.29-.57-.85V16.77h2.2V15.51a2.45,2.45,0,0,0-.33-1.43,1.68,1.68,0,0,0-2.61,0,2.37,2.37,0,0,0-.35,1.43v2.12a2.26,2.26,0,0,0,.36,1.42,1.57,1.57,0,0,0,1.32.63,1.53,1.53,0,0,0,1.59-1.31C16.82,18.29,16.83,18.06,16.83,17.65ZM9.37,6.45V3.87c0-.57-.18-.85-.53-.85s-.53.28-.53.85V6.45c0,.57.18.85.53.85S9.37,7,9.37,6.45Zm8.82,9.22A20.7,20.7,0,0,1,17.87,20a2.33,2.33,0,0,1-.71,1.22,2.17,2.17,0,0,1-1.25.56A66.1,66.1,0,0,1,9.1,22a66.19,66.19,0,0,1-6.82-.26A2.26,2.26,0,0,1,1,21.18,2.32,2.32,0,0,1,.32,20,21,21,0,0,1,0,15.67a21.48,21.48,0,0,1,.32-4.3A2.33,2.33,0,0,1,1,10.15,2.21,2.21,0,0,1,2.3,9.58a66.12,66.12,0,0,1,6.8-.25,66.74,66.74,0,0,1,6.81.25,2.18,2.18,0,0,1,1.25.57,2.21,2.21,0,0,1,.71,1.22A20.3,20.3,0,0,1,18.19,15.67ZM5.94,0H7.19L5.71,4.9V8.23H4.48V4.9a19.07,19.07,0,0,0-.75-2.6c-.3-.85-.57-1.61-.8-2.3H4.24l.87,3.23Zm4.54,4.09V6.24a2.44,2.44,0,0,1-.34,1.45,1.54,1.54,0,0,1-1.3.62,1.53,1.53,0,0,1-1.29-.62,2.48,2.48,0,0,1-.34-1.45V4.09a2.39,2.39,0,0,1,.34-1.44A1.51,1.51,0,0,1,8.84,2a1.51,1.51,0,0,1,1.3.62A2.39,2.39,0,0,1,10.48,4.09Zm4.12-2V8.23H13.48V7.55a1.76,1.76,0,0,1-1.26.76.69.69,0,0,1-.73-.45,3.39,3.39,0,0,1-.1-.92V2.1h1.12V6.6a3,3,0,0,0,0,.43c0,.18.11.27.26.27s.45-.17.7-.52V2.1Z"/></svg>