<svg id="Layer_1" data-name="Layer 1" xmlns="http://www.w3.org/2000/svg" viewBox="0 0 36.04 36"><defs><style>.cls-1{fill:#9a9a9a;}</style></defs><path class="cls-1" d="M35,6.89,29.08,1.05a3.38,3.38,0,0,0-2.32-1H12.35A3.43,3.43,0,0,0,9,3.45V9h3.31V3.45H23.6v7.31a1.71,1.71,0,0,0,1.68,1.69h7.39V32.7H15.79V36H32.6A3.37,3.37,0,0,0,36,32.7V9.28A3.56,3.56,0,0,0,35,6.89ZM27,9.07V3.66l5.42,5.41ZM17.41,23.84a2.44,2.44,0,0,0,.56-2,3,3,0,0,1,0-2.67,2.31,2.31,0,0,0-.56-2,3.26,3.26,0,0,1-1.34-2.32,2.17,2.17,0,0,0-1.47-1.55c-1.41-.35-1.2-.28-2.25-1.34a2.2,2.2,0,0,0-2-.49,3.35,3.35,0,0,1-2.6,0,2.18,2.18,0,0,0-2,.49c-1.06,1.06-.85,1-2.25,1.34a2.17,2.17,0,0,0-1.48,1.55A3.46,3.46,0,0,1,.61,17.09a2.28,2.28,0,0,0-.57,2A3,3,0,0,1,0,21.8a2.42,2.42,0,0,0,.57,2,3.28,3.28,0,0,1,1.33,2.32,2.2,2.2,0,0,0,1.48,1.47,3.58,3.58,0,0,1,1,.35v8L9,33.75,13.47,36V28a7,7,0,0,1,1.13-.35,2.21,2.21,0,0,0,1.47-1.47A3.32,3.32,0,0,1,17.41,23.84ZM9,24.75a4.5,4.5,0,0,1,0-9,4.53,4.53,0,0,1,4.5,4.5A4.49,4.49,0,0,1,9,24.75Z"/></svg>