<svg width="38" height="38" viewBox="0 0 38 38" fill="none" xmlns="http://www.w3.org/2000/svg">
<path d="M0 3.00012C0 1.34327 1.34315 0.00012207 3 0.00012207H35C36.6569 0.00012207 38 1.34327 38 3.00012V35.0001C38 36.657 36.6569 38.0001 35 38.0001H3C1.34315 38.0001 0 36.657 0 35.0001V3.00012Z" fill="#1DADEB"/>
<path d="M28.5156 14.1251C29.4531 13.422 30.2969 12.5782 31 11.547C30.0625 11.9689 29.125 12.2501 28.1875 12.3439C29.2188 11.6876 29.9688 10.797 30.3438 9.62512C29.3594 10.1876 28.3281 10.6095 27.2031 10.797C26.7344 10.3282 26.1719 9.95325 25.5625 9.672C24.9531 9.39075 24.2969 9.25012 23.5938 9.25012C22.7031 9.25012 21.9062 9.4845 21.1562 9.90637C20.4062 10.3751 19.7969 10.9845 19.375 11.7345C18.9062 12.4845 18.7188 13.3282 18.7188 14.172C18.7188 14.547 18.7188 14.922 18.8125 15.297C16.7969 15.2032 14.9219 14.7345 13.1406 13.797C11.3594 12.9064 9.90625 11.6876 8.6875 10.1407C8.21875 10.9376 7.98438 11.7814 7.98438 12.6251C7.98438 13.4689 8.17188 14.2657 8.59375 14.9689C8.96875 15.7189 9.53125 16.2814 10.1875 16.7501C9.39062 16.7501 8.64062 16.5157 7.98438 16.0939V16.1876C7.98438 17.3595 8.35938 18.3907 9.10938 19.2814C9.85938 20.2189 10.7969 20.7814 11.9219 21.0157C11.4531 21.1095 11.0312 21.1564 10.6094 21.1564C10.3281 21.1564 10 21.1564 9.71875 21.1095C10 22.0939 10.5625 22.8907 11.4062 23.547C12.25 24.2032 13.1875 24.4845 14.3125 24.4845C12.4844 25.8907 10.4219 26.5939 8.17188 26.5939C7.70312 26.5939 7.32812 26.5939 7 26.547C9.25 28.047 11.7812 28.7501 14.5469 28.7501C17.4062 28.7501 19.9375 28.047 22.1875 26.547C24.2031 25.2345 25.7969 23.5001 26.9219 21.2501C28 19.1876 28.5625 16.9845 28.5625 14.7345C28.5625 14.4532 28.5156 14.2657 28.5156 14.1251Z" fill="white"/>
</svg>
