<svg width="38" height="38" viewBox="0 0 38 38" fill="none" xmlns="http://www.w3.org/2000/svg">
<path d="M0 3.00012C0 1.34327 1.34315 0.00012207 3 0.00012207H35C36.6569 0.00012207 38 1.34327 38 3.00012V35.0001C38 36.657 36.6569 38.0001 35 38.0001H3C1.34315 38.0001 0 36.657 0 35.0001V3.00012Z" fill="#E97239"/>
<path d="M24.3906 22.6564C25.2344 22.0939 25.75 21.672 25.9844 21.3439C26.2656 20.9689 26.2656 20.4532 26.0312 19.8907C25.7969 19.5157 25.4688 19.2345 25.0938 19.1407C24.5312 19.047 24.0156 19.1876 23.4531 19.6095L22.8906 19.9845C22.4219 20.2657 21.9062 20.4532 21.3906 20.6407C20.5938 20.8751 19.7969 20.9689 19 20.9689C18.1562 20.9689 17.3594 20.8751 16.6094 20.6407C16.0469 20.4532 15.5781 20.2657 15.1094 19.9845L14.5469 19.6095C13.9844 19.1876 13.4219 19.047 12.9531 19.1407C12.4844 19.2345 12.2031 19.5157 12.0156 19.8907C11.7344 20.4532 11.7344 20.9689 12.0156 21.3439C12.2031 21.672 12.7656 22.0939 13.6094 22.6564C14.5938 23.3126 16 23.7345 17.875 23.922L13.3281 28.4689C12.8594 28.8907 12.7656 29.3595 12.9531 29.8751C13.1406 30.3907 13.4688 30.7189 14.0312 30.9064C14.5469 31.0939 15.0156 31.0001 15.4375 30.5782L19 27.0157L22.6094 30.6251C22.9844 31.047 23.4531 31.1407 23.9688 30.9532C24.4844 30.7657 24.8594 30.3907 25.0469 29.8751C25.2344 29.3595 25.0938 28.8907 24.7188 28.4689L20.1719 23.922C21.9531 23.7345 23.3594 23.3126 24.3906 22.6564ZM12.9062 13.0939C12.9062 14.2189 13.1406 15.2032 13.7031 16.1407C14.2656 17.0782 15.0156 17.7814 15.9531 18.3439C16.8906 18.9064 17.875 19.1407 19 19.1407C20.0781 19.1407 21.1094 18.9064 22.0469 18.3439C22.9844 17.7814 23.6875 17.0782 24.25 16.1407C24.8125 15.2032 25.0938 14.2189 25.0938 13.0939C25.0938 11.9689 24.8125 10.9845 24.25 10.047C23.6875 9.1095 22.9844 8.40637 22.0469 7.84387C21.1094 7.28137 20.0781 7.00012 19 7.00012C17.875 7.00012 16.8906 7.28137 15.9531 7.84387C15.0156 8.40637 14.2656 9.1095 13.7031 10.047C13.1406 10.9845 12.9062 11.9689 12.9062 13.0939ZM16 13.0939C16 12.2501 16.2812 11.547 16.8906 10.9845C17.4531 10.422 18.1562 10.0939 19 10.0939C19.7969 10.0939 20.5 10.422 21.1094 10.9845C21.6719 11.547 22 12.2501 22 13.0939C22 13.9376 21.6719 14.6407 21.1094 15.2032C20.5 15.7657 19.7969 16.047 19 16.047C18.1562 16.047 17.4531 15.7657 16.8906 15.2032C16.2812 14.6407 16 13.9376 16 13.0939Z" fill="#F9F9F9"/>
</svg>
