<svg width="38" height="38" viewBox="0 0 38 38" fill="none" xmlns="http://www.w3.org/2000/svg">
<path d="M0 3.00012C0 1.34327 1.34315 0.00012207 3 0.00012207H35C36.6569 0.00012207 38 1.34327 38 3.00012V35.0001C38 36.657 36.6569 38.0001 35 38.0001H3C1.34315 38.0001 0 36.657 0 35.0001V3.00012Z" fill="white"/>
<path d="M21.4922 16.2579C21.0195 15.7853 20.5039 15.4415 19.9453 15.1407C19.7305 15.0548 19.5156 15.0978 19.3438 15.2697L19.1719 15.4415C18.7852 15.7853 18.5703 16.2579 18.5273 16.7306C18.4844 16.9454 18.6133 17.1603 18.7852 17.2892C19.0859 17.4181 19.5586 17.7189 19.7734 17.9767C21.1914 19.3947 21.1914 21.672 19.7734 23.09L16.5508 26.3126C15.1328 27.7306 12.8555 27.7306 11.4375 26.3126C10.0195 24.8947 10.0195 22.6173 11.4375 21.1993L13.4141 19.2228C13.543 19.0939 13.5859 18.922 13.543 18.7501C13.457 18.3204 13.3711 17.59 13.3281 17.1173C13.3281 16.6876 12.7695 16.4728 12.4688 16.7736C11.9531 17.2892 11.1367 18.1056 9.76172 19.4806C7.39844 21.8439 7.39844 25.6681 9.76172 27.9884C12.082 30.3517 15.9062 30.3517 18.2695 27.9884C21.793 24.465 21.6211 24.6368 21.8789 24.2931C23.8125 21.9728 23.6836 18.4493 21.4922 16.2579ZM28.1953 9.55481C25.875 7.19153 22.0508 7.19153 19.6875 9.55481C16.1641 13.0782 16.3359 12.9064 16.0781 13.2501C14.1445 15.5704 14.2734 19.0939 16.4648 21.2853C16.9375 21.7579 17.4531 22.1017 18.0117 22.4025C18.2266 22.4884 18.4414 22.4454 18.6133 22.2736L18.7852 22.1017C19.1719 21.7579 19.3867 21.2853 19.4297 20.8126C19.4727 20.5978 19.3438 20.3829 19.1719 20.254C18.8711 20.1251 18.3984 19.8243 18.1836 19.5665C16.7656 18.1486 16.7656 15.8712 18.1836 14.4532L21.4062 11.2306C22.8242 9.81262 25.1016 9.81262 26.5195 11.2306C27.9375 12.6486 27.9375 14.9259 26.5195 16.3439L24.543 18.3204C24.4141 18.4493 24.3711 18.6212 24.4141 18.7931C24.5 19.2228 24.5859 19.9532 24.6289 20.4259C24.6289 20.8556 25.1875 21.0704 25.4883 20.7697C26.0039 20.254 26.8203 19.4376 28.1953 18.0626C30.5586 15.6993 30.5586 11.8751 28.1953 9.55481Z" fill="#9A9A9A"/>
</svg>
