<svg id="Layer_1" data-name="Layer 1" xmlns="http://www.w3.org/2000/svg" viewBox="0 0 76.46 76.46"><defs><style>.cls-1{opacity:0.8;isolation:isolate;}.cls-2{fill:#205aa4;}.cls-3{fill:#325fa8;}</style></defs><g class="cls-1"><path class="cls-2" d="M38.15,72.85A34.55,34.55,0,0,1,9.54,19.05,34.55,34.55,0,0,1,57.47,9.6,34.55,34.55,0,0,1,44.9,72.19,35,35,0,0,1,38.15,72.85ZM38.3,4.73a34,34,0,0,0-6.56.65,33.54,33.54,0,0,0-12.2,60.77A33.55,33.55,0,0,0,56.92,10.43,33.36,33.36,0,0,0,38.3,4.73Z"/></g><path class="cls-2" d="M38.17,76.44A38.21,38.21,0,0,1,6.48,16.93,38.23,38.23,0,1,1,38.17,76.44ZM38.3,2A36.27,36.27,0,1,0,58.41,8.15,36.14,36.14,0,0,0,38.3,2Z"/><path class="cls-3" d="M19.11,53.19,20.76,45,26.17,46l-.29,1.47L22,46.73,20.64,53.5Zm8.59-.46a2.51,2.51,0,0,0,3.55.71,3,3,0,0,0,1.1-1.87,2.88,2.88,0,0,0-.29-2.14,2.35,2.35,0,0,0-1.63-1.12,2.31,2.31,0,0,0-1.93.41,2.83,2.83,0,0,0-1.09,1.86A2.93,2.93,0,0,0,27.7,52.73Zm-.06-5.26a4,4,0,0,1,5.69,1.14,4.64,4.64,0,0,1-1.22,6.07,3.86,3.86,0,0,1-3.08.63,3.9,3.9,0,0,1-2.61-1.77,4.67,4.67,0,0,1,1.22-6.07Zm5.6,10.28.63-3.12h.06a1,1,0,0,0,.82-.12,2.24,2.24,0,0,0,.51-1l1.56-5.32,5.53,1.12L41,56.06l.88.18-.63,3.11-1.53-.3L40,57.4l-4.94-1-.33,1.64Zm2.86-2.67,3.36.67,1.06-5.29L38,49.94l-1.23,4.22a2.26,2.26,0,0,1-.38.7Zm5.71,2.68,4.6-7.65,2.23.45,1.29,8.83L48.22,59,48,57.15l-3.45-.69-1,1.64Zm3.46-2.61,2.47.49-.45-3.52-.24,0Z"/><path class="cls-3" d="M30.69,40.51l.73-3.61,10.67-6.83a8.28,8.28,0,0,0,.88-.64,3.61,3.61,0,0,0,.65-.78,4,4,0,0,0,.49-1.28,3.14,3.14,0,0,0-.44-2.4A3,3,0,0,0,41.6,23.6a3.27,3.27,0,0,0-2.67.61,3.86,3.86,0,0,0-1.54,2.46l-4.08-.82a7.73,7.73,0,0,1,3.21-5.09,7.46,7.46,0,0,1,5.87-1.08,7.43,7.43,0,0,1,5,3.06,6.9,6.9,0,0,1,1,5.48A6.14,6.14,0,0,1,48,29.3a8.37,8.37,0,0,1-.4.84,4.12,4.12,0,0,1-.55.8c-.23.28-.42.49-.56.64s-.36.32-.7.58-.56.43-.69.51l-.75.5-.72.48-6.19,4,0,.15,8.94,1.8L45.6,43.5Z"/></svg>