<svg id="Layer_1" data-name="Layer 1" xmlns="http://www.w3.org/2000/svg" viewBox="0 0 76.47 76.47"><defs><style>.cls-1,.cls-2{fill:none;stroke:#205aa4;}.cls-1{opacity:0.8;isolation:isolate;}.cls-2{stroke-width:2px;}.cls-3{fill:#325fa8;}</style></defs><circle class="cls-1" cx="38.24" cy="38.3" r="34.05"/><circle class="cls-2" cx="38.24" cy="38.24" r="37.23"/><path class="cls-3" d="M22.43,56.67v-8.4H28v1.5H24v6.9Zm8.33-2.15a2.52,2.52,0,0,0,3.63,0,2.93,2.93,0,0,0,.7-2.05,2.89,2.89,0,0,0-.7-2,2.5,2.5,0,0,0-3.63,0,2.89,2.89,0,0,0-.71,2A2.94,2.94,0,0,0,30.76,54.52Zm-1.09-5.14a4,4,0,0,1,5.81,0,4.68,4.68,0,0,1,0,6.19,4.07,4.07,0,0,1-5.81,0,4.65,4.65,0,0,1,0-6.19Zm7.52,9V55.17h.06A1,1,0,0,0,38,54.9a2.25,2.25,0,0,0,.3-1.11l.48-5.52h5.64v6.9h.9v3.18H43.79V56.67h-5v1.68Zm2.28-3.18h3.42v-5.4H40.26l-.37,4.38a2.17,2.17,0,0,1-.23.76Zm6.12,1.5,3-8.4h2.28l3,8.4H52.13l-.63-1.8H48l-.64,1.8Zm2.88-3.24H51l-1.14-3.36h-.24Z"/><path class="cls-3" d="M31.29,42V38.27l9.12-8.8a10.24,10.24,0,0,0,.74-.8,3.45,3.45,0,0,0,.48-.89,3.75,3.75,0,0,0,.22-1.35A3.18,3.18,0,0,0,41,24.16a3.07,3.07,0,0,0-2.31-.93,3.26,3.26,0,0,0-2.49,1.12,3.79,3.79,0,0,0-1,2.72H31a7.68,7.68,0,0,1,2.15-5.63,7.44,7.44,0,0,1,5.53-2.21,7.45,7.45,0,0,1,5.48,2,7,7,0,0,1,2,5.18,6.77,6.77,0,0,1-.09,1.12,7.32,7.32,0,0,1-.23.9,3.68,3.68,0,0,1-.38.89c-.17.32-.31.57-.42.74s-.3.38-.57.7-.47.54-.58.64-.3.3-.64.64l-.61.61-5.28,5.12V38h9.12v4Z"/></svg>