<svg width="137" height="74" viewBox="0 0 137 74" fill="none" xmlns="http://www.w3.org/2000/svg">
<path d="M0 42.873H14.3843L12.7216 74L37.1207 31.127L22.7364 31.1661L24.3991 0L0 42.873Z" fill="url(#paint0_radial)"/>
<path d="M48.2563 30.936C45.5883 30.936 43.3069 30.192 41.4895 28.6651C39.6722 27.1772 38.7441 25.1021 38.7441 22.4788H41.4509C41.4509 24.319 42.0695 25.7285 43.3456 26.7465C44.5829 27.7645 46.2456 28.2735 48.2563 28.2735C49.9577 28.2735 51.3884 27.8428 52.5484 26.9815C53.7084 26.1201 54.2884 24.9846 54.2884 23.5359C54.2884 22.2047 53.7858 21.1476 52.7417 20.3645C51.6977 19.5815 50.1897 18.7984 48.2177 18.0545C45.5109 17.0365 43.7322 16.2143 42.8429 15.627C40.6775 14.2174 39.5948 12.2598 39.5948 9.75394C39.5948 7.6005 40.4068 5.8386 41.9922 4.54654C43.6162 3.25448 45.5109 2.58887 47.7536 2.58887C50.1124 2.58887 52.1231 3.29363 53.7858 4.70315C55.4098 6.11268 56.2605 8.03119 56.2605 10.4196H53.5538C53.5538 8.77511 53.0124 7.5222 51.9297 6.58252C50.847 5.68199 49.455 5.21215 47.7536 5.21215C46.2069 5.21215 44.8923 5.60368 43.8482 6.4259C42.8042 7.20897 42.2629 8.34442 42.2629 9.75394C42.2629 11.1635 42.7655 12.2598 43.7322 13.0428C44.6989 13.8259 46.2069 14.609 48.2177 15.392C50.963 16.4883 52.8191 17.3497 53.7471 17.937C55.8738 19.3465 56.9565 21.2259 56.9565 23.5751C56.9565 25.8069 56.1058 27.5688 54.3658 28.9391C52.6644 30.2703 50.615 30.936 48.2563 30.936Z" fill="white"/>
<path d="M75.3241 3.05762V5.64175H67.784V30.465H65.0773V5.64175H57.5371V3.05762H67.784H75.3241Z" fill="white"/>
<path d="M94.3112 30.465L91.7978 23.7306H78.9602L76.4468 30.465H73.5854L83.987 3.05762H86.771L97.1725 30.465H94.3112ZM79.9269 21.1465H90.8311L85.379 6.46397L79.9269 21.1465Z" fill="white"/>
<path d="M117.936 30.465L108.423 19.5021H102.391V30.465H99.6846V3.05762H102.391H109.351C111.594 3.05762 113.527 3.87984 115.074 5.48513C116.66 7.09042 117.472 9.04809 117.472 11.319C117.472 13.1592 116.892 14.8428 115.809 16.3306C114.688 17.8185 113.257 18.7582 111.517 19.2671L121.338 30.5433H117.936V30.465ZM102.391 5.64174V16.9179H109.351C110.859 16.9179 112.135 16.3698 113.179 15.2735C114.224 14.1772 114.765 12.846 114.765 11.2798C114.765 9.7137 114.224 8.38249 113.179 7.28619C112.135 6.18989 110.859 5.64174 109.351 5.64174H102.391Z" fill="white"/>
<path d="M137 3.05762V5.64175H129.46V30.465H126.753V5.64175H119.213V3.05762H129.46H137Z" fill="white"/>
<path d="M46.6334 70.5975L37.6626 41.4282H44.8547L50.8095 62.8843L56.7643 41.4282H63.9564L54.9856 70.5975H46.6334Z" fill="white"/>
<path d="M90.636 66.8001C87.7359 69.6975 84.1785 71.1853 80.0025 71.1853C75.8264 71.1853 72.3076 69.7366 69.3689 66.8001C66.4689 63.9028 64.9995 60.3007 64.9995 55.9938C64.9995 51.7261 66.4689 48.1239 69.3689 45.1874C72.269 42.2901 75.8264 40.8022 80.0025 40.8022C84.1785 40.8022 87.6973 42.2509 90.636 45.1874C93.536 48.0848 95.0054 51.6869 95.0054 55.9938C95.0054 60.3007 93.536 63.9028 90.636 66.8001ZM74.0477 62.2583C75.633 63.8636 77.6437 64.6859 80.0411 64.6859C82.4385 64.6859 84.4105 63.8636 86.0346 62.2583C87.6199 60.653 88.4319 58.5779 88.4319 55.9938C88.4319 53.4488 87.6199 51.3737 86.0346 49.7292C84.4105 48.1239 82.4385 47.3017 80.0411 47.3017C77.6437 47.3017 75.6717 48.1239 74.0477 49.7292C72.4623 51.3345 71.6503 53.4097 71.6503 55.9938C71.6116 58.5779 72.4237 60.653 74.0477 62.2583Z" fill="white"/>
<path d="M106.296 64.1764H116.156V70.5975H99.7222V41.4282H106.296V64.1764Z" fill="white"/>
<path d="M136.961 41.4282V47.8494H130.387V70.5975H123.814V47.8494H117.24V41.4282H130.387H136.961Z" fill="white"/>
<defs>
<radialGradient id="paint0_radial" cx="0" cy="0" r="1" gradientUnits="userSpaceOnUse" gradientTransform="translate(18.5538 37.0108) scale(28.98 29.3443)">
<stop stop-color="#E2001A"/>
<stop offset="0.8571" stop-color="#9D0D16"/>
</radialGradient>
</defs>
</svg>
