<svg id="Layer_1" data-name="Layer 1" xmlns="http://www.w3.org/2000/svg" viewBox="0 0 166 157"><defs><style>.cls-1{fill:#1a1919;}.cls-2{fill:#bb2830;}</style></defs><circle class="cls-1" cx="15" cy="6" r="151"/><path class="cls-2" d="M56.77,78.85,32.07,51.24l-3.34,3L37.48,64c2.34,2.62,5.31,5.61,9.17,9.62-1.53-1.24-2.53-1.87-8.37-5.56L23.62,58.8l-3.46,3.1L44.85,89.51l3.38-3-7.95-8.9c-1.37-1.53-4.33-4.68-5.82-6.17C32.15,69.07,32,69,30.77,67.62c2.88,2,4.49,3.23,8,5.34l14.68,8.88ZM73.46,63.93l-3.14-3.51-5.63,5-8.24-9.21,3.82-3.42-3.13-3.5-3.83,3.42-7.05-7.89,5.27-4.72-3.13-3.5L39,45.06l24.7,27.61ZM92.08,47.26,70.53,16.85,67,20,77.75,34c2.89,3.79,2.91,3.49,5.66,6.89-2-1.57-1.14-1.44-6.54-6.1L63.4,23.22,60,26.28l10.26,14.3c3.33,4.62,2.24,3,5.31,6.83-1.44-1.45-5.07-5-6.23-6.08L56.4,29.48l-3.78,3.39L80.85,57.31l3.34-3L73,38.28c-.64-.87-2-2.79-4.71-6.15.95.82,1.31,1.22,1.92,1.83,1.38,1.38,2.7,2.44,3.9,3.47L88.86,50.14Z"/></svg>