<svg id="Layer_1" data-name="Layer 1" xmlns="http://www.w3.org/2000/svg" viewBox="0 0 72.8 48"><defs><style>.cls-1{fill:#fff;}</style></defs><path class="cls-1" d="M0,24.81c0,3.79,2.84,6.44,6.91,6.44h25.6V25.87l-1.68-2.09H9.43a2,2,0,0,1-2-2.05V9.56A2,2,0,0,1,9.43,7.5H30.92l1.59-1.78V0H6.91C2.84,0,0,2.65,0,6.44V24.81Z"/><path class="cls-1" d="M64.51,31.25h7.61V28.66l-6.39-7.32.88-.07a6.37,6.37,0,0,0,6.19-6.41V6.44C72.8,3.24,70.43,0,65.9,0H38.68V31.25h7.38V21.32H56.35ZM46.06,7.51H63.38a2,2,0,0,1,2.05,2.06v2.16a2,2,0,0,1-2.05,2.06H46.06Z"/><path class="cls-1" d="M4.58,45.92H5.66a3,3,0,0,1-.14.46,2.51,2.51,0,0,1-.3.54,2.68,2.68,0,0,1-.47.54,2.09,2.09,0,0,1-.68.38,2.6,2.6,0,0,1-.93.16,2.56,2.56,0,0,1-1.94-.82,2.85,2.85,0,0,1-.78-2.06,2.89,2.89,0,0,1,.78-2.07,2.59,2.59,0,0,1,1.94-.81,2.73,2.73,0,0,1,.87.13,2.55,2.55,0,0,1,.68.36,2.84,2.84,0,0,1,.48.5,3.17,3.17,0,0,1,.32.54,3.39,3.39,0,0,1,.17.51H4.58a1.85,1.85,0,0,0-.52-.73,1.33,1.33,0,0,0-.92-.31,1.57,1.57,0,0,0-1.21.51,2.18,2.18,0,0,0,0,2.73A1.57,1.57,0,0,0,3.14,47a1.32,1.32,0,0,0,.93-.32A1.74,1.74,0,0,0,4.58,45.92Z"/><path class="cls-1" d="M5.9,47.92l2-5.61H9.42l2,5.61H10.26l-.42-1.21H7.49l-.42,1.21Zm1.92-2.17H9.5l-.76-2.23H8.58Z"/><path class="cls-1" d="M12.14,47.92V42.31H14.7a1.69,1.69,0,0,1,1.26.53,1.89,1.89,0,0,1,.5,1.35A1.79,1.79,0,0,1,16,45.47a1.67,1.67,0,0,1-1.17.52l1.8,1.92H15.3L13.5,46h-.32v1.92h-1Zm1-2.88h1.49a.7.7,0,0,0,.53-.25.84.84,0,0,0,.23-.59.93.93,0,0,0-.23-.64.72.72,0,0,0-.53-.25H13.18Z"/><path class="cls-1" d="M18.78,47.92l-1.92-5.61H18l1.44,4.32h.16l1.44-4.32h1.16L20.3,47.92Z"/><path class="cls-1" d="M23,47.92V42.31h1v5.61Z"/><path class="cls-1" d="M25.34,47.92V42.31h1v4.61H29v1Z"/><path class="cls-1" d="M29.9,47.92V42.31h1v4.61h2.64v1Z"/><path class="cls-1" d="M34.47,47.92V42.31h3.76v1H35.51v1.36h2.55v1H35.51V47h2.72v1Z"/><path class="cls-1" d="M41.51,47.92V42.31h2.56a1.69,1.69,0,0,1,1.26.53,1.89,1.89,0,0,1,.5,1.35,1.75,1.75,0,0,1-.48,1.28,1.63,1.63,0,0,1-1.16.52L46,47.91H44.67L42.86,46h-.31v1.92h-1Zm1-2.88H44a.69.69,0,0,0,.53-.25.84.84,0,0,0,.23-.59.93.93,0,0,0-.23-.64.72.72,0,0,0-.53-.25H42.55Z"/><path class="cls-1" d="M46.35,47.92l2-5.61h1.52l2,5.61H50.7l-.42-1.21H47.93l-.43,1.21Zm1.92-2.17H50l-.76-2.23H49Z"/><path class="cls-1" d="M56.35,45.92h1.08a3.37,3.37,0,0,1-.14.46,2.51,2.51,0,0,1-.3.54,2.62,2.62,0,0,1-.46.53,2.08,2.08,0,0,1-.69.39A2.73,2.73,0,0,1,53,47.18a3.12,3.12,0,0,1,0-4.13,2.61,2.61,0,0,1,1.94-.82,2.69,2.69,0,0,1,.87.14,2.55,2.55,0,0,1,.68.36,2.52,2.52,0,0,1,.48.5,2.62,2.62,0,0,1,.32.54,3.39,3.39,0,0,1,.17.51H56.35a1.89,1.89,0,0,0-.52-.74,1.36,1.36,0,0,0-.92-.31,1.59,1.59,0,0,0-1.21.52,2,2,0,0,0-.47,1.36,2,2,0,0,0,.47,1.37,1.59,1.59,0,0,0,1.21.51,1.28,1.28,0,0,0,.93-.32A1.74,1.74,0,0,0,56.35,45.92Z"/><path class="cls-1" d="M58.43,47.92V42.31h1v5.61Z"/><path class="cls-1" d="M60.79,47.92V42.31h1.4l2,3.88h.16V42.31h1v5.61H64L62,44h-.16v3.89Z"/><path class="cls-1" d="M71,47.92l-.08-.64h0a1.38,1.38,0,0,1-.4.35,2.18,2.18,0,0,1-1.24.37,2.58,2.58,0,0,1-1.93-.82,3.09,3.09,0,0,1,0-4.13,2.54,2.54,0,0,1,1.93-.82,2.48,2.48,0,0,1,1,.19,2.25,2.25,0,0,1,.76.48,3.12,3.12,0,0,1,.49.64,2.47,2.47,0,0,1,.27.69H70.67a1.53,1.53,0,0,0-1.44-1,1.56,1.56,0,0,0-1.21.52,1.94,1.94,0,0,0-.47,1.36A2,2,0,0,0,68,46.48a1.59,1.59,0,0,0,1.21.51,1.46,1.46,0,0,0,.67-.14,1.27,1.27,0,0,0,.48-.33,1.9,1.9,0,0,0,.28-.39.82.82,0,0,0,.09-.34v0h-1.4V45h2.44v3Z"/></svg>