<svg id="Layer_1" data-name="Layer 1" xmlns="http://www.w3.org/2000/svg" viewBox="0 0 79 44.89"><defs><style>.cls-1{fill:#fff;}</style></defs><path class="cls-1" d="M69.71,7.49V37.33c1.18-.24,2.36-.43,3.53-.68V8.17C72.07,7.92,70.89,7.68,69.71,7.49Z"/><path class="cls-1" d="M30,5.2V39.75c1.17.06,2.35.12,3.53.12V5Z"/><path class="cls-1" d="M54.61,36.16V5.51c-1.18-.06-2.36-.19-3.53-.25v34.3c1.17-.06,2.35-.18,3.53-.25s2.6-.24,3.83-.37V35.79C57.21,36,55.91,36.1,54.61,36.16Z"/><path class="cls-1" d="M63.89,35.17V6.62c-1.17-.18-2.35-.31-3.53-.43V38.82c1.18-.12,2.36-.31,3.53-.43s2.6-.38,3.84-.62V34.61C66.49,34.73,65.25,35,63.89,35.17Z"/><path class="cls-1" d="M10.77,7.24c-1.17.19-2.35.44-3.53.62s-2.1.44-3.16.68V11.7c1.06-.25,2.11-.43,3.16-.68V37.09c1.18.24,2.36.43,3.53.61V10.34c1.05-.19,2.11-.31,3.16-.5V6.69C12.81,6.93,11.76,7.06,10.77,7.24Z"/><path class="cls-1" d="M42.35,4.27a5.57,5.57,0,0,0-5.64,5.57V40h3.53V26.37h4.21V39.93c1.18,0,2.36-.06,3.53-.12v-30a5.56,5.56,0,0,0-5.45-5.57Zm-2.11,18.2V10.22a2.09,2.09,0,0,1,2.11-2.11h.06a2.08,2.08,0,0,1,2,2.11V22.47Z"/><path class="cls-1" d="M26.87,18.94V9.16A3.46,3.46,0,0,0,23.09,5.7a1.22,1.22,0,0,0-.49.06l-3.1.31c-1.17.12-2.35.24-3.53.43V38.63c1.18.13,2.36.31,3.53.44V24.39h1.43a2.48,2.48,0,0,1,2.47,2.48V39.31c1.18.13,2.36.19,3.53.25V25.94a3.45,3.45,0,0,0-2.72-3.4v-.19A3.41,3.41,0,0,0,26.87,18.94Zm-3.47-.86a2.48,2.48,0,0,1-2.47,2.47H19.5V9.22L21.42,9a1.71,1.71,0,0,1,1.92,1.73Z"/><path class="cls-1" d="M77.08,4.09A165,165,0,0,0,39.5,0,161.65,161.65,0,0,0,1.92,4.09,17.94,17.94,0,0,0,0,4.58V40.3c.62.19,1.3.31,1.92.5A165,165,0,0,0,39.5,44.89,161.65,161.65,0,0,0,77.08,40.8,19.38,19.38,0,0,0,79,40.3V4.58C78.38,4.46,77.76,4.27,77.08,4.09Zm0,35A165.57,165.57,0,0,1,39.5,43.15,161.68,161.68,0,0,1,1.92,39.07V5.88A165,165,0,0,1,39.5,1.8,161.68,161.68,0,0,1,77.08,5.88Z"/></svg>