<svg id="Layer_1" data-name="Layer 1" xmlns="http://www.w3.org/2000/svg" viewBox="0 0 88.12 47"><defs><style>.cls-1{fill:#fff;}</style></defs><path class="cls-1" d="M0,27.22H9.25L8.2,47,23.89,19.77H14.62L15.7,0Z"/><path class="cls-1" d="M31,19.65a6.65,6.65,0,0,1-4.34-1.43,4.8,4.8,0,0,1-1.76-3.92h1.74A3.27,3.27,0,0,0,27.89,17,4.89,4.89,0,0,0,31,18a4.49,4.49,0,0,0,2.75-.82,2.59,2.59,0,0,0,1.1-2.19,2.39,2.39,0,0,0-1-2A12.16,12.16,0,0,0,31,11.46a18.7,18.7,0,0,1-3.46-1.54,4.21,4.21,0,0,1-2.09-3.73A4,4,0,0,1,27,2.88a5.69,5.69,0,0,1,3.69-1.24A5.82,5.82,0,0,1,34.56,3a4.54,4.54,0,0,1,1.58,3.63H34.39a3,3,0,0,0-1-2.42,4.06,4.06,0,0,0-2.67-.86,4,4,0,0,0-2.5.76,2.49,2.49,0,0,0-1,2.1,2.48,2.48,0,0,0,.95,2.08A11.77,11.77,0,0,0,31,9.75a23.68,23.68,0,0,1,3.56,1.61,4.24,4.24,0,0,1,.41,7A6.17,6.17,0,0,1,31,19.65Z"/><path class="cls-1" d="M48.45,1.94V3.58H43.6V19.35H41.86V3.58H37V1.94H48.45Z"/><path class="cls-1" d="M60.66,19.35,59,15.07H50.78l-1.61,4.28H47.33L54,1.94h1.79L62.5,19.35Zm-9.25-5.92h7L54.91,4.1Z"/><path class="cls-1" d="M75.85,19.35l-6.11-7H65.86v7H64.12V1.94h6.21A5,5,0,0,1,74,3.47a5,5,0,0,1,1.53,3.69,5,5,0,0,1-1.09,3.17,5,5,0,0,1-2.74,1.85L78,19.35Zm-10-15.77v7.16h4.47A3.28,3.28,0,0,0,72.8,9.68a3.53,3.53,0,0,0,1-2.52,3.56,3.56,0,0,0-1-2.54,3.34,3.34,0,0,0-2.47-1Z"/><path class="cls-1" d="M88.12,1.94V3.58H83.27V19.35H81.52V3.58H76.67V1.94H88.12Z"/><path class="cls-1" d="M30,44.83,24.24,26.31h4.63l3.84,13.63,3.84-13.63h4.63L35.41,44.83Z"/><path class="cls-1" d="M58.3,42.42a9.77,9.77,0,0,1-13.65,0,9.25,9.25,0,0,1-2.81-6.85,9.54,9.54,0,0,1,9.64-9.63,9.54,9.54,0,0,1,9.63,9.63A9.25,9.25,0,0,1,58.3,42.42ZM47.62,39.54a5.4,5.4,0,0,0,9.25-4,5.36,5.36,0,0,0-1.55-4,5.61,5.61,0,0,0-7.7,0,5.35,5.35,0,0,0-1.54,4A5.35,5.35,0,0,0,47.62,39.54Z"/><path class="cls-1" d="M68.38,40.75h6.35v4.08H64.15V26.31h4.23Z"/><path class="cls-1" d="M88.1,26.31v4.07H83.86V44.83H79.63V30.38H75.4V26.3H88.1Z"/></svg>