<svg id="Layer_1" data-name="Layer 1" xmlns="http://www.w3.org/2000/svg" viewBox="0 0 131.11 44"><defs><style>.cls-1{fill:#fff;}</style></defs><path class="cls-1" d="M32.73,30.39l6.09,6.09,4.72-4.73-6.21-6.21h0a8.4,8.4,0,0,0-11.69.15l0,0a5.14,5.14,0,1,1,.1-7.45l0,0a8.39,8.39,0,0,0,11.59-.26A8.49,8.49,0,0,0,37.7,6.4l-.05-.05a22.13,22.13,0,0,0-31.3,31.3,22,22,0,0,0,30,.86l-4.43-4.44a.34.34,0,0,0-.52,0A15.29,15.29,0,1,1,22,6.71a14.87,14.87,0,0,1,10.83,4.42l0,.06a1.73,1.73,0,0,1-2.69,2.15l-.05,0a11.89,11.89,0,1,0,.17,17.18h0l0-.06A1.72,1.72,0,0,1,32.73,30.39Z"/><path class="cls-1" d="M53.71,29.2a.51.51,0,0,1-.15.17.38.38,0,0,1-.19.05.57.57,0,0,1-.24-.06l-.28-.15a1.6,1.6,0,0,0-.35-.15,1.29,1.29,0,0,0-.45-.08,1,1,0,0,0-.66.19.64.64,0,0,0-.22.51.49.49,0,0,0,.13.35,1.18,1.18,0,0,0,.35.23,3.74,3.74,0,0,0,.48.18l.56.18c.18.07.37.15.55.24a1.88,1.88,0,0,1,.48.34,1.69,1.69,0,0,1,.34.51,1.77,1.77,0,0,1,.13.73,2.55,2.55,0,0,1-.16.88,2,2,0,0,1-.48.71,2.25,2.25,0,0,1-.76.48,3,3,0,0,1-1,.17,3.55,3.55,0,0,1-.64-.06,4.32,4.32,0,0,1-.64-.19,4,4,0,0,1-.59-.28,2.13,2.13,0,0,1-.46-.37l.46-.73a.37.37,0,0,1,.15-.13.34.34,0,0,1,.2-.06.57.57,0,0,1,.29.09l.32.2a2.63,2.63,0,0,0,.41.19,1.55,1.55,0,0,0,.55.09,1.09,1.09,0,0,0,.67-.18.76.76,0,0,0,.24-.6.61.61,0,0,0-.13-.39.87.87,0,0,0-.34-.24,3.12,3.12,0,0,0-.49-.18l-.55-.16a3,3,0,0,1-.56-.23,1.82,1.82,0,0,1-.48-.34,1.6,1.6,0,0,1-.34-.55,2,2,0,0,1-.14-.79,1.78,1.78,0,0,1,.16-.75,1.9,1.9,0,0,1,.45-.65,2.19,2.19,0,0,1,.74-.45,2.74,2.74,0,0,1,1-.17,3.94,3.94,0,0,1,.6.05,4.32,4.32,0,0,1,.57.14l.49.23a2.55,2.55,0,0,1,.41.3Z"/><path class="cls-1" d="M61.05,34.61H59.46V31.74H56.7v2.87H55.12V27.82H56.7v2.84h2.76V27.82h1.59Z"/><path class="cls-1" d="M69,31.21a3.63,3.63,0,0,1-.25,1.37,3.28,3.28,0,0,1-.72,1.1,3.07,3.07,0,0,1-1.11.73,4,4,0,0,1-2.88,0A3.16,3.16,0,0,1,63,33.68a3.28,3.28,0,0,1-.72-1.1,3.88,3.88,0,0,1,0-2.74,3.18,3.18,0,0,1,.72-1.1A3.4,3.4,0,0,1,64.06,28a4,4,0,0,1,2.88,0,3.23,3.23,0,0,1,1.11.74,3.28,3.28,0,0,1,.72,1.1A3.58,3.58,0,0,1,69,31.21Zm-1.61,0a3.22,3.22,0,0,0-.13-.91,1.86,1.86,0,0,0-.37-.68,1.65,1.65,0,0,0-.61-.43,2,2,0,0,0-.8-.14,2.11,2.11,0,0,0-.82.14,1.54,1.54,0,0,0-.6.43,2.12,2.12,0,0,0-.37.68,2.9,2.9,0,0,0-.13.91,2.86,2.86,0,0,0,.13.91,2,2,0,0,0,.37.68,1.54,1.54,0,0,0,.6.43,2.07,2.07,0,0,0,.82.15,2,2,0,0,0,.8-.15,1.65,1.65,0,0,0,.61-.43,1.78,1.78,0,0,0,.37-.68A3.17,3.17,0,0,0,67.41,31.21Z"/><path class="cls-1" d="M71.52,32.34v2.27H69.94V27.82h2.4a4,4,0,0,1,1.23.17,2.46,2.46,0,0,1,.85.46,1.66,1.66,0,0,1,.49.71,2.25,2.25,0,0,1,.16.87,2.52,2.52,0,0,1-.16.93,2,2,0,0,1-.5.73,2.24,2.24,0,0,1-.85.47,3.71,3.71,0,0,1-1.22.17h-.82Zm0-1.19h.82a1.13,1.13,0,0,0,.88-.29,1.37,1.37,0,0,0,.2-1.25.72.72,0,0,0-.21-.33,1,1,0,0,0-.36-.21,1.3,1.3,0,0,0-.51-.08h-.82v2.16Z"/><path class="cls-1" d="M110.61,19.61h-3.88V10.32c0-.9-.44-1.36-1.23-1.36h-1.3v12.9h7.71v-1C111.91,20.16,111.63,19.61,110.61,19.61Z"/><path class="cls-1" d="M100.82,19.4V10.2c0-.9-.4-1.25-1.24-1.25H98.29V20.36a1.35,1.35,0,0,0,1.52,1.5h1V19.4Z"/><path class="cls-1" d="M93.22,10.21l-2.89,8-2.72-7.95A1.6,1.6,0,0,0,85.81,9H84.63v.45l4.18,11.46a1.43,1.43,0,0,0,1.39,1h1.34l4.54-12.5V9H95A1.58,1.58,0,0,0,93.22,10.21Z"/><path class="cls-1" d="M81.46,16.2a3.63,3.63,0,0,0,1.87-3.35,3.77,3.77,0,0,0-4-3.95h-4.6v.44s0,.61,0,2V21.82h2.53V17h1.19c.55,0,.62,0,.82.43l1.62,3.25a1.84,1.84,0,0,0,2,1.14H84v-.53Zm-4.22-1.5V11.18H79.1a1.53,1.53,0,0,1,1.65,1.73,1.58,1.58,0,0,1-1.67,1.79Z"/><path class="cls-1" d="M58.54,18.14A5,5,0,0,1,55,19.64a4.12,4.12,0,0,1-4-4.34A3.9,3.9,0,0,1,55,11.15a3.2,3.2,0,0,1,2.78,1.59L59.51,11a5.29,5.29,0,0,0-4.59-2.27,6.37,6.37,0,0,0-6.47,6.56A6.51,6.51,0,0,0,55,22.07a7,7,0,0,0,5.09-2.17l.21-.24-1.43-1.9Z"/><path class="cls-1" d="M129.8,19.61h-4.56V16.5h4.26V14.21h-4.26v-3h5.25V8.94h-7.77V21.86h8.39V20.81C131.11,20.16,130.81,19.61,129.8,19.61Z"/><path class="cls-1" d="M72.76,21.53c-.19-.46-.55-1.34-.81-2.07L68.45,10a1.41,1.41,0,0,0-1.38-1H65.72L61.81,19.55c-.16.41-.51,1.41-.7,1.95v.35h1.26a1.6,1.6,0,0,0,1.79-1.25L65,18.38h3.87l.8,2.22a1.61,1.61,0,0,0,1.8,1.26h1.31v-.33Zm-7.08-5.4L66.81,13a3.18,3.18,0,0,0,.09-.33c0,.11.08.23.11.34l1.12,3.13Z"/><path class="cls-1" d="M119.8,19.61h-3.88V10.32c0-.9-.45-1.36-1.24-1.36h-1.29v12.9h7.72v-1C121.1,20.16,120.81,19.61,119.8,19.61Z"/></svg>