<svg id="Layer_1" data-name="Layer 1" xmlns="http://www.w3.org/2000/svg" viewBox="0 0 130.25 25"><defs><style>.cls-1{fill:#fff;}</style></defs><path class="cls-1" d="M128.23,14a13.34,13.34,0,0,1-1,1.9c-.57.87-2,1.66-2.54.8a10.55,10.55,0,0,1-.63-1.33c-.76-2-2.15-3.38-4-3.19l-2.11.33a6,6,0,0,1,5.12-3c1.87-.07,1.51.88,1.48,1a1.21,1.21,0,0,0,1,1.53,1.92,1.92,0,0,0,1.74-3.28c-1.54-1.94-6.37-1.81-9.13,1.43l0,0,.79-2.3h-6.32l-2.38,6.94a2.16,2.16,0,0,1-1.09.44,5.15,5.15,0,0,0-.2-3.69,6.66,6.66,0,0,0-3.81-3.23A13.16,13.16,0,0,0,98,8.22a12.12,12.12,0,0,0-3,1.36A8.16,8.16,0,0,0,92.53,12a5.36,5.36,0,0,0-.93,3,4.71,4.71,0,0,0,.32,1.67c-.53.37-1.3.58-1.67,0a8.66,8.66,0,0,1-.63-1.32c-.77-2-2.2-3.3-4-3.19a16.65,16.65,0,0,0-2.55.34,6.63,6.63,0,0,1,5.08-3c1.62-.06,1.42,1,1.42,1A1.24,1.24,0,0,0,90.66,12c1.69.34,3.27-1.42,1.7-3.34C91,6.93,86.8,7,83.89,9.63l2.77-8H80.34L77.65,9.43c-1.85-2.26-7.13-2.51-8.71-1-2.07,2-.68,3.73.78,3.49a1.58,1.58,0,0,0,1.44-1.72c0-.59.88-.94,2.74-.78,2.44.2,2.92,2,2.76,2.86l0,0-1.34-.17c-4.25-.52-5.2,1-6.41,3.17A25.5,25.5,0,0,1,66,19.55c-3.13,3.63-6.32,3.33-6.32,3.33L59,24s1.43.8,5.25.31c4.06-.52,7.17-3.5,9.48-7.95,1-1.84,1.83-2.43,2.4-2.6l-2,6h6.32l2-5.93A3.78,3.78,0,0,1,84,16.58c.26,2,1.59,3.59,4.65,3.45A7.17,7.17,0,0,0,93,18.38a7.73,7.73,0,0,0,3.19,1.93,12.43,12.43,0,0,0,3.9.52,10.42,10.42,0,0,0,6.58-2.35,5,5,0,0,0,.85.38,3.25,3.25,0,0,0,1.25.13l-.27.78h6.32l2-5.94a3.79,3.79,0,0,1,1.54,2.75c.26,2,1.59,3.58,4.65,3.45,5.76-.26,7.2-6.05,7.2-6.05s-.72-.33-1.09-.48A.71.71,0,0,0,128.23,14Zm-26.09-1.51a3.71,3.71,0,0,0-.74,1.87,2.48,2.48,0,0,0,.28,1.41,2.36,2.36,0,0,0,.81.91,6.16,6.16,0,0,1-1.41,1.94,2.17,2.17,0,0,1-1.47.58c-1.1,0-1.35-2.44-1.12-4.08a10.81,10.81,0,0,1,.66-2.33c.76-2.14,2.31-3.35,3.37-3.36a1.06,1.06,0,0,1,.88.45,2.57,2.57,0,0,1,.38,1.47A3,3,0,0,0,102.14,12.44Z"/><path class="cls-1" d="M62.73,19.94a8,8,0,0,0,2-.25,8.89,8.89,0,0,0,2-2.06,8.36,8.36,0,0,0,1.06-1.72l-.55-.41,0,0c-1.12,1.17-2.4,1.31-2.25.36S67.7,8,67.7,8H61.44s-.84,2.64-1.71,4.73-2.35,3.91-3.57,3.68c-.6-.16-.23-1-.1-1.25S58.53,8,58.53,8H52.24s-.85,2.5-1.62,4.68l-1,.48A5.09,5.09,0,0,0,46.44,8.2a5.74,5.74,0,0,0-5.51.65s-.26.07-.14-.32c0,0,.76-3.34,2.37-5s3.41-1,2.72.35S42,6.06,42,6.06l-.19.8s2.54.77,6.74-.49,4.25-5.29,1.78-6C44-1.37,37.68,3.35,34.89,8.72a19.15,19.15,0,0,0-1.35,3.2l-.91.39a9.84,9.84,0,0,0-.2-7.37,6.74,6.74,0,0,0-2.94-2.81A13,13,0,0,0,25.83.88,36.54,36.54,0,0,0,13,.81,23,23,0,0,0,6.86,2.86a8.71,8.71,0,0,0-4.2,4.33A7.29,7.29,0,0,0,2.26,9,3.35,3.35,0,0,0,3,11.2a3,3,0,0,0,2.25,1,3.43,3.43,0,0,0,2-.4c1.16-.71,1.28-1.7.85-2a2.3,2.3,0,0,1-.6-.54C6.66,8,7.7,6.41,9.19,5.15,11,3.54,14.05,2,18.77,1.64c3.59-.22,7.88-.44,7.05,4.72a20.07,20.07,0,0,1-1.52,5.33,15,15,0,0,1-2.76,4,5.47,5.47,0,0,1-4.09,1.84,5.78,5.78,0,0,1-1.78-.3,6.27,6.27,0,0,0,.92-1.08,4.71,4.71,0,0,0,.63-1.27c.13-.35,1.53-4.43,2.14-6.23h0c1-3.24,2.9-4.52,3.56-4.78A3,3,0,0,1,24,3.66V2.94a17.05,17.05,0,0,0-6.86.15,8,8,0,0,0-6.45,5.76c-.63,1.89-1.49,4.34-2.09,6.05a7.2,7.2,0,0,0-1.41-.53,9.11,9.11,0,0,0-4.44-.13,4,4,0,0,0-2.07,1,2.28,2.28,0,0,0-.15,3.12,4.36,4.36,0,0,0,1.29,1.06,7.94,7.94,0,0,0,2,.67A17.17,17.17,0,0,0,9.79,20a21.24,21.24,0,0,0,3.82-1.28,28.48,28.48,0,0,0,4.14.95,26.26,26.26,0,0,0,3.14.08,17,17,0,0,0,6.86-1.79,1.19,1.19,0,0,0,.16-.08,20.64,20.64,0,0,0,5.18-3.61,5.29,5.29,0,0,0,1.17,4c1.87,2.34,8.69,2.95,12.35,0,.28-.22.54-.43.78-.66a26.56,26.56,0,0,0,2.38-2.44c-.6,2.1.38,4.9,3.17,4.82a8.6,8.6,0,0,0,6-2.81S59.12,19.92,62.73,19.94ZM6.31,17.59a4.6,4.6,0,0,1-1.66.59A4.11,4.11,0,0,1,2.3,18a.66.66,0,0,1-.37-.56c0-.88,1.64-1.24,2-1.29a8.86,8.86,0,0,1,3.84.4A6.16,6.16,0,0,1,6.31,17.59Zm34.88-.24a2.87,2.87,0,0,1-2.31,1.23c-1.28,0-1.63-2.31.69-6.31,2.07-3.57,3.76-1.95,3.89-1.31S43.61,14.21,41.19,17.35Z"/><path class="cls-1" d="M73.83,22.38l-.07.37a1.24,1.24,0,0,1,.72-.36.34.34,0,0,1,.35.36,1.57,1.57,0,0,1,0,.28l-.11.51a1.52,1.52,0,0,0,0,.27.16.16,0,0,0,.18.18A.78.78,0,0,0,75,24v.14a2,2,0,0,1-.55.12c-.16,0-.31-.07-.31-.24a1.18,1.18,0,0,1,0-.21l.13-.61a1.07,1.07,0,0,0,0-.23c0-.13-.06-.22-.18-.22s-.18,0-.46.24l-.23,1.25h-.45l.29-1.49-.31,0v-.13l.65-.15Z"/><path class="cls-1" d="M76.09,22.38l0,.25a1,1,0,0,1,.58-.24c.25,0,.51.17.51.65a1.26,1.26,0,0,1-.3.82,1,1,0,0,1-.75.35.79.79,0,0,1-.3-.06l-.11.64.35.06V25H75v-.15l.23-.06,0,0,.35-2.05-.28,0v-.13l.61-.14h.16Zm-.27,1.56a.68.68,0,0,0,.25.06.53.53,0,0,0,.43-.27,1.23,1.23,0,0,0,.17-.62c0-.18,0-.46-.29-.46a.71.71,0,0,0-.36.16Z"/><path class="cls-1" d="M79,22.59a.74.74,0,0,1,.2.55,1.06,1.06,0,0,1-1,1.09.7.7,0,0,1-.54-.22.78.78,0,0,1-.19-.54,1.05,1.05,0,0,1,1-1.09A.77.77,0,0,1,79,22.59Zm-1.1.93c0,.37.1.52.31.52a.42.42,0,0,0,.34-.21,1.35,1.35,0,0,0,.18-.72c0-.19,0-.53-.31-.53C78,22.58,77.92,23.37,77.92,23.52Z"/><path class="cls-1" d="M82.29,22.38a5.47,5.47,0,0,0-.12.56l-.11.6a1.55,1.55,0,0,0,0,.25.18.18,0,0,0,.18.2.93.93,0,0,0,.22,0v.14a2,2,0,0,1-.55.13.25.25,0,0,1-.28-.27v0a.94.94,0,0,1-.6.3c-.34,0-.51-.32-.51-.67a1.1,1.1,0,0,1,1-1.17,1.3,1.3,0,0,1,.41.08l.13-.08h.22Zm-.67.18h0c-.39,0-.64.39-.64.93,0,.34.11.43.27.43a.66.66,0,0,0,.38-.17l.17-1Z"/><path class="cls-1" d="M83.79,23.26c.29,0,.45.18.45.38s-.23.59-.89.59c-.42,0-.69-.19-.69-.59a2.06,2.06,0,0,1,.07-.46.94.94,0,0,1,1-.79c.25,0,.56.05.56.36a.44.44,0,0,1-.19.35,1.34,1.34,0,0,1-.34.16Zm-.67.45c0,.1,0,.33.29.33a.38.38,0,0,0,.39-.4.27.27,0,0,0-.29-.27,1.71,1.71,0,0,0-.36.06A1.14,1.14,0,0,0,83.12,23.71Zm.35-.51a.45.45,0,0,0,.41-.42.18.18,0,0,0-.2-.2.4.4,0,0,0-.26.1.87.87,0,0,0-.25.57Z"/><path class="cls-1" d="M85.42,22.38l-.07.36c.06,0,.21-.17.32-.23a.85.85,0,0,1,.4-.12.3.3,0,0,1,.33.34,1.36,1.36,0,0,1,.7-.34.34.34,0,0,1,.35.37,1.79,1.79,0,0,1,0,.23l-.12.55a1.93,1.93,0,0,0,0,.27.17.17,0,0,0,.18.18.68.68,0,0,0,.22,0v.14a1.65,1.65,0,0,1-.57.12.26.26,0,0,1-.29-.25,1,1,0,0,1,0-.2l.14-.65a1.92,1.92,0,0,0,0-.22.18.18,0,0,0-.18-.2.86.86,0,0,0-.44.23l-.22,1.27h-.44l.21-1.1s0-.15,0-.19a.19.19,0,0,0-.18-.21.78.78,0,0,0-.45.23l-.22,1.27h-.44L85,22.7l-.3-.05v-.12l.63-.15Z"/><path class="cls-1" d="M89.48,22.59a.74.74,0,0,1,.2.55,1.06,1.06,0,0,1-1,1.09A.71.71,0,0,1,88.1,24a.78.78,0,0,1-.19-.54,1.06,1.06,0,0,1,1-1.09A.77.77,0,0,1,89.48,22.59Zm-1.1.93c0,.37.1.52.31.52a.42.42,0,0,0,.34-.21,1.35,1.35,0,0,0,.18-.72c0-.19,0-.53-.31-.53C88.42,22.58,88.38,23.37,88.38,23.52Z"/><path class="cls-1" d="M91.1,22.38a7.47,7.47,0,0,1,.13,1.32h0l.7-1.25.47-.05-.23,1.14a1.09,1.09,0,0,0,0,.27c0,.08,0,.18.18.18a.65.65,0,0,0,.21,0v.14a1.37,1.37,0,0,1-.52.13c-.17,0-.3-.09-.3-.25a1.18,1.18,0,0,1,0-.21l.2-.93h0l-.76,1.37H90.9a10,10,0,0,0-.09-1.37h0a6.49,6.49,0,0,1-.2.75c-.07.2-.22.64-.58.64a.25.25,0,0,1-.26-.24A.35.35,0,0,1,90,23.7l.16.22a2.48,2.48,0,0,0,.46-1.21l-.3-.06v-.13l.62-.13h.17Z"/><path class="cls-1" d="M94.34,22.59a.79.79,0,0,1,.2.55,1.07,1.07,0,0,1-1,1.09A.7.7,0,0,1,93,24a.78.78,0,0,1-.19-.54,1,1,0,0,1,1-1.09A.77.77,0,0,1,94.34,22.59Zm-1.1.93c0,.37.09.52.31.52a.41.41,0,0,0,.33-.21,1.36,1.36,0,0,0,.19-.72c0-.19,0-.53-.32-.53C93.28,22.58,93.24,23.37,93.24,23.52Z"/><path class="cls-1" d="M96.84,21.45a.64.64,0,0,1-.56.55L96,22a.7.7,0,0,0-.7.73h0a.7.7,0,0,1,.64-.38.76.76,0,0,1,.53.2.81.81,0,0,1,.19.55,1,1,0,0,1-1,1.09.76.76,0,0,1-.74-.84,2.55,2.55,0,0,1,.29-1.15,1.08,1.08,0,0,1,.87-.6l.36-.05a.34.34,0,0,0,.3-.14Zm-1.51,2.07a1.09,1.09,0,0,0,.07.38.3.3,0,0,0,.24.14.42.42,0,0,0,.34-.21,1.35,1.35,0,0,0,.18-.72c0-.19,0-.53-.32-.53S95.33,23.14,95.33,23.52Z"/><path class="cls-1" d="M97.77,22.4l-.21,1.1a1.92,1.92,0,0,0,0,.22.18.18,0,0,0,.18.2,1.16,1.16,0,0,0,.45-.18l.25-1.29.43-.05-.21,1.14a1.51,1.51,0,0,0,0,.26.17.17,0,0,0,.18.19A.79.79,0,0,0,99,24v.14l-.3.08a1.45,1.45,0,0,1-.29,0c-.18,0-.26-.11-.26-.28v0a1.3,1.3,0,0,1-.7.32.33.33,0,0,1-.36-.37,1.36,1.36,0,0,1,0-.21l.18-.95-.3-.05v-.12l.64-.13Z"/><path class="cls-1" d="M101,22.43l-.25,1.11a2.3,2.3,0,0,0,0,.27.16.16,0,0,0,.18.18.72.72,0,0,0,.22,0v.14a2,2,0,0,1-.55.12c-.16,0-.3-.07-.3-.24a1.05,1.05,0,0,1,0-.21l.25-1.12h-.35a6.83,6.83,0,0,1-.28.93c-.12.31-.32.65-.66.65A.26.26,0,0,1,99,24a.35.35,0,0,1,.24-.28l.16.21a1,1,0,0,0,.33-.51,3.43,3.43,0,0,0,.21-.72l-.3-.12v-.13Z"/><path class="cls-1" d="M102.13,22.4l-.21,1.1a1.92,1.92,0,0,0,0,.22.18.18,0,0,0,.19.2,1.12,1.12,0,0,0,.44-.18l.25-1.29.44-.05L103,23.54a1.51,1.51,0,0,0,0,.26.17.17,0,0,0,.18.19.79.79,0,0,0,.22,0v.14a1.6,1.6,0,0,1-.3.08,1.35,1.35,0,0,1-.28,0,.25.25,0,0,1-.27-.28v0a1.26,1.26,0,0,1-.7.32.33.33,0,0,1-.36-.37,1.33,1.33,0,0,1,0-.21l.17-.95-.29-.05v-.12l.64-.13Z"/><path class="cls-1" d="M105.65,23.26c.29,0,.46.18.46.38s-.23.59-.9.59c-.41,0-.68-.19-.68-.59a2.77,2.77,0,0,1,.06-.46,1,1,0,0,1,1-.79c.25,0,.56.05.56.36a.44.44,0,0,1-.19.35,1.07,1.07,0,0,1-.33.16h0Zm-.67.45c0,.1,0,.33.29.33a.38.38,0,0,0,.4-.4.28.28,0,0,0-.3-.27,1.81,1.81,0,0,0-.36.06A2,2,0,0,0,105,23.71Zm.36-.51a.44.44,0,0,0,.4-.42c0-.1,0-.2-.19-.2a.38.38,0,0,0-.26.1c-.09.06-.19.21-.25.57Z"/><path class="cls-1" d="M108.49,21.47a1.37,1.37,0,0,1,.69,1.34c0,.64-.3,1.42-1.07,1.42a.66.66,0,0,1-.7-.73,1.16,1.16,0,0,1,.33-.83,1,1,0,0,1,.68-.29,1.31,1.31,0,0,1,.27,0,1,1,0,0,0-.46-.67l-.3,0v-.12Zm0,1.09a.49.49,0,0,0-.45.33,1.65,1.65,0,0,0-.13.63c0,.44.15.52.29.52s.28-.06.4-.35a2.26,2.26,0,0,0,.15-.85,1.62,1.62,0,0,0,0-.22A.62.62,0,0,0,108.46,22.56Z"/><path class="cls-1" d="M110.87,23.92a1.29,1.29,0,0,1-.76.31.62.62,0,0,1-.64-.7,1.13,1.13,0,0,1,1.06-1.14c.29,0,.45.14.45.4,0,.48-.61.57-.93.57h-.13a.61.61,0,0,0,0,.14c0,.29.16.44.38.44a1,1,0,0,0,.59-.25Zm-.41-.88a.38.38,0,0,0,.15-.28.17.17,0,0,0-.18-.19c-.07,0-.2,0-.32.23a1.16,1.16,0,0,0-.16.41A1,1,0,0,0,110.46,23Z"/><path class="cls-1" d="M112,22.38l-.07.36a3,3,0,0,1,.33-.23.81.81,0,0,1,.4-.12.31.31,0,0,1,.33.34,1.28,1.28,0,0,1,.7-.34.33.33,0,0,1,.34.37.9.9,0,0,1,0,.23l-.12.55a1.93,1.93,0,0,0,0,.27.17.17,0,0,0,.18.18.68.68,0,0,0,.22,0v.14a1.65,1.65,0,0,1-.57.12.26.26,0,0,1-.29-.25c0-.05,0-.11,0-.2l.14-.65a1.92,1.92,0,0,0,0-.22.18.18,0,0,0-.18-.2.86.86,0,0,0-.44.23l-.22,1.27h-.44l.21-1.1a1.23,1.23,0,0,0,0-.19c0-.13-.07-.21-.17-.21a.75.75,0,0,0-.45.23l-.23,1.27h-.44l.29-1.49-.3-.05v-.12l.62-.15Z"/><path class="cls-1" d="M116.35,22.38a4.36,4.36,0,0,0-.13.56l-.1.6a1.55,1.55,0,0,0,0,.25.18.18,0,0,0,.17.2.93.93,0,0,0,.23,0v.14a2,2,0,0,1-.55.13.26.26,0,0,1-.28-.27v0a.94.94,0,0,1-.6.3c-.34,0-.51-.32-.51-.67a1.1,1.1,0,0,1,1-1.17,1.3,1.3,0,0,1,.42.08l.13-.08h.22Zm-.67.18h0c-.39,0-.64.39-.64.93,0,.34.11.43.27.43a.6.6,0,0,0,.37-.17l.17-1Z"/><path class="cls-1" d="M118.46,22.43l-.25,1.11a2.3,2.3,0,0,0,0,.27c0,.08,0,.18.19.18a.71.71,0,0,0,.21,0v.14a2,2,0,0,1-.55.12c-.16,0-.3-.07-.3-.24a1.05,1.05,0,0,1,0-.21l.25-1.12h-.35a6.83,6.83,0,0,1-.28.93c-.13.31-.32.65-.66.65a.25.25,0,0,1-.26-.24.35.35,0,0,1,.23-.28l.17.21a1.12,1.12,0,0,0,.33-.51,3.43,3.43,0,0,0,.21-.72l-.3-.12v-.13Z"/><path class="cls-1" d="M120.34,23.54a1.09,1.09,0,0,0,0,.27.16.16,0,0,0,.18.18.65.65,0,0,0,.21,0v.14a1.93,1.93,0,0,1-.54.12c-.16,0-.3-.07-.3-.24a1.25,1.25,0,0,1,0-.21l.08-.33h-.17a.32.32,0,0,0-.29.2l-.1.19a.63.63,0,0,1-.53.39.25.25,0,0,1-.26-.24.34.34,0,0,1,.23-.27l.16.21a.7.7,0,0,0,.21-.21l.07-.12a.36.36,0,0,1,.15-.18c-.32,0-.39-.23-.39-.41a.56.56,0,0,1,.24-.46,1,1,0,0,1,.56-.14,7.35,7.35,0,0,1,.74,0Zm-.23-.93a.93.93,0,0,0-.24,0,.38.38,0,0,0-.4.4c0,.18.14.27.32.27H120Z"/><path class="cls-1" d="M121.46,22.38h0c.13,0,.24,0,.39.66,0-.11.3-.63.64-.63a.22.22,0,0,1,.23.23.29.29,0,0,1-.24.28l-.14-.19a1,1,0,0,0-.41.49l.1.34c0,.1.09.44.36.44l.2,0v.15a1.56,1.56,0,0,1-.49.1c-.23,0-.36-.07-.49-.68-.17.31-.4.66-.65.66a.25.25,0,0,1-.26-.24c0-.15.1-.22.23-.26l.17.2a1.62,1.62,0,0,0,.42-.54c-.1-.32-.12-.38-.18-.53s0-.09-.07-.13l-.34,0v-.12Z"/></svg>