<svg width="38" height="38" viewBox="0 0 38 38" fill="none" xmlns="http://www.w3.org/2000/svg">
<path d="M0 3.00012C0 1.34327 1.34315 0.00012207 3 0.00012207H35C36.6569 0.00012207 38 1.34327 38 3.00012V35.0001C38 36.657 36.6569 38.0001 35 38.0001H3C1.34315 38.0001 0 36.657 0 35.0001V3.00012Z" fill="#4982C0"/>
<path d="M32.0508 12.2423C31.9492 12.7501 31.543 13.6134 30.832 14.7814C30.3242 15.6447 29.7148 16.6095 29.0039 17.7267C28.3945 18.6407 28.0391 19.0978 28.0391 19.0978C27.8359 19.4025 27.7344 19.6564 27.7344 19.8087C27.7344 20.0118 27.8359 20.215 28.0391 20.4181L28.4961 20.9259C30.9336 23.465 32.3047 25.1915 32.6094 26.1056C32.7109 26.5118 32.6602 26.8673 32.457 27.0704C32.2539 27.2736 32 27.3751 31.5938 27.3751H28.5977C28.1914 27.3751 27.8867 27.2736 27.582 27.0197C27.3789 26.9181 26.9727 26.5626 26.4648 25.9532C25.957 25.3439 25.5 24.8361 25.0938 24.4298C23.7227 23.1603 22.707 22.5001 22.0977 22.5001C21.793 22.5001 21.5898 22.5509 21.4883 22.6525C21.3867 22.754 21.3359 23.0079 21.3359 23.3126C21.2852 23.5665 21.2852 24.0743 21.2852 24.8868V26.2072C21.2852 26.6134 21.1836 26.9181 20.9805 27.0704C20.6758 27.2736 20.0664 27.3751 19.1523 27.3751C17.5273 27.3751 15.9531 26.9181 14.3281 25.9532C12.7031 25.0392 11.2812 23.6681 10.0625 21.8907C8.89453 20.3673 7.92969 18.7931 7.16797 17.1681C6.55859 15.9493 6.05078 14.8322 5.69531 13.7657C5.44141 12.9532 5.33984 12.3439 5.33984 11.9884C5.33984 11.4298 5.64453 11.1251 6.35547 11.1251H9.35156C9.70703 11.1251 9.96094 11.2267 10.1641 11.379C10.3672 11.5822 10.5195 11.8868 10.6719 12.2931C11.1289 13.6642 11.6875 14.9845 12.3984 16.254C13.0078 17.4728 13.6172 18.4376 14.2266 19.1486C14.8359 19.9103 15.293 20.2657 15.6484 20.2657C15.8516 20.2657 15.9531 20.215 16.0547 20.0626C16.1562 19.9103 16.207 19.6056 16.207 19.1486V14.7306C16.1562 14.2228 16.0547 13.715 15.8516 13.3087C15.75 13.1056 15.5469 12.8517 15.3438 12.547C15.0898 12.2423 14.9883 12.0392 14.9883 11.8361C14.9883 11.6329 15.0391 11.4806 15.1914 11.3282C15.3438 11.2267 15.5469 11.1251 15.75 11.1251H20.4727C20.7773 11.1251 20.9805 11.2267 21.082 11.379C21.1836 11.5822 21.2852 11.8361 21.2852 12.2423V18.1329C21.2852 18.4376 21.3359 18.6915 21.4375 18.7931C21.5391 18.9454 21.6406 18.9962 21.793 18.9962C21.9453 18.9962 22.1484 18.9454 22.3516 18.8439C22.5547 18.7423 22.8086 18.4884 23.1641 18.0822C23.7734 17.3712 24.4336 16.5079 25.0938 15.4415C25.5 14.7306 25.957 13.9181 26.3633 13.004L26.8711 11.9884C27.0742 11.4298 27.5312 11.1251 28.1406 11.1251H31.1367C31.9492 11.1251 32.2539 11.5314 32.0508 12.2423Z" fill="white"/>
</svg>
