<svg width="38" height="38" viewBox="0 0 38 38" fill="none" xmlns="http://www.w3.org/2000/svg">
<path d="M0 3.00012C0 1.34327 1.34315 0.00012207 3 0.00012207H35C36.6569 0.00012207 38 1.34327 38 3.00012V35.0001C38 36.657 36.6569 38.0001 35 38.0001H3C1.34315 38.0001 0 36.657 0 35.0001V3.00012Z" fill="#3D5B96"/>
<path d="M16.4219 31.0001H20.8281V20.2657H24.25L24.8125 16.0001H20.8281V13.047C20.8281 12.3907 20.9219 11.8751 21.2031 11.547C21.4844 11.172 22.0938 10.9845 22.9375 10.9845H25.1875V7.18762C24.3438 7.09387 23.2188 7.00012 21.9062 7.00012C20.2188 7.00012 18.9062 7.51575 17.9219 8.50012C16.8906 9.4845 16.4219 10.8439 16.4219 12.6251V16.0001H12.8125V20.2657H16.4219V31.0001Z" fill="white"/>
</svg>
