<svg width="38" height="38" viewBox="0 0 38 38" fill="none" xmlns="http://www.w3.org/2000/svg">
<path d="M0 3.00012C0 1.34327 1.34315 0.00012207 3 0.00012207H35C36.6569 0.00012207 38 1.34327 38 3.00012V35.0001C38 36.657 36.6569 38.0001 35 38.0001H3C1.34315 38.0001 0 36.657 0 35.0001V3.00012Z" fill="#67AADA"/>
<path d="M30.3242 11.2775C30.4258 10.5665 30.375 10.1095 30.0703 9.80481C29.7656 9.50012 29.3594 9.44934 28.8516 9.60168L8.69141 17.3712C7.98047 17.6759 7.625 17.9806 7.625 18.2853C7.57422 18.6407 7.82812 18.8947 8.4375 19.047L13.6172 20.672L25.6016 13.1056C25.7539 13.004 25.9062 12.9532 26.0586 12.9532C26.2109 12.9532 26.3125 12.9532 26.3633 13.0548C26.4141 13.1564 26.3633 13.2072 26.2617 13.3087L16.5625 22.0939L16.1562 27.4259C16.4102 27.4259 16.6133 27.3751 16.8164 27.2736C16.918 27.2228 17.0195 27.1212 17.2227 26.9181L19.7617 24.4806L24.9922 28.34C25.4492 28.6447 25.8555 28.6954 26.1602 28.5431C26.4648 28.3907 26.7188 28.0353 26.8711 27.4259L30.3242 11.2775Z" fill="white"/>
</svg>
