<svg width="38" height="38" viewBox="0 0 38 38" fill="none" xmlns="http://www.w3.org/2000/svg">
<path d="M0 3.00012C0 1.34327 1.34315 0.00012207 3 0.00012207H35C36.6569 0.00012207 38 1.34327 38 3.00012V35.0001C38 36.657 36.6569 38.0001 35 38.0001H3C1.34315 38.0001 0 36.657 0 35.0001V3.00012Z" fill="#68BB5A"/>
<path d="M26.9727 11.1759C28.0391 12.2931 28.8516 13.5118 29.4609 14.8829C30.0703 16.254 30.375 17.6759 30.375 19.1486C30.375 21.1798 29.8164 23.0587 28.8008 24.7853C27.7852 26.5118 26.3633 27.8829 24.6367 28.8986C22.9102 29.9142 21.0312 30.422 19 30.422C17.0703 30.422 15.2422 29.965 13.6172 29.0509L7.625 30.6251L9.25 24.7853C8.23438 23.0587 7.72656 21.1798 7.72656 19.1486C7.72656 17.1173 8.23438 15.2384 9.25 13.5118C10.2656 11.7853 11.6367 10.4142 13.3633 9.39856C15.0898 8.38293 16.9688 7.87512 19 7.87512C20.4727 7.87512 21.8945 8.17981 23.2656 8.7384C24.6367 9.34778 25.8555 10.1603 26.9727 11.1759ZM19 28.5431C20.6758 28.5431 22.25 28.1368 23.7227 27.2736C25.1445 26.4611 26.3125 25.2931 27.1758 23.8712C28.0391 22.4493 28.4961 20.8751 28.4961 19.1486C28.4961 17.9298 28.2422 16.7618 27.7344 15.5939C27.2266 14.4767 26.5156 13.4611 25.6016 12.547C24.6875 11.6329 23.6719 10.9728 22.5547 10.465C21.4375 10.0079 20.2188 9.75403 19 9.75403C17.2734 9.75403 15.6992 10.2111 14.2773 11.0236C12.8555 11.8868 11.6875 13.0548 10.875 14.4767C10.0117 15.8986 9.60547 17.4728 9.60547 19.1486C9.60547 20.9767 10.0625 22.6017 11.0781 24.1251L11.2812 24.4806L10.3164 27.9337L13.8711 27.0197L14.2266 27.2228C15.6484 28.1368 17.2734 28.5431 19 28.5431ZM24.1289 21.4845L24.2812 21.5861C24.4844 21.6876 24.6367 21.7892 24.6875 21.84C24.6875 21.9415 24.6875 22.0939 24.6875 22.3478C24.6875 22.6525 24.5859 22.9064 24.4844 23.2111C24.3828 23.5157 24.0781 23.7697 23.6719 24.0743C23.2656 24.379 22.9102 24.5314 22.6055 24.5314C22.0977 24.6329 21.6406 24.6329 21.2344 24.5314C20.7266 24.4298 20.0156 24.2267 19.2031 23.8204C17.4766 23.1095 15.9023 21.6876 14.4805 19.6564L14.3789 19.5548C13.6172 18.5392 13.2617 17.5743 13.2617 16.6603C13.2617 15.797 13.5664 15.0353 14.1758 14.3751L14.2266 14.3243C14.4297 14.1212 14.6836 13.9689 14.9883 13.9689H15.5977C15.6992 13.9689 15.8008 14.0197 15.9023 14.0704C16.0039 14.1212 16.0547 14.2228 16.1562 14.4259L17.0195 16.5079C17.1211 16.7111 17.1211 16.9142 17.0703 17.0157C16.8672 17.3712 16.6641 17.6759 16.4102 17.9298C16.2578 18.0822 16.1562 18.1837 16.1562 18.2853C16.1055 18.3868 16.1562 18.4376 16.2578 18.5392C16.7148 19.4532 17.2734 20.1134 17.9336 20.6212C18.3906 21.0275 19.1016 21.4337 20.0664 21.8907C20.3203 22.0431 20.5234 22.0431 20.6758 21.84C21.082 21.3322 21.3867 20.9767 21.5898 20.7228C21.6406 20.6212 21.7422 20.5197 21.8438 20.5197C21.9453 20.5197 22.0469 20.5704 22.1992 20.5704C22.4531 20.672 23.1133 20.9767 24.1289 21.4845Z" fill="white"/>
</svg>
