<svg id="Layer_1" data-name="Layer 1" xmlns="http://www.w3.org/2000/svg" viewBox="0 0 151.25 45"><defs><style>.cls-1{fill:#fff;}</style></defs><path class="cls-1" d="M95.68,19.73a1.33,1.33,0,0,0,.83.83v.54H93.4a1.69,1.69,0,0,1-1.59-1.69v-2.2h17.42s0,.14,0,.76a2.46,2.46,0,0,1-1.37,2c-.51.33-8,5-10.17,6.34a.3.3,0,0,0-.18.33h7.38s0-.6,0-.76a1,1,0,0,0-.85-1v-.54h3.11A1.68,1.68,0,0,1,108.74,26v2.2H91.46v-.76a2.45,2.45,0,0,1,1.36-2l9.94-6.23c.37-.23.25-.44.25-.44H95.64S95.66,19.62,95.68,19.73Zm52.7-2.51a1.88,1.88,0,0,1,2,2.12v2.71c0,1.18-.92,1.7-2.16,1.7h-.56a1.45,1.45,0,0,1,.78.52c.41.57,1.33,2.06,1.84,2.72a1.23,1.23,0,0,0,1,.48v.73h-3.76a2.92,2.92,0,0,1-2.65-1.53c-.43-.71-1.15-1.83-1.5-2.41a1.28,1.28,0,0,0-.93-.51h-4.62v4.82h-2.85a1.8,1.8,0,0,1-1.75-2V18.94a1.29,1.29,0,0,0-.87-1.18v-.54Zm-2.62,4.91V19.36a.48.48,0,0,0-.55-.52h-7.43v3.29Zm-33.15-3.19a1.29,1.29,0,0,0-.88-1.18v-.54h16.39a1.88,1.88,0,0,1,2,2.12v8.87h-4.59V23.76h-8.3v4.82h-2.85a1.79,1.79,0,0,1-1.74-2Zm4.6,3.2h8.29V19.37a.48.48,0,0,0-.54-.53h-7.2a.48.48,0,0,0-.54.53v2.77Zm-43.6-4.91a1.73,1.73,0,0,1,1.8,1.84V26a.63.63,0,0,0,.67.72h7.29V18.94a1.29,1.29,0,0,0-.88-1.18v-.54H88V28.27H72.42a1.75,1.75,0,0,1-1.81-1.93v-7.2a1.29,1.29,0,0,0-.83-1.34v-.58Zm-20,0a1.72,1.72,0,0,1,1.79,1.84v6.84c0,.59.14.77.62.77H64.2v-1a1.29,1.29,0,0,0-.87-1.18V24h3a1.69,1.69,0,0,1,1.69,1.91v2.38H52.43a1.75,1.75,0,0,1-1.81-1.93V19.14a1.29,1.29,0,0,0-.83-1.34v-.58Z"/><path class="cls-1" d="M22.51,16.45a.4.4,0,0,0,.35.39c.17,0,.29-.17.28-.39l0-.13a1.36,1.36,0,0,1-.34,0,1,1,0,0,1-.23-.07A.47.47,0,0,0,22.51,16.45Zm4.83,8.21a10.19,10.19,0,0,1,1.57,2.43,2.5,2.5,0,0,1,0,1.64c-.18.62-.43,1.46.16,1.64s.84-.52.95-1.07a3.34,3.34,0,0,1,1.07-1.57c.37-.25.27-1.28-.34-1.53a4.23,4.23,0,0,1-2-1.32c-.48-.7-.68-1.25-1.2-1.18S27,24.25,27.34,24.66Zm-4.89-.17a4.78,4.78,0,0,1,2.89,2.3c.82,1.48.89,1.76,1.32,1.62s.21-1-.2-1.89a25,25,0,0,0-1.09-2.39,1.49,1.49,0,0,0-1.6-.76,7.47,7.47,0,0,1-1.5.07C21.79,23.42,21.68,24.29,22.45,24.49ZM9.93,24.26c-.43-.05-.5.06-.55.63a6.18,6.18,0,0,0,.18.84c.16.48.48.94.14.89a4.74,4.74,0,0,1-2-1.71,3.74,3.74,0,0,1-.44-2.71c0-.34.3-.45,0-1.18a4.59,4.59,0,0,1-.37-2.23c0-.69.78-1.16.89-1.62A1.59,1.59,0,0,1,8.53,16c.55-.27,1.16-1,1.76-1.32a14.05,14.05,0,0,0,2.07-1.3c.34-.34.91-.66.8-1.07s-.37-.88.11-.88a1.54,1.54,0,0,0,1.23-.46,3.84,3.84,0,0,1,1.89-1.41c1.16-.34,1.73-1.18,3.3-1.26s2.53,0,3.55,0A13.34,13.34,0,0,0,26,8c.93-.19,1.18-.6,2-1a6.14,6.14,0,0,1,2.51-.5c.52,0,.77.18.57.54a6.48,6.48,0,0,0-.68,1.37c-.12.45.48.61.48.79S30.34,9.17,30,9s-.59-.62-.48-.84S30.59,7.35,30.55,7s-.52-.13-1.14.07a1.31,1.31,0,0,0-.84,1.44c.05.63.57.77.48,1s-.82-.16-1.55-.39a27.7,27.7,0,0,0-4.44-.32,19.57,19.57,0,0,0-4.17.32A5.71,5.71,0,0,0,15.57,11c-.5.82-1,.73-1.59.73-.27,0-.3.11-.25.26a1.75,1.75,0,0,0,1.27.56c.45,0,.58.14.5.39s-.26.35-1.14.45l-.29,0c-.55.13-.15.36-.15.5s-.41.23-.62.21a1.35,1.35,0,0,0-.69.12.22.22,0,0,0-.09.07c-.16.19-.11.35-.32.47a3.14,3.14,0,0,1-1.09.14,4.27,4.27,0,0,0-.8.3c-.5.3-.59.75.09,1a1.91,1.91,0,0,0,1.87-.18,4.05,4.05,0,0,1,.35-.21c.26-.32.23-.4.08-.63s0-.46.55-.39.95.43,1.22.32,0-.27.09-.5.64-.12,1.16,0,.72.3,1.49.44c.42,0,.78,0,1,0,.5-.05,1-.07,1-.32s-.57-.41-.37-.7,1-.32,1.42-.19c1,.35.6,1.13,1.89,1.3s2.14-.14,3.16,0a7.26,7.26,0,0,1,2.21.56c.43.25.34.67,0,.78s-.77-.19-1.34-.25a1.69,1.69,0,0,0-.67,0,2,2,0,0,1-1.71,1.24c-1.37,0-1.63-.77-1.61-1.57a.32.32,0,0,0-.57.1A1.48,1.48,0,0,0,22,17.19a2.79,2.79,0,0,1,.46.44c.3.37,0,.94-.43.46a5.35,5.35,0,0,0-2.33-1.5,13.69,13.69,0,0,0-4.07-.51,2.3,2.3,0,0,0-.92.47c-.37.36-.5.85-1,1.47-.8.91-2.07.75-3.15.93S9.1,19.92,9.39,21A2.89,2.89,0,0,0,10,22.22c1.16.93,2.6,1.45,2.91,1A.43.43,0,0,0,13,23c-.11-.49-.88-2.35.62-3A13.1,13.1,0,0,1,17,19.09a21,21,0,0,1,3.87-.59c.82.05,1.46.36,1.87.18s1.09,0,1.37-.18a2.9,2.9,0,0,1,1.95-.45c1.33,0,2.83.31,3.24-.09s-.14-.37-.69-.46-.59-.86.46-1.14.72-1.23-.27-1.23a17.86,17.86,0,0,1-3.19-.64c-1.41-.27-1.1-.54-2.23-.59s-.73-.86.86-.86a9.11,9.11,0,0,0,4.65-.82c1.46-.82,1.23-1.73,1.55-2.32a2.05,2.05,0,0,1,2-.78,14.87,14.87,0,0,0,4.74-.23,11.2,11.2,0,0,0,3.19-1c.72-.37,1.27-.6,1.14.27A3.74,3.74,0,0,1,40,10.54l-.25.22-.16.13-2.06,1.8c-.57.5-.33,2.87,3.72,4.44,1.46.57,2-.19,2.37,3.37a1.55,1.55,0,0,0,.05.23,20.61,20.61,0,0,1,.13,2.36A21.9,21.9,0,1,1,21.91,1.21s1.46,0,2.05,0C25.79,1.22,26.08,0,26.08,0l.8.11a7.8,7.8,0,0,1,0,2,5,5,0,0,1-5.29,4.41h-.43a18,18,0,0,0-.19,36.07,5.83,5.83,0,0,0,3.51-1.5,2.2,2.2,0,0,0,.37-2.83A1.83,1.83,0,0,0,23,37.55a23.94,23.94,0,0,0-2.42,2.77,2.28,2.28,0,0,1-2.28,1,6.61,6.61,0,0,1-3-1.42c-.5-.55-.68-.77-1.5-1.73s-1.5-2.92-1.27-3.33.5-.41,1.55.37,1.13.68,1.41,0-.34-.41.06-1.41-.13-2.78-.13-3.73a7.74,7.74,0,0,0-.11-1.29c0-.94,1.06-1.37,1.57-1.44a.24.24,0,0,1,.26.14,18.18,18.18,0,0,1-.36,5.19,5.53,5.53,0,0,0-.2,2.37c-.05.83-.46,1-.78,1.32s-.09,1,.37,1.13,2,.87,1.73.42a4.6,4.6,0,0,1-.52-1.8c0-.59.45-.46,1.23.22s1.57,0,2.3-.11c.19,0,.56-.25.56-.87,0-.26.52-.74.81-.68s.68-.53,1.06-1c1.4-1.58,1.09-2.18,0-4.69a4.5,4.5,0,0,0-3-2.46,6.88,6.88,0,0,0-3.69-.21.86.86,0,0,0-.41.06,2.42,2.42,0,0,0-1.41,2.06,14.44,14.44,0,0,0-.18,1.64c-.05.69-.5.59-.92-.27a8.94,8.94,0,0,1-.63-3.41c0-.87-.5-.87-1.14-1.19s-1,0-1.09-.55S10.26,24.52,9.93,24.26Zm-1.3-3.39C8.55,20.48,8.5,19.43,8,19s-.89-.35-.84.37.15,1.21.64,1.53S8.71,21.26,8.63,20.87Zm-.37-4.25a.72.72,0,0,0,0,.66c.16.37.36.17.55.48s0,.62.18.8.41-.09.5-.36.7-.09,1.18.09.76-.12.73-.69-.5-1-1.3-1.22S8.61,16.08,8.26,16.62Zm21.42,3.52a1.82,1.82,0,0,1,.65-.21c.86-.09,2.14,0,2.09-1v-.11c-.21-.25-.74-.37-1.64-.17a15.24,15.24,0,0,1-4.46.55c-1.78,0-2.6-.13-3.6.5s-4.23.91-5.6,1.51-.64,1.32.45,1.32A73.69,73.69,0,0,0,26,21C27.63,20.6,28.84,20.3,29.68,20.14Z"/></svg>