<svg id="Layer_1" data-name="Layer 1" xmlns="http://www.w3.org/2000/svg" viewBox="0 0 46 37"><defs><style>.cls-1{fill:#9a9a9a;}</style></defs><path class="cls-1" d="M11.19.5H1.06a.55.55,0,0,0-.56.56V11.75a.52.52,0,0,0,.56.56H2.19a.55.55,0,0,0,.56-.56v-9h8.44a.55.55,0,0,0,.56-.56V1.06A.6.6,0,0,0,11.19.5Zm0,33.75H2.75v-9a.6.6,0,0,0-.56-.56H1.06a.55.55,0,0,0-.56.56V35.94a.52.52,0,0,0,.56.56H11.19a.55.55,0,0,0,.56-.56V34.81A.6.6,0,0,0,11.19,34.25ZM44.94.5H34.81a.55.55,0,0,0-.56.56V2.19a.52.52,0,0,0,.56.56h8.44v9a.52.52,0,0,0,.56.56h1.13a.55.55,0,0,0,.56-.56V1.06A.6.6,0,0,0,44.94.5Zm0,24.19H43.81a.55.55,0,0,0-.56.56v9H34.81a.55.55,0,0,0-.56.56v1.13a.52.52,0,0,0,.56.56H44.94a.55.55,0,0,0,.56-.56V25.25A.6.6,0,0,0,44.94,24.69ZM11.19,7.25H7.81a.55.55,0,0,0-.56.56V29.19a.52.52,0,0,0,.56.56h3.38a.55.55,0,0,0,.56-.56V7.81A.6.6,0,0,0,11.19,7.25Zm23.62,22.5h3.38a.55.55,0,0,0,.56-.56V7.81a.6.6,0,0,0-.56-.56H34.81a.55.55,0,0,0-.56.56V29.19A.52.52,0,0,0,34.81,29.75ZM29.19,7.25H25.81a.55.55,0,0,0-.56.56V29.19a.52.52,0,0,0,.56.56h3.38a.55.55,0,0,0,.56-.56V7.81A.6.6,0,0,0,29.19,7.25Zm-13.5,0H14.56a.55.55,0,0,0-.56.56V29.19a.52.52,0,0,0,.56.56h1.13a.55.55,0,0,0,.56-.56V7.81A.6.6,0,0,0,15.69,7.25Zm4.5,0H19.06a.55.55,0,0,0-.56.56V29.19a.52.52,0,0,0,.56.56h1.13a.55.55,0,0,0,.56-.56V7.81A.6.6,0,0,0,20.19,7.25Z"/></svg>