<svg id="Layer_1" data-name="Layer 1" xmlns="http://www.w3.org/2000/svg" viewBox="0 0 44.99 36.02"><defs><style>.cls-1{fill:#9a9a9a;}</style></defs><path class="cls-1" d="M44.82,14.33l-.56-1A1.05,1.05,0,0,0,42.78,13L36,16.93a4,4,0,0,0-3.87-3.44H21.41V18a2.27,2.27,0,0,1-2.25,2.25A2.22,2.22,0,0,1,16.91,18v-6A2.16,2.16,0,0,1,18,10l2.32-1.48a4.76,4.76,0,0,1,2.39-.7h7.38l8.44-4.78a1.13,1.13,0,0,0,.42-1.55l-.56-1A1.19,1.19,0,0,0,36.8.13L29.21,4.49H22.67a7.78,7.78,0,0,0-4.15,1.19L16.13,7.16a5.66,5.66,0,0,0-2.46,3.51L9.45,13.2a5.55,5.55,0,0,0-2.67,4.86v2.39L.59,24a1.11,1.11,0,0,0-.42,1.55l.56,1a1.08,1.08,0,0,0,1.55.43l7.88-4.58V18.06a2.18,2.18,0,0,1,1.05-2l2.32-1.41v3a5.86,5.86,0,0,0,5,5.91A5.68,5.68,0,0,0,24.78,18V16.86h7.31a.6.6,0,0,1,.57.56v2.25a.56.56,0,0,1-.57.57H29.84v4.21a2,2,0,0,1-2,2H26.19v1.69a2.28,2.28,0,0,1-2.32,2.25h-9L10.44,33A1.13,1.13,0,0,0,10,34.51l.56.91a1.08,1.08,0,0,0,1.55.42l3.65-2.1h8.09a5.67,5.67,0,0,0,5.48-4.15,5.39,5.39,0,0,0,3.87-5.14v-1a4.06,4.06,0,0,0,2.6-2.53l8.65-5.06A1.12,1.12,0,0,0,44.82,14.33Z"/></svg>