<svg id="Layer_1" data-name="Layer 1" xmlns="http://www.w3.org/2000/svg" viewBox="0 0 36 37"><defs><style>.cls-1{fill:#fff;}</style></defs><path class="cls-1" d="M34.66,25.25,27,22a3.53,3.53,0,0,0-.84-.15,2.53,2.53,0,0,0-1.69.78l-3.09,3.8A28.38,28.38,0,0,1,10.13,15.13L13.92,12a2.53,2.53,0,0,0,.78-1.69,3.1,3.1,0,0,0-.15-.84l-3.3-7.66a2.29,2.29,0,0,0-2-1.27H8.79L1.69,2.26A2.17,2.17,0,0,0,0,4.37,32.12,32.12,0,0,0,32.13,36.5a2.31,2.31,0,0,0,2.18-1.69l1.62-7.1v-.49A2.29,2.29,0,0,0,34.66,25.25Zm-2.6,9A29.83,29.83,0,0,1,2.25,4.44l7-1.62,3.24,7.52L7.31,14.56C10.76,21.8,14.7,25.74,22,29.19l4.15-5.14,7.52,3.24Z"/></svg>